G04 #@! TF.GenerationSoftware,KiCad,Pcbnew,(5.1.7)-1*
G04 #@! TF.CreationDate,2020-12-05T21:57:18-08:00*
G04 #@! TF.ProjectId,DellAdapter_3.1_PanelX3,44656c6c-4164-4617-9074-65725f332e31,rev?*
G04 #@! TF.SameCoordinates,Original*
G04 #@! TF.FileFunction,Paste,Bot*
G04 #@! TF.FilePolarity,Positive*
%FSLAX46Y46*%
G04 Gerber Fmt 4.6, Leading zero omitted, Abs format (unit mm)*
G04 Created by KiCad (PCBNEW (5.1.7)-1) date 2020-12-05 21:57:18*
%MOMM*%
%LPD*%
G01*
G04 APERTURE LIST*
%ADD10C,0.001000*%
%ADD11R,0.914400X0.350000*%
%ADD12R,1.193800X0.280000*%
G04 APERTURE END LIST*
D10*
G36*
X128289000Y-108280000D02*
G01*
X128289000Y-108030000D01*
X128589000Y-108030000D01*
X128615168Y-108030685D01*
X128641264Y-108032739D01*
X128667217Y-108036156D01*
X128692956Y-108040926D01*
X128718410Y-108047037D01*
X128743508Y-108054472D01*
X128768184Y-108063210D01*
X128792368Y-108073227D01*
X128815995Y-108084497D01*
X128839000Y-108096987D01*
X128861320Y-108110665D01*
X128882893Y-108125492D01*
X128903660Y-108141427D01*
X128923565Y-108158428D01*
X128942553Y-108176447D01*
X128960572Y-108195435D01*
X128977573Y-108215340D01*
X128993508Y-108236107D01*
X129008335Y-108257680D01*
X129022013Y-108280000D01*
X129034503Y-108303005D01*
X129045773Y-108326632D01*
X129055790Y-108350816D01*
X129064528Y-108375492D01*
X129071963Y-108400590D01*
X129078074Y-108426044D01*
X129082844Y-108451783D01*
X129086261Y-108477736D01*
X129088315Y-108503832D01*
X129089000Y-108530000D01*
X129088315Y-108556168D01*
X129086261Y-108582264D01*
X129082844Y-108608217D01*
X129078074Y-108633956D01*
X129071963Y-108659410D01*
X129064528Y-108684508D01*
X129055790Y-108709184D01*
X129045773Y-108733368D01*
X129034503Y-108756995D01*
X129022013Y-108780000D01*
X129008335Y-108802320D01*
X128993508Y-108823893D01*
X128977573Y-108844660D01*
X128960572Y-108864565D01*
X128942553Y-108883553D01*
X128923565Y-108901572D01*
X128903660Y-108918573D01*
X128882893Y-108934508D01*
X128861320Y-108949335D01*
X128839000Y-108963013D01*
X128815995Y-108975503D01*
X128792368Y-108986773D01*
X128768184Y-108996790D01*
X128743508Y-109005528D01*
X128718410Y-109012963D01*
X128692956Y-109019074D01*
X128667217Y-109023844D01*
X128641264Y-109027261D01*
X128615168Y-109029315D01*
X128589000Y-109030000D01*
X128289000Y-109030000D01*
X128289000Y-108780000D01*
X128589000Y-108780000D01*
X128602084Y-108779657D01*
X128615132Y-108778630D01*
X128628109Y-108776922D01*
X128640978Y-108774537D01*
X128653705Y-108771481D01*
X128666254Y-108767764D01*
X128678592Y-108763395D01*
X128690684Y-108758386D01*
X128702498Y-108752752D01*
X128714000Y-108746506D01*
X128725160Y-108739668D01*
X128735946Y-108732254D01*
X128746330Y-108724286D01*
X128756283Y-108715786D01*
X128765777Y-108706777D01*
X128774786Y-108697283D01*
X128783286Y-108687330D01*
X128791254Y-108676946D01*
X128798668Y-108666160D01*
X128805506Y-108655000D01*
X128811752Y-108643498D01*
X128817386Y-108631684D01*
X128822395Y-108619592D01*
X128826764Y-108607254D01*
X128830481Y-108594705D01*
X128833537Y-108581978D01*
X128835922Y-108569109D01*
X128837630Y-108556132D01*
X128838657Y-108543084D01*
X128839000Y-108530000D01*
X128838657Y-108516916D01*
X128837630Y-108503868D01*
X128835922Y-108490891D01*
X128833537Y-108478022D01*
X128830481Y-108465295D01*
X128826764Y-108452746D01*
X128822395Y-108440408D01*
X128817386Y-108428316D01*
X128811752Y-108416502D01*
X128805506Y-108405000D01*
X128798668Y-108393840D01*
X128791254Y-108383054D01*
X128783286Y-108372670D01*
X128774786Y-108362717D01*
X128765777Y-108353223D01*
X128756283Y-108344214D01*
X128746330Y-108335714D01*
X128735946Y-108327746D01*
X128725160Y-108320332D01*
X128714000Y-108313494D01*
X128702498Y-108307248D01*
X128690684Y-108301614D01*
X128678592Y-108296605D01*
X128666254Y-108292236D01*
X128653705Y-108288519D01*
X128640978Y-108285463D01*
X128628109Y-108283078D01*
X128615132Y-108281370D01*
X128602084Y-108280343D01*
X128589000Y-108280000D01*
X128289000Y-108280000D01*
G37*
X128289000Y-108280000D02*
X128289000Y-108030000D01*
X128589000Y-108030000D01*
X128615168Y-108030685D01*
X128641264Y-108032739D01*
X128667217Y-108036156D01*
X128692956Y-108040926D01*
X128718410Y-108047037D01*
X128743508Y-108054472D01*
X128768184Y-108063210D01*
X128792368Y-108073227D01*
X128815995Y-108084497D01*
X128839000Y-108096987D01*
X128861320Y-108110665D01*
X128882893Y-108125492D01*
X128903660Y-108141427D01*
X128923565Y-108158428D01*
X128942553Y-108176447D01*
X128960572Y-108195435D01*
X128977573Y-108215340D01*
X128993508Y-108236107D01*
X129008335Y-108257680D01*
X129022013Y-108280000D01*
X129034503Y-108303005D01*
X129045773Y-108326632D01*
X129055790Y-108350816D01*
X129064528Y-108375492D01*
X129071963Y-108400590D01*
X129078074Y-108426044D01*
X129082844Y-108451783D01*
X129086261Y-108477736D01*
X129088315Y-108503832D01*
X129089000Y-108530000D01*
X129088315Y-108556168D01*
X129086261Y-108582264D01*
X129082844Y-108608217D01*
X129078074Y-108633956D01*
X129071963Y-108659410D01*
X129064528Y-108684508D01*
X129055790Y-108709184D01*
X129045773Y-108733368D01*
X129034503Y-108756995D01*
X129022013Y-108780000D01*
X129008335Y-108802320D01*
X128993508Y-108823893D01*
X128977573Y-108844660D01*
X128960572Y-108864565D01*
X128942553Y-108883553D01*
X128923565Y-108901572D01*
X128903660Y-108918573D01*
X128882893Y-108934508D01*
X128861320Y-108949335D01*
X128839000Y-108963013D01*
X128815995Y-108975503D01*
X128792368Y-108986773D01*
X128768184Y-108996790D01*
X128743508Y-109005528D01*
X128718410Y-109012963D01*
X128692956Y-109019074D01*
X128667217Y-109023844D01*
X128641264Y-109027261D01*
X128615168Y-109029315D01*
X128589000Y-109030000D01*
X128289000Y-109030000D01*
X128289000Y-108780000D01*
X128589000Y-108780000D01*
X128602084Y-108779657D01*
X128615132Y-108778630D01*
X128628109Y-108776922D01*
X128640978Y-108774537D01*
X128653705Y-108771481D01*
X128666254Y-108767764D01*
X128678592Y-108763395D01*
X128690684Y-108758386D01*
X128702498Y-108752752D01*
X128714000Y-108746506D01*
X128725160Y-108739668D01*
X128735946Y-108732254D01*
X128746330Y-108724286D01*
X128756283Y-108715786D01*
X128765777Y-108706777D01*
X128774786Y-108697283D01*
X128783286Y-108687330D01*
X128791254Y-108676946D01*
X128798668Y-108666160D01*
X128805506Y-108655000D01*
X128811752Y-108643498D01*
X128817386Y-108631684D01*
X128822395Y-108619592D01*
X128826764Y-108607254D01*
X128830481Y-108594705D01*
X128833537Y-108581978D01*
X128835922Y-108569109D01*
X128837630Y-108556132D01*
X128838657Y-108543084D01*
X128839000Y-108530000D01*
X128838657Y-108516916D01*
X128837630Y-108503868D01*
X128835922Y-108490891D01*
X128833537Y-108478022D01*
X128830481Y-108465295D01*
X128826764Y-108452746D01*
X128822395Y-108440408D01*
X128817386Y-108428316D01*
X128811752Y-108416502D01*
X128805506Y-108405000D01*
X128798668Y-108393840D01*
X128791254Y-108383054D01*
X128783286Y-108372670D01*
X128774786Y-108362717D01*
X128765777Y-108353223D01*
X128756283Y-108344214D01*
X128746330Y-108335714D01*
X128735946Y-108327746D01*
X128725160Y-108320332D01*
X128714000Y-108313494D01*
X128702498Y-108307248D01*
X128690684Y-108301614D01*
X128678592Y-108296605D01*
X128666254Y-108292236D01*
X128653705Y-108288519D01*
X128640978Y-108285463D01*
X128628109Y-108283078D01*
X128615132Y-108281370D01*
X128602084Y-108280343D01*
X128589000Y-108280000D01*
X128289000Y-108280000D01*
G36*
X128289000Y-108780000D02*
G01*
X128289000Y-109030000D01*
X127989000Y-109030000D01*
X127962832Y-109029315D01*
X127936736Y-109027261D01*
X127910783Y-109023844D01*
X127885044Y-109019074D01*
X127859590Y-109012963D01*
X127834492Y-109005528D01*
X127809816Y-108996790D01*
X127785632Y-108986773D01*
X127762005Y-108975503D01*
X127739000Y-108963013D01*
X127716680Y-108949335D01*
X127695107Y-108934508D01*
X127674340Y-108918573D01*
X127654435Y-108901572D01*
X127635447Y-108883553D01*
X127617428Y-108864565D01*
X127600427Y-108844660D01*
X127584492Y-108823893D01*
X127569665Y-108802320D01*
X127555987Y-108780000D01*
X127543497Y-108756995D01*
X127532227Y-108733368D01*
X127522210Y-108709184D01*
X127513472Y-108684508D01*
X127506037Y-108659410D01*
X127499926Y-108633956D01*
X127495156Y-108608217D01*
X127491739Y-108582264D01*
X127489685Y-108556168D01*
X127489000Y-108530000D01*
X127489685Y-108503832D01*
X127491739Y-108477736D01*
X127495156Y-108451783D01*
X127499926Y-108426044D01*
X127506037Y-108400590D01*
X127513472Y-108375492D01*
X127522210Y-108350816D01*
X127532227Y-108326632D01*
X127543497Y-108303005D01*
X127555987Y-108280000D01*
X127569665Y-108257680D01*
X127584492Y-108236107D01*
X127600427Y-108215340D01*
X127617428Y-108195435D01*
X127635447Y-108176447D01*
X127654435Y-108158428D01*
X127674340Y-108141427D01*
X127695107Y-108125492D01*
X127716680Y-108110665D01*
X127739000Y-108096987D01*
X127762005Y-108084497D01*
X127785632Y-108073227D01*
X127809816Y-108063210D01*
X127834492Y-108054472D01*
X127859590Y-108047037D01*
X127885044Y-108040926D01*
X127910783Y-108036156D01*
X127936736Y-108032739D01*
X127962832Y-108030685D01*
X127989000Y-108030000D01*
X128289000Y-108030000D01*
X128289000Y-108280000D01*
X127989000Y-108280000D01*
X127975916Y-108280343D01*
X127962868Y-108281370D01*
X127949891Y-108283078D01*
X127937022Y-108285463D01*
X127924295Y-108288519D01*
X127911746Y-108292236D01*
X127899408Y-108296605D01*
X127887316Y-108301614D01*
X127875502Y-108307248D01*
X127864000Y-108313494D01*
X127852840Y-108320332D01*
X127842054Y-108327746D01*
X127831670Y-108335714D01*
X127821717Y-108344214D01*
X127812223Y-108353223D01*
X127803214Y-108362717D01*
X127794714Y-108372670D01*
X127786746Y-108383054D01*
X127779332Y-108393840D01*
X127772494Y-108405000D01*
X127766248Y-108416502D01*
X127760614Y-108428316D01*
X127755605Y-108440408D01*
X127751236Y-108452746D01*
X127747519Y-108465295D01*
X127744463Y-108478022D01*
X127742078Y-108490891D01*
X127740370Y-108503868D01*
X127739343Y-108516916D01*
X127739000Y-108530000D01*
X127739343Y-108543084D01*
X127740370Y-108556132D01*
X127742078Y-108569109D01*
X127744463Y-108581978D01*
X127747519Y-108594705D01*
X127751236Y-108607254D01*
X127755605Y-108619592D01*
X127760614Y-108631684D01*
X127766248Y-108643498D01*
X127772494Y-108655000D01*
X127779332Y-108666160D01*
X127786746Y-108676946D01*
X127794714Y-108687330D01*
X127803214Y-108697283D01*
X127812223Y-108706777D01*
X127821717Y-108715786D01*
X127831670Y-108724286D01*
X127842054Y-108732254D01*
X127852840Y-108739668D01*
X127864000Y-108746506D01*
X127875502Y-108752752D01*
X127887316Y-108758386D01*
X127899408Y-108763395D01*
X127911746Y-108767764D01*
X127924295Y-108771481D01*
X127937022Y-108774537D01*
X127949891Y-108776922D01*
X127962868Y-108778630D01*
X127975916Y-108779657D01*
X127989000Y-108780000D01*
X128289000Y-108780000D01*
G37*
X128289000Y-108780000D02*
X128289000Y-109030000D01*
X127989000Y-109030000D01*
X127962832Y-109029315D01*
X127936736Y-109027261D01*
X127910783Y-109023844D01*
X127885044Y-109019074D01*
X127859590Y-109012963D01*
X127834492Y-109005528D01*
X127809816Y-108996790D01*
X127785632Y-108986773D01*
X127762005Y-108975503D01*
X127739000Y-108963013D01*
X127716680Y-108949335D01*
X127695107Y-108934508D01*
X127674340Y-108918573D01*
X127654435Y-108901572D01*
X127635447Y-108883553D01*
X127617428Y-108864565D01*
X127600427Y-108844660D01*
X127584492Y-108823893D01*
X127569665Y-108802320D01*
X127555987Y-108780000D01*
X127543497Y-108756995D01*
X127532227Y-108733368D01*
X127522210Y-108709184D01*
X127513472Y-108684508D01*
X127506037Y-108659410D01*
X127499926Y-108633956D01*
X127495156Y-108608217D01*
X127491739Y-108582264D01*
X127489685Y-108556168D01*
X127489000Y-108530000D01*
X127489685Y-108503832D01*
X127491739Y-108477736D01*
X127495156Y-108451783D01*
X127499926Y-108426044D01*
X127506037Y-108400590D01*
X127513472Y-108375492D01*
X127522210Y-108350816D01*
X127532227Y-108326632D01*
X127543497Y-108303005D01*
X127555987Y-108280000D01*
X127569665Y-108257680D01*
X127584492Y-108236107D01*
X127600427Y-108215340D01*
X127617428Y-108195435D01*
X127635447Y-108176447D01*
X127654435Y-108158428D01*
X127674340Y-108141427D01*
X127695107Y-108125492D01*
X127716680Y-108110665D01*
X127739000Y-108096987D01*
X127762005Y-108084497D01*
X127785632Y-108073227D01*
X127809816Y-108063210D01*
X127834492Y-108054472D01*
X127859590Y-108047037D01*
X127885044Y-108040926D01*
X127910783Y-108036156D01*
X127936736Y-108032739D01*
X127962832Y-108030685D01*
X127989000Y-108030000D01*
X128289000Y-108030000D01*
X128289000Y-108280000D01*
X127989000Y-108280000D01*
X127975916Y-108280343D01*
X127962868Y-108281370D01*
X127949891Y-108283078D01*
X127937022Y-108285463D01*
X127924295Y-108288519D01*
X127911746Y-108292236D01*
X127899408Y-108296605D01*
X127887316Y-108301614D01*
X127875502Y-108307248D01*
X127864000Y-108313494D01*
X127852840Y-108320332D01*
X127842054Y-108327746D01*
X127831670Y-108335714D01*
X127821717Y-108344214D01*
X127812223Y-108353223D01*
X127803214Y-108362717D01*
X127794714Y-108372670D01*
X127786746Y-108383054D01*
X127779332Y-108393840D01*
X127772494Y-108405000D01*
X127766248Y-108416502D01*
X127760614Y-108428316D01*
X127755605Y-108440408D01*
X127751236Y-108452746D01*
X127747519Y-108465295D01*
X127744463Y-108478022D01*
X127742078Y-108490891D01*
X127740370Y-108503868D01*
X127739343Y-108516916D01*
X127739000Y-108530000D01*
X127739343Y-108543084D01*
X127740370Y-108556132D01*
X127742078Y-108569109D01*
X127744463Y-108581978D01*
X127747519Y-108594705D01*
X127751236Y-108607254D01*
X127755605Y-108619592D01*
X127760614Y-108631684D01*
X127766248Y-108643498D01*
X127772494Y-108655000D01*
X127779332Y-108666160D01*
X127786746Y-108676946D01*
X127794714Y-108687330D01*
X127803214Y-108697283D01*
X127812223Y-108706777D01*
X127821717Y-108715786D01*
X127831670Y-108724286D01*
X127842054Y-108732254D01*
X127852840Y-108739668D01*
X127864000Y-108746506D01*
X127875502Y-108752752D01*
X127887316Y-108758386D01*
X127899408Y-108763395D01*
X127911746Y-108767764D01*
X127924295Y-108771481D01*
X127937022Y-108774537D01*
X127949891Y-108776922D01*
X127962868Y-108778630D01*
X127975916Y-108779657D01*
X127989000Y-108780000D01*
X128289000Y-108780000D01*
G36*
X128289000Y-117280000D02*
G01*
X128289000Y-117030000D01*
X128589000Y-117030000D01*
X128615168Y-117030685D01*
X128641264Y-117032739D01*
X128667217Y-117036156D01*
X128692956Y-117040926D01*
X128718410Y-117047037D01*
X128743508Y-117054472D01*
X128768184Y-117063210D01*
X128792368Y-117073227D01*
X128815995Y-117084497D01*
X128839000Y-117096987D01*
X128861320Y-117110665D01*
X128882893Y-117125492D01*
X128903660Y-117141427D01*
X128923565Y-117158428D01*
X128942553Y-117176447D01*
X128960572Y-117195435D01*
X128977573Y-117215340D01*
X128993508Y-117236107D01*
X129008335Y-117257680D01*
X129022013Y-117280000D01*
X129034503Y-117303005D01*
X129045773Y-117326632D01*
X129055790Y-117350816D01*
X129064528Y-117375492D01*
X129071963Y-117400590D01*
X129078074Y-117426044D01*
X129082844Y-117451783D01*
X129086261Y-117477736D01*
X129088315Y-117503832D01*
X129089000Y-117530000D01*
X129088315Y-117556168D01*
X129086261Y-117582264D01*
X129082844Y-117608217D01*
X129078074Y-117633956D01*
X129071963Y-117659410D01*
X129064528Y-117684508D01*
X129055790Y-117709184D01*
X129045773Y-117733368D01*
X129034503Y-117756995D01*
X129022013Y-117780000D01*
X129008335Y-117802320D01*
X128993508Y-117823893D01*
X128977573Y-117844660D01*
X128960572Y-117864565D01*
X128942553Y-117883553D01*
X128923565Y-117901572D01*
X128903660Y-117918573D01*
X128882893Y-117934508D01*
X128861320Y-117949335D01*
X128839000Y-117963013D01*
X128815995Y-117975503D01*
X128792368Y-117986773D01*
X128768184Y-117996790D01*
X128743508Y-118005528D01*
X128718410Y-118012963D01*
X128692956Y-118019074D01*
X128667217Y-118023844D01*
X128641264Y-118027261D01*
X128615168Y-118029315D01*
X128589000Y-118030000D01*
X128289000Y-118030000D01*
X128289000Y-117780000D01*
X128589000Y-117780000D01*
X128602084Y-117779657D01*
X128615132Y-117778630D01*
X128628109Y-117776922D01*
X128640978Y-117774537D01*
X128653705Y-117771481D01*
X128666254Y-117767764D01*
X128678592Y-117763395D01*
X128690684Y-117758386D01*
X128702498Y-117752752D01*
X128714000Y-117746506D01*
X128725160Y-117739668D01*
X128735946Y-117732254D01*
X128746330Y-117724286D01*
X128756283Y-117715786D01*
X128765777Y-117706777D01*
X128774786Y-117697283D01*
X128783286Y-117687330D01*
X128791254Y-117676946D01*
X128798668Y-117666160D01*
X128805506Y-117655000D01*
X128811752Y-117643498D01*
X128817386Y-117631684D01*
X128822395Y-117619592D01*
X128826764Y-117607254D01*
X128830481Y-117594705D01*
X128833537Y-117581978D01*
X128835922Y-117569109D01*
X128837630Y-117556132D01*
X128838657Y-117543084D01*
X128839000Y-117530000D01*
X128838657Y-117516916D01*
X128837630Y-117503868D01*
X128835922Y-117490891D01*
X128833537Y-117478022D01*
X128830481Y-117465295D01*
X128826764Y-117452746D01*
X128822395Y-117440408D01*
X128817386Y-117428316D01*
X128811752Y-117416502D01*
X128805506Y-117405000D01*
X128798668Y-117393840D01*
X128791254Y-117383054D01*
X128783286Y-117372670D01*
X128774786Y-117362717D01*
X128765777Y-117353223D01*
X128756283Y-117344214D01*
X128746330Y-117335714D01*
X128735946Y-117327746D01*
X128725160Y-117320332D01*
X128714000Y-117313494D01*
X128702498Y-117307248D01*
X128690684Y-117301614D01*
X128678592Y-117296605D01*
X128666254Y-117292236D01*
X128653705Y-117288519D01*
X128640978Y-117285463D01*
X128628109Y-117283078D01*
X128615132Y-117281370D01*
X128602084Y-117280343D01*
X128589000Y-117280000D01*
X128289000Y-117280000D01*
G37*
X128289000Y-117280000D02*
X128289000Y-117030000D01*
X128589000Y-117030000D01*
X128615168Y-117030685D01*
X128641264Y-117032739D01*
X128667217Y-117036156D01*
X128692956Y-117040926D01*
X128718410Y-117047037D01*
X128743508Y-117054472D01*
X128768184Y-117063210D01*
X128792368Y-117073227D01*
X128815995Y-117084497D01*
X128839000Y-117096987D01*
X128861320Y-117110665D01*
X128882893Y-117125492D01*
X128903660Y-117141427D01*
X128923565Y-117158428D01*
X128942553Y-117176447D01*
X128960572Y-117195435D01*
X128977573Y-117215340D01*
X128993508Y-117236107D01*
X129008335Y-117257680D01*
X129022013Y-117280000D01*
X129034503Y-117303005D01*
X129045773Y-117326632D01*
X129055790Y-117350816D01*
X129064528Y-117375492D01*
X129071963Y-117400590D01*
X129078074Y-117426044D01*
X129082844Y-117451783D01*
X129086261Y-117477736D01*
X129088315Y-117503832D01*
X129089000Y-117530000D01*
X129088315Y-117556168D01*
X129086261Y-117582264D01*
X129082844Y-117608217D01*
X129078074Y-117633956D01*
X129071963Y-117659410D01*
X129064528Y-117684508D01*
X129055790Y-117709184D01*
X129045773Y-117733368D01*
X129034503Y-117756995D01*
X129022013Y-117780000D01*
X129008335Y-117802320D01*
X128993508Y-117823893D01*
X128977573Y-117844660D01*
X128960572Y-117864565D01*
X128942553Y-117883553D01*
X128923565Y-117901572D01*
X128903660Y-117918573D01*
X128882893Y-117934508D01*
X128861320Y-117949335D01*
X128839000Y-117963013D01*
X128815995Y-117975503D01*
X128792368Y-117986773D01*
X128768184Y-117996790D01*
X128743508Y-118005528D01*
X128718410Y-118012963D01*
X128692956Y-118019074D01*
X128667217Y-118023844D01*
X128641264Y-118027261D01*
X128615168Y-118029315D01*
X128589000Y-118030000D01*
X128289000Y-118030000D01*
X128289000Y-117780000D01*
X128589000Y-117780000D01*
X128602084Y-117779657D01*
X128615132Y-117778630D01*
X128628109Y-117776922D01*
X128640978Y-117774537D01*
X128653705Y-117771481D01*
X128666254Y-117767764D01*
X128678592Y-117763395D01*
X128690684Y-117758386D01*
X128702498Y-117752752D01*
X128714000Y-117746506D01*
X128725160Y-117739668D01*
X128735946Y-117732254D01*
X128746330Y-117724286D01*
X128756283Y-117715786D01*
X128765777Y-117706777D01*
X128774786Y-117697283D01*
X128783286Y-117687330D01*
X128791254Y-117676946D01*
X128798668Y-117666160D01*
X128805506Y-117655000D01*
X128811752Y-117643498D01*
X128817386Y-117631684D01*
X128822395Y-117619592D01*
X128826764Y-117607254D01*
X128830481Y-117594705D01*
X128833537Y-117581978D01*
X128835922Y-117569109D01*
X128837630Y-117556132D01*
X128838657Y-117543084D01*
X128839000Y-117530000D01*
X128838657Y-117516916D01*
X128837630Y-117503868D01*
X128835922Y-117490891D01*
X128833537Y-117478022D01*
X128830481Y-117465295D01*
X128826764Y-117452746D01*
X128822395Y-117440408D01*
X128817386Y-117428316D01*
X128811752Y-117416502D01*
X128805506Y-117405000D01*
X128798668Y-117393840D01*
X128791254Y-117383054D01*
X128783286Y-117372670D01*
X128774786Y-117362717D01*
X128765777Y-117353223D01*
X128756283Y-117344214D01*
X128746330Y-117335714D01*
X128735946Y-117327746D01*
X128725160Y-117320332D01*
X128714000Y-117313494D01*
X128702498Y-117307248D01*
X128690684Y-117301614D01*
X128678592Y-117296605D01*
X128666254Y-117292236D01*
X128653705Y-117288519D01*
X128640978Y-117285463D01*
X128628109Y-117283078D01*
X128615132Y-117281370D01*
X128602084Y-117280343D01*
X128589000Y-117280000D01*
X128289000Y-117280000D01*
G36*
X128289000Y-117780000D02*
G01*
X128289000Y-118030000D01*
X127989000Y-118030000D01*
X127962832Y-118029315D01*
X127936736Y-118027261D01*
X127910783Y-118023844D01*
X127885044Y-118019074D01*
X127859590Y-118012963D01*
X127834492Y-118005528D01*
X127809816Y-117996790D01*
X127785632Y-117986773D01*
X127762005Y-117975503D01*
X127739000Y-117963013D01*
X127716680Y-117949335D01*
X127695107Y-117934508D01*
X127674340Y-117918573D01*
X127654435Y-117901572D01*
X127635447Y-117883553D01*
X127617428Y-117864565D01*
X127600427Y-117844660D01*
X127584492Y-117823893D01*
X127569665Y-117802320D01*
X127555987Y-117780000D01*
X127543497Y-117756995D01*
X127532227Y-117733368D01*
X127522210Y-117709184D01*
X127513472Y-117684508D01*
X127506037Y-117659410D01*
X127499926Y-117633956D01*
X127495156Y-117608217D01*
X127491739Y-117582264D01*
X127489685Y-117556168D01*
X127489000Y-117530000D01*
X127489685Y-117503832D01*
X127491739Y-117477736D01*
X127495156Y-117451783D01*
X127499926Y-117426044D01*
X127506037Y-117400590D01*
X127513472Y-117375492D01*
X127522210Y-117350816D01*
X127532227Y-117326632D01*
X127543497Y-117303005D01*
X127555987Y-117280000D01*
X127569665Y-117257680D01*
X127584492Y-117236107D01*
X127600427Y-117215340D01*
X127617428Y-117195435D01*
X127635447Y-117176447D01*
X127654435Y-117158428D01*
X127674340Y-117141427D01*
X127695107Y-117125492D01*
X127716680Y-117110665D01*
X127739000Y-117096987D01*
X127762005Y-117084497D01*
X127785632Y-117073227D01*
X127809816Y-117063210D01*
X127834492Y-117054472D01*
X127859590Y-117047037D01*
X127885044Y-117040926D01*
X127910783Y-117036156D01*
X127936736Y-117032739D01*
X127962832Y-117030685D01*
X127989000Y-117030000D01*
X128289000Y-117030000D01*
X128289000Y-117280000D01*
X127989000Y-117280000D01*
X127975916Y-117280343D01*
X127962868Y-117281370D01*
X127949891Y-117283078D01*
X127937022Y-117285463D01*
X127924295Y-117288519D01*
X127911746Y-117292236D01*
X127899408Y-117296605D01*
X127887316Y-117301614D01*
X127875502Y-117307248D01*
X127864000Y-117313494D01*
X127852840Y-117320332D01*
X127842054Y-117327746D01*
X127831670Y-117335714D01*
X127821717Y-117344214D01*
X127812223Y-117353223D01*
X127803214Y-117362717D01*
X127794714Y-117372670D01*
X127786746Y-117383054D01*
X127779332Y-117393840D01*
X127772494Y-117405000D01*
X127766248Y-117416502D01*
X127760614Y-117428316D01*
X127755605Y-117440408D01*
X127751236Y-117452746D01*
X127747519Y-117465295D01*
X127744463Y-117478022D01*
X127742078Y-117490891D01*
X127740370Y-117503868D01*
X127739343Y-117516916D01*
X127739000Y-117530000D01*
X127739343Y-117543084D01*
X127740370Y-117556132D01*
X127742078Y-117569109D01*
X127744463Y-117581978D01*
X127747519Y-117594705D01*
X127751236Y-117607254D01*
X127755605Y-117619592D01*
X127760614Y-117631684D01*
X127766248Y-117643498D01*
X127772494Y-117655000D01*
X127779332Y-117666160D01*
X127786746Y-117676946D01*
X127794714Y-117687330D01*
X127803214Y-117697283D01*
X127812223Y-117706777D01*
X127821717Y-117715786D01*
X127831670Y-117724286D01*
X127842054Y-117732254D01*
X127852840Y-117739668D01*
X127864000Y-117746506D01*
X127875502Y-117752752D01*
X127887316Y-117758386D01*
X127899408Y-117763395D01*
X127911746Y-117767764D01*
X127924295Y-117771481D01*
X127937022Y-117774537D01*
X127949891Y-117776922D01*
X127962868Y-117778630D01*
X127975916Y-117779657D01*
X127989000Y-117780000D01*
X128289000Y-117780000D01*
G37*
X128289000Y-117780000D02*
X128289000Y-118030000D01*
X127989000Y-118030000D01*
X127962832Y-118029315D01*
X127936736Y-118027261D01*
X127910783Y-118023844D01*
X127885044Y-118019074D01*
X127859590Y-118012963D01*
X127834492Y-118005528D01*
X127809816Y-117996790D01*
X127785632Y-117986773D01*
X127762005Y-117975503D01*
X127739000Y-117963013D01*
X127716680Y-117949335D01*
X127695107Y-117934508D01*
X127674340Y-117918573D01*
X127654435Y-117901572D01*
X127635447Y-117883553D01*
X127617428Y-117864565D01*
X127600427Y-117844660D01*
X127584492Y-117823893D01*
X127569665Y-117802320D01*
X127555987Y-117780000D01*
X127543497Y-117756995D01*
X127532227Y-117733368D01*
X127522210Y-117709184D01*
X127513472Y-117684508D01*
X127506037Y-117659410D01*
X127499926Y-117633956D01*
X127495156Y-117608217D01*
X127491739Y-117582264D01*
X127489685Y-117556168D01*
X127489000Y-117530000D01*
X127489685Y-117503832D01*
X127491739Y-117477736D01*
X127495156Y-117451783D01*
X127499926Y-117426044D01*
X127506037Y-117400590D01*
X127513472Y-117375492D01*
X127522210Y-117350816D01*
X127532227Y-117326632D01*
X127543497Y-117303005D01*
X127555987Y-117280000D01*
X127569665Y-117257680D01*
X127584492Y-117236107D01*
X127600427Y-117215340D01*
X127617428Y-117195435D01*
X127635447Y-117176447D01*
X127654435Y-117158428D01*
X127674340Y-117141427D01*
X127695107Y-117125492D01*
X127716680Y-117110665D01*
X127739000Y-117096987D01*
X127762005Y-117084497D01*
X127785632Y-117073227D01*
X127809816Y-117063210D01*
X127834492Y-117054472D01*
X127859590Y-117047037D01*
X127885044Y-117040926D01*
X127910783Y-117036156D01*
X127936736Y-117032739D01*
X127962832Y-117030685D01*
X127989000Y-117030000D01*
X128289000Y-117030000D01*
X128289000Y-117280000D01*
X127989000Y-117280000D01*
X127975916Y-117280343D01*
X127962868Y-117281370D01*
X127949891Y-117283078D01*
X127937022Y-117285463D01*
X127924295Y-117288519D01*
X127911746Y-117292236D01*
X127899408Y-117296605D01*
X127887316Y-117301614D01*
X127875502Y-117307248D01*
X127864000Y-117313494D01*
X127852840Y-117320332D01*
X127842054Y-117327746D01*
X127831670Y-117335714D01*
X127821717Y-117344214D01*
X127812223Y-117353223D01*
X127803214Y-117362717D01*
X127794714Y-117372670D01*
X127786746Y-117383054D01*
X127779332Y-117393840D01*
X127772494Y-117405000D01*
X127766248Y-117416502D01*
X127760614Y-117428316D01*
X127755605Y-117440408D01*
X127751236Y-117452746D01*
X127747519Y-117465295D01*
X127744463Y-117478022D01*
X127742078Y-117490891D01*
X127740370Y-117503868D01*
X127739343Y-117516916D01*
X127739000Y-117530000D01*
X127739343Y-117543084D01*
X127740370Y-117556132D01*
X127742078Y-117569109D01*
X127744463Y-117581978D01*
X127747519Y-117594705D01*
X127751236Y-117607254D01*
X127755605Y-117619592D01*
X127760614Y-117631684D01*
X127766248Y-117643498D01*
X127772494Y-117655000D01*
X127779332Y-117666160D01*
X127786746Y-117676946D01*
X127794714Y-117687330D01*
X127803214Y-117697283D01*
X127812223Y-117706777D01*
X127821717Y-117715786D01*
X127831670Y-117724286D01*
X127842054Y-117732254D01*
X127852840Y-117739668D01*
X127864000Y-117746506D01*
X127875502Y-117752752D01*
X127887316Y-117758386D01*
X127899408Y-117763395D01*
X127911746Y-117767764D01*
X127924295Y-117771481D01*
X127937022Y-117774537D01*
X127949891Y-117776922D01*
X127962868Y-117778630D01*
X127975916Y-117779657D01*
X127989000Y-117780000D01*
X128289000Y-117780000D01*
G36*
X122689000Y-108280000D02*
G01*
X122689000Y-108030000D01*
X123089000Y-108030000D01*
X123115168Y-108030685D01*
X123141264Y-108032739D01*
X123167217Y-108036156D01*
X123192956Y-108040926D01*
X123218410Y-108047037D01*
X123243508Y-108054472D01*
X123268184Y-108063210D01*
X123292368Y-108073227D01*
X123315995Y-108084497D01*
X123339000Y-108096987D01*
X123361320Y-108110665D01*
X123382893Y-108125492D01*
X123403660Y-108141427D01*
X123423565Y-108158428D01*
X123442553Y-108176447D01*
X123460572Y-108195435D01*
X123477573Y-108215340D01*
X123493508Y-108236107D01*
X123508335Y-108257680D01*
X123522013Y-108280000D01*
X123534503Y-108303005D01*
X123545773Y-108326632D01*
X123555790Y-108350816D01*
X123564528Y-108375492D01*
X123571963Y-108400590D01*
X123578074Y-108426044D01*
X123582844Y-108451783D01*
X123586261Y-108477736D01*
X123588315Y-108503832D01*
X123589000Y-108530000D01*
X123588315Y-108556168D01*
X123586261Y-108582264D01*
X123582844Y-108608217D01*
X123578074Y-108633956D01*
X123571963Y-108659410D01*
X123564528Y-108684508D01*
X123555790Y-108709184D01*
X123545773Y-108733368D01*
X123534503Y-108756995D01*
X123522013Y-108780000D01*
X123508335Y-108802320D01*
X123493508Y-108823893D01*
X123477573Y-108844660D01*
X123460572Y-108864565D01*
X123442553Y-108883553D01*
X123423565Y-108901572D01*
X123403660Y-108918573D01*
X123382893Y-108934508D01*
X123361320Y-108949335D01*
X123339000Y-108963013D01*
X123315995Y-108975503D01*
X123292368Y-108986773D01*
X123268184Y-108996790D01*
X123243508Y-109005528D01*
X123218410Y-109012963D01*
X123192956Y-109019074D01*
X123167217Y-109023844D01*
X123141264Y-109027261D01*
X123115168Y-109029315D01*
X123089000Y-109030000D01*
X122689000Y-109030000D01*
X122689000Y-108780000D01*
X123089000Y-108780000D01*
X123102084Y-108779657D01*
X123115132Y-108778630D01*
X123128109Y-108776922D01*
X123140978Y-108774537D01*
X123153705Y-108771481D01*
X123166254Y-108767764D01*
X123178592Y-108763395D01*
X123190684Y-108758386D01*
X123202498Y-108752752D01*
X123214000Y-108746506D01*
X123225160Y-108739668D01*
X123235946Y-108732254D01*
X123246330Y-108724286D01*
X123256283Y-108715786D01*
X123265777Y-108706777D01*
X123274786Y-108697283D01*
X123283286Y-108687330D01*
X123291254Y-108676946D01*
X123298668Y-108666160D01*
X123305506Y-108655000D01*
X123311752Y-108643498D01*
X123317386Y-108631684D01*
X123322395Y-108619592D01*
X123326764Y-108607254D01*
X123330481Y-108594705D01*
X123333537Y-108581978D01*
X123335922Y-108569109D01*
X123337630Y-108556132D01*
X123338657Y-108543084D01*
X123339000Y-108530000D01*
X123338657Y-108516916D01*
X123337630Y-108503868D01*
X123335922Y-108490891D01*
X123333537Y-108478022D01*
X123330481Y-108465295D01*
X123326764Y-108452746D01*
X123322395Y-108440408D01*
X123317386Y-108428316D01*
X123311752Y-108416502D01*
X123305506Y-108405000D01*
X123298668Y-108393840D01*
X123291254Y-108383054D01*
X123283286Y-108372670D01*
X123274786Y-108362717D01*
X123265777Y-108353223D01*
X123256283Y-108344214D01*
X123246330Y-108335714D01*
X123235946Y-108327746D01*
X123225160Y-108320332D01*
X123214000Y-108313494D01*
X123202498Y-108307248D01*
X123190684Y-108301614D01*
X123178592Y-108296605D01*
X123166254Y-108292236D01*
X123153705Y-108288519D01*
X123140978Y-108285463D01*
X123128109Y-108283078D01*
X123115132Y-108281370D01*
X123102084Y-108280343D01*
X123089000Y-108280000D01*
X122689000Y-108280000D01*
G37*
X122689000Y-108280000D02*
X122689000Y-108030000D01*
X123089000Y-108030000D01*
X123115168Y-108030685D01*
X123141264Y-108032739D01*
X123167217Y-108036156D01*
X123192956Y-108040926D01*
X123218410Y-108047037D01*
X123243508Y-108054472D01*
X123268184Y-108063210D01*
X123292368Y-108073227D01*
X123315995Y-108084497D01*
X123339000Y-108096987D01*
X123361320Y-108110665D01*
X123382893Y-108125492D01*
X123403660Y-108141427D01*
X123423565Y-108158428D01*
X123442553Y-108176447D01*
X123460572Y-108195435D01*
X123477573Y-108215340D01*
X123493508Y-108236107D01*
X123508335Y-108257680D01*
X123522013Y-108280000D01*
X123534503Y-108303005D01*
X123545773Y-108326632D01*
X123555790Y-108350816D01*
X123564528Y-108375492D01*
X123571963Y-108400590D01*
X123578074Y-108426044D01*
X123582844Y-108451783D01*
X123586261Y-108477736D01*
X123588315Y-108503832D01*
X123589000Y-108530000D01*
X123588315Y-108556168D01*
X123586261Y-108582264D01*
X123582844Y-108608217D01*
X123578074Y-108633956D01*
X123571963Y-108659410D01*
X123564528Y-108684508D01*
X123555790Y-108709184D01*
X123545773Y-108733368D01*
X123534503Y-108756995D01*
X123522013Y-108780000D01*
X123508335Y-108802320D01*
X123493508Y-108823893D01*
X123477573Y-108844660D01*
X123460572Y-108864565D01*
X123442553Y-108883553D01*
X123423565Y-108901572D01*
X123403660Y-108918573D01*
X123382893Y-108934508D01*
X123361320Y-108949335D01*
X123339000Y-108963013D01*
X123315995Y-108975503D01*
X123292368Y-108986773D01*
X123268184Y-108996790D01*
X123243508Y-109005528D01*
X123218410Y-109012963D01*
X123192956Y-109019074D01*
X123167217Y-109023844D01*
X123141264Y-109027261D01*
X123115168Y-109029315D01*
X123089000Y-109030000D01*
X122689000Y-109030000D01*
X122689000Y-108780000D01*
X123089000Y-108780000D01*
X123102084Y-108779657D01*
X123115132Y-108778630D01*
X123128109Y-108776922D01*
X123140978Y-108774537D01*
X123153705Y-108771481D01*
X123166254Y-108767764D01*
X123178592Y-108763395D01*
X123190684Y-108758386D01*
X123202498Y-108752752D01*
X123214000Y-108746506D01*
X123225160Y-108739668D01*
X123235946Y-108732254D01*
X123246330Y-108724286D01*
X123256283Y-108715786D01*
X123265777Y-108706777D01*
X123274786Y-108697283D01*
X123283286Y-108687330D01*
X123291254Y-108676946D01*
X123298668Y-108666160D01*
X123305506Y-108655000D01*
X123311752Y-108643498D01*
X123317386Y-108631684D01*
X123322395Y-108619592D01*
X123326764Y-108607254D01*
X123330481Y-108594705D01*
X123333537Y-108581978D01*
X123335922Y-108569109D01*
X123337630Y-108556132D01*
X123338657Y-108543084D01*
X123339000Y-108530000D01*
X123338657Y-108516916D01*
X123337630Y-108503868D01*
X123335922Y-108490891D01*
X123333537Y-108478022D01*
X123330481Y-108465295D01*
X123326764Y-108452746D01*
X123322395Y-108440408D01*
X123317386Y-108428316D01*
X123311752Y-108416502D01*
X123305506Y-108405000D01*
X123298668Y-108393840D01*
X123291254Y-108383054D01*
X123283286Y-108372670D01*
X123274786Y-108362717D01*
X123265777Y-108353223D01*
X123256283Y-108344214D01*
X123246330Y-108335714D01*
X123235946Y-108327746D01*
X123225160Y-108320332D01*
X123214000Y-108313494D01*
X123202498Y-108307248D01*
X123190684Y-108301614D01*
X123178592Y-108296605D01*
X123166254Y-108292236D01*
X123153705Y-108288519D01*
X123140978Y-108285463D01*
X123128109Y-108283078D01*
X123115132Y-108281370D01*
X123102084Y-108280343D01*
X123089000Y-108280000D01*
X122689000Y-108280000D01*
G36*
X122689000Y-108780000D02*
G01*
X122689000Y-109030000D01*
X122289000Y-109030000D01*
X122262832Y-109029315D01*
X122236736Y-109027261D01*
X122210783Y-109023844D01*
X122185044Y-109019074D01*
X122159590Y-109012963D01*
X122134492Y-109005528D01*
X122109816Y-108996790D01*
X122085632Y-108986773D01*
X122062005Y-108975503D01*
X122039000Y-108963013D01*
X122016680Y-108949335D01*
X121995107Y-108934508D01*
X121974340Y-108918573D01*
X121954435Y-108901572D01*
X121935447Y-108883553D01*
X121917428Y-108864565D01*
X121900427Y-108844660D01*
X121884492Y-108823893D01*
X121869665Y-108802320D01*
X121855987Y-108780000D01*
X121843497Y-108756995D01*
X121832227Y-108733368D01*
X121822210Y-108709184D01*
X121813472Y-108684508D01*
X121806037Y-108659410D01*
X121799926Y-108633956D01*
X121795156Y-108608217D01*
X121791739Y-108582264D01*
X121789685Y-108556168D01*
X121789000Y-108530000D01*
X121789685Y-108503832D01*
X121791739Y-108477736D01*
X121795156Y-108451783D01*
X121799926Y-108426044D01*
X121806037Y-108400590D01*
X121813472Y-108375492D01*
X121822210Y-108350816D01*
X121832227Y-108326632D01*
X121843497Y-108303005D01*
X121855987Y-108280000D01*
X121869665Y-108257680D01*
X121884492Y-108236107D01*
X121900427Y-108215340D01*
X121917428Y-108195435D01*
X121935447Y-108176447D01*
X121954435Y-108158428D01*
X121974340Y-108141427D01*
X121995107Y-108125492D01*
X122016680Y-108110665D01*
X122039000Y-108096987D01*
X122062005Y-108084497D01*
X122085632Y-108073227D01*
X122109816Y-108063210D01*
X122134492Y-108054472D01*
X122159590Y-108047037D01*
X122185044Y-108040926D01*
X122210783Y-108036156D01*
X122236736Y-108032739D01*
X122262832Y-108030685D01*
X122289000Y-108030000D01*
X122689000Y-108030000D01*
X122689000Y-108280000D01*
X122289000Y-108280000D01*
X122275916Y-108280343D01*
X122262868Y-108281370D01*
X122249891Y-108283078D01*
X122237022Y-108285463D01*
X122224295Y-108288519D01*
X122211746Y-108292236D01*
X122199408Y-108296605D01*
X122187316Y-108301614D01*
X122175502Y-108307248D01*
X122164000Y-108313494D01*
X122152840Y-108320332D01*
X122142054Y-108327746D01*
X122131670Y-108335714D01*
X122121717Y-108344214D01*
X122112223Y-108353223D01*
X122103214Y-108362717D01*
X122094714Y-108372670D01*
X122086746Y-108383054D01*
X122079332Y-108393840D01*
X122072494Y-108405000D01*
X122066248Y-108416502D01*
X122060614Y-108428316D01*
X122055605Y-108440408D01*
X122051236Y-108452746D01*
X122047519Y-108465295D01*
X122044463Y-108478022D01*
X122042078Y-108490891D01*
X122040370Y-108503868D01*
X122039343Y-108516916D01*
X122039000Y-108530000D01*
X122039343Y-108543084D01*
X122040370Y-108556132D01*
X122042078Y-108569109D01*
X122044463Y-108581978D01*
X122047519Y-108594705D01*
X122051236Y-108607254D01*
X122055605Y-108619592D01*
X122060614Y-108631684D01*
X122066248Y-108643498D01*
X122072494Y-108655000D01*
X122079332Y-108666160D01*
X122086746Y-108676946D01*
X122094714Y-108687330D01*
X122103214Y-108697283D01*
X122112223Y-108706777D01*
X122121717Y-108715786D01*
X122131670Y-108724286D01*
X122142054Y-108732254D01*
X122152840Y-108739668D01*
X122164000Y-108746506D01*
X122175502Y-108752752D01*
X122187316Y-108758386D01*
X122199408Y-108763395D01*
X122211746Y-108767764D01*
X122224295Y-108771481D01*
X122237022Y-108774537D01*
X122249891Y-108776922D01*
X122262868Y-108778630D01*
X122275916Y-108779657D01*
X122289000Y-108780000D01*
X122689000Y-108780000D01*
G37*
X122689000Y-108780000D02*
X122689000Y-109030000D01*
X122289000Y-109030000D01*
X122262832Y-109029315D01*
X122236736Y-109027261D01*
X122210783Y-109023844D01*
X122185044Y-109019074D01*
X122159590Y-109012963D01*
X122134492Y-109005528D01*
X122109816Y-108996790D01*
X122085632Y-108986773D01*
X122062005Y-108975503D01*
X122039000Y-108963013D01*
X122016680Y-108949335D01*
X121995107Y-108934508D01*
X121974340Y-108918573D01*
X121954435Y-108901572D01*
X121935447Y-108883553D01*
X121917428Y-108864565D01*
X121900427Y-108844660D01*
X121884492Y-108823893D01*
X121869665Y-108802320D01*
X121855987Y-108780000D01*
X121843497Y-108756995D01*
X121832227Y-108733368D01*
X121822210Y-108709184D01*
X121813472Y-108684508D01*
X121806037Y-108659410D01*
X121799926Y-108633956D01*
X121795156Y-108608217D01*
X121791739Y-108582264D01*
X121789685Y-108556168D01*
X121789000Y-108530000D01*
X121789685Y-108503832D01*
X121791739Y-108477736D01*
X121795156Y-108451783D01*
X121799926Y-108426044D01*
X121806037Y-108400590D01*
X121813472Y-108375492D01*
X121822210Y-108350816D01*
X121832227Y-108326632D01*
X121843497Y-108303005D01*
X121855987Y-108280000D01*
X121869665Y-108257680D01*
X121884492Y-108236107D01*
X121900427Y-108215340D01*
X121917428Y-108195435D01*
X121935447Y-108176447D01*
X121954435Y-108158428D01*
X121974340Y-108141427D01*
X121995107Y-108125492D01*
X122016680Y-108110665D01*
X122039000Y-108096987D01*
X122062005Y-108084497D01*
X122085632Y-108073227D01*
X122109816Y-108063210D01*
X122134492Y-108054472D01*
X122159590Y-108047037D01*
X122185044Y-108040926D01*
X122210783Y-108036156D01*
X122236736Y-108032739D01*
X122262832Y-108030685D01*
X122289000Y-108030000D01*
X122689000Y-108030000D01*
X122689000Y-108280000D01*
X122289000Y-108280000D01*
X122275916Y-108280343D01*
X122262868Y-108281370D01*
X122249891Y-108283078D01*
X122237022Y-108285463D01*
X122224295Y-108288519D01*
X122211746Y-108292236D01*
X122199408Y-108296605D01*
X122187316Y-108301614D01*
X122175502Y-108307248D01*
X122164000Y-108313494D01*
X122152840Y-108320332D01*
X122142054Y-108327746D01*
X122131670Y-108335714D01*
X122121717Y-108344214D01*
X122112223Y-108353223D01*
X122103214Y-108362717D01*
X122094714Y-108372670D01*
X122086746Y-108383054D01*
X122079332Y-108393840D01*
X122072494Y-108405000D01*
X122066248Y-108416502D01*
X122060614Y-108428316D01*
X122055605Y-108440408D01*
X122051236Y-108452746D01*
X122047519Y-108465295D01*
X122044463Y-108478022D01*
X122042078Y-108490891D01*
X122040370Y-108503868D01*
X122039343Y-108516916D01*
X122039000Y-108530000D01*
X122039343Y-108543084D01*
X122040370Y-108556132D01*
X122042078Y-108569109D01*
X122044463Y-108581978D01*
X122047519Y-108594705D01*
X122051236Y-108607254D01*
X122055605Y-108619592D01*
X122060614Y-108631684D01*
X122066248Y-108643498D01*
X122072494Y-108655000D01*
X122079332Y-108666160D01*
X122086746Y-108676946D01*
X122094714Y-108687330D01*
X122103214Y-108697283D01*
X122112223Y-108706777D01*
X122121717Y-108715786D01*
X122131670Y-108724286D01*
X122142054Y-108732254D01*
X122152840Y-108739668D01*
X122164000Y-108746506D01*
X122175502Y-108752752D01*
X122187316Y-108758386D01*
X122199408Y-108763395D01*
X122211746Y-108767764D01*
X122224295Y-108771481D01*
X122237022Y-108774537D01*
X122249891Y-108776922D01*
X122262868Y-108778630D01*
X122275916Y-108779657D01*
X122289000Y-108780000D01*
X122689000Y-108780000D01*
G36*
X122689000Y-117280000D02*
G01*
X122689000Y-117030000D01*
X123089000Y-117030000D01*
X123115168Y-117030685D01*
X123141264Y-117032739D01*
X123167217Y-117036156D01*
X123192956Y-117040926D01*
X123218410Y-117047037D01*
X123243508Y-117054472D01*
X123268184Y-117063210D01*
X123292368Y-117073227D01*
X123315995Y-117084497D01*
X123339000Y-117096987D01*
X123361320Y-117110665D01*
X123382893Y-117125492D01*
X123403660Y-117141427D01*
X123423565Y-117158428D01*
X123442553Y-117176447D01*
X123460572Y-117195435D01*
X123477573Y-117215340D01*
X123493508Y-117236107D01*
X123508335Y-117257680D01*
X123522013Y-117280000D01*
X123534503Y-117303005D01*
X123545773Y-117326632D01*
X123555790Y-117350816D01*
X123564528Y-117375492D01*
X123571963Y-117400590D01*
X123578074Y-117426044D01*
X123582844Y-117451783D01*
X123586261Y-117477736D01*
X123588315Y-117503832D01*
X123589000Y-117530000D01*
X123588315Y-117556168D01*
X123586261Y-117582264D01*
X123582844Y-117608217D01*
X123578074Y-117633956D01*
X123571963Y-117659410D01*
X123564528Y-117684508D01*
X123555790Y-117709184D01*
X123545773Y-117733368D01*
X123534503Y-117756995D01*
X123522013Y-117780000D01*
X123508335Y-117802320D01*
X123493508Y-117823893D01*
X123477573Y-117844660D01*
X123460572Y-117864565D01*
X123442553Y-117883553D01*
X123423565Y-117901572D01*
X123403660Y-117918573D01*
X123382893Y-117934508D01*
X123361320Y-117949335D01*
X123339000Y-117963013D01*
X123315995Y-117975503D01*
X123292368Y-117986773D01*
X123268184Y-117996790D01*
X123243508Y-118005528D01*
X123218410Y-118012963D01*
X123192956Y-118019074D01*
X123167217Y-118023844D01*
X123141264Y-118027261D01*
X123115168Y-118029315D01*
X123089000Y-118030000D01*
X122689000Y-118030000D01*
X122689000Y-117780000D01*
X123089000Y-117780000D01*
X123102084Y-117779657D01*
X123115132Y-117778630D01*
X123128109Y-117776922D01*
X123140978Y-117774537D01*
X123153705Y-117771481D01*
X123166254Y-117767764D01*
X123178592Y-117763395D01*
X123190684Y-117758386D01*
X123202498Y-117752752D01*
X123214000Y-117746506D01*
X123225160Y-117739668D01*
X123235946Y-117732254D01*
X123246330Y-117724286D01*
X123256283Y-117715786D01*
X123265777Y-117706777D01*
X123274786Y-117697283D01*
X123283286Y-117687330D01*
X123291254Y-117676946D01*
X123298668Y-117666160D01*
X123305506Y-117655000D01*
X123311752Y-117643498D01*
X123317386Y-117631684D01*
X123322395Y-117619592D01*
X123326764Y-117607254D01*
X123330481Y-117594705D01*
X123333537Y-117581978D01*
X123335922Y-117569109D01*
X123337630Y-117556132D01*
X123338657Y-117543084D01*
X123339000Y-117530000D01*
X123338657Y-117516916D01*
X123337630Y-117503868D01*
X123335922Y-117490891D01*
X123333537Y-117478022D01*
X123330481Y-117465295D01*
X123326764Y-117452746D01*
X123322395Y-117440408D01*
X123317386Y-117428316D01*
X123311752Y-117416502D01*
X123305506Y-117405000D01*
X123298668Y-117393840D01*
X123291254Y-117383054D01*
X123283286Y-117372670D01*
X123274786Y-117362717D01*
X123265777Y-117353223D01*
X123256283Y-117344214D01*
X123246330Y-117335714D01*
X123235946Y-117327746D01*
X123225160Y-117320332D01*
X123214000Y-117313494D01*
X123202498Y-117307248D01*
X123190684Y-117301614D01*
X123178592Y-117296605D01*
X123166254Y-117292236D01*
X123153705Y-117288519D01*
X123140978Y-117285463D01*
X123128109Y-117283078D01*
X123115132Y-117281370D01*
X123102084Y-117280343D01*
X123089000Y-117280000D01*
X122689000Y-117280000D01*
G37*
X122689000Y-117280000D02*
X122689000Y-117030000D01*
X123089000Y-117030000D01*
X123115168Y-117030685D01*
X123141264Y-117032739D01*
X123167217Y-117036156D01*
X123192956Y-117040926D01*
X123218410Y-117047037D01*
X123243508Y-117054472D01*
X123268184Y-117063210D01*
X123292368Y-117073227D01*
X123315995Y-117084497D01*
X123339000Y-117096987D01*
X123361320Y-117110665D01*
X123382893Y-117125492D01*
X123403660Y-117141427D01*
X123423565Y-117158428D01*
X123442553Y-117176447D01*
X123460572Y-117195435D01*
X123477573Y-117215340D01*
X123493508Y-117236107D01*
X123508335Y-117257680D01*
X123522013Y-117280000D01*
X123534503Y-117303005D01*
X123545773Y-117326632D01*
X123555790Y-117350816D01*
X123564528Y-117375492D01*
X123571963Y-117400590D01*
X123578074Y-117426044D01*
X123582844Y-117451783D01*
X123586261Y-117477736D01*
X123588315Y-117503832D01*
X123589000Y-117530000D01*
X123588315Y-117556168D01*
X123586261Y-117582264D01*
X123582844Y-117608217D01*
X123578074Y-117633956D01*
X123571963Y-117659410D01*
X123564528Y-117684508D01*
X123555790Y-117709184D01*
X123545773Y-117733368D01*
X123534503Y-117756995D01*
X123522013Y-117780000D01*
X123508335Y-117802320D01*
X123493508Y-117823893D01*
X123477573Y-117844660D01*
X123460572Y-117864565D01*
X123442553Y-117883553D01*
X123423565Y-117901572D01*
X123403660Y-117918573D01*
X123382893Y-117934508D01*
X123361320Y-117949335D01*
X123339000Y-117963013D01*
X123315995Y-117975503D01*
X123292368Y-117986773D01*
X123268184Y-117996790D01*
X123243508Y-118005528D01*
X123218410Y-118012963D01*
X123192956Y-118019074D01*
X123167217Y-118023844D01*
X123141264Y-118027261D01*
X123115168Y-118029315D01*
X123089000Y-118030000D01*
X122689000Y-118030000D01*
X122689000Y-117780000D01*
X123089000Y-117780000D01*
X123102084Y-117779657D01*
X123115132Y-117778630D01*
X123128109Y-117776922D01*
X123140978Y-117774537D01*
X123153705Y-117771481D01*
X123166254Y-117767764D01*
X123178592Y-117763395D01*
X123190684Y-117758386D01*
X123202498Y-117752752D01*
X123214000Y-117746506D01*
X123225160Y-117739668D01*
X123235946Y-117732254D01*
X123246330Y-117724286D01*
X123256283Y-117715786D01*
X123265777Y-117706777D01*
X123274786Y-117697283D01*
X123283286Y-117687330D01*
X123291254Y-117676946D01*
X123298668Y-117666160D01*
X123305506Y-117655000D01*
X123311752Y-117643498D01*
X123317386Y-117631684D01*
X123322395Y-117619592D01*
X123326764Y-117607254D01*
X123330481Y-117594705D01*
X123333537Y-117581978D01*
X123335922Y-117569109D01*
X123337630Y-117556132D01*
X123338657Y-117543084D01*
X123339000Y-117530000D01*
X123338657Y-117516916D01*
X123337630Y-117503868D01*
X123335922Y-117490891D01*
X123333537Y-117478022D01*
X123330481Y-117465295D01*
X123326764Y-117452746D01*
X123322395Y-117440408D01*
X123317386Y-117428316D01*
X123311752Y-117416502D01*
X123305506Y-117405000D01*
X123298668Y-117393840D01*
X123291254Y-117383054D01*
X123283286Y-117372670D01*
X123274786Y-117362717D01*
X123265777Y-117353223D01*
X123256283Y-117344214D01*
X123246330Y-117335714D01*
X123235946Y-117327746D01*
X123225160Y-117320332D01*
X123214000Y-117313494D01*
X123202498Y-117307248D01*
X123190684Y-117301614D01*
X123178592Y-117296605D01*
X123166254Y-117292236D01*
X123153705Y-117288519D01*
X123140978Y-117285463D01*
X123128109Y-117283078D01*
X123115132Y-117281370D01*
X123102084Y-117280343D01*
X123089000Y-117280000D01*
X122689000Y-117280000D01*
G36*
X122689000Y-117780000D02*
G01*
X122689000Y-118030000D01*
X122289000Y-118030000D01*
X122262832Y-118029315D01*
X122236736Y-118027261D01*
X122210783Y-118023844D01*
X122185044Y-118019074D01*
X122159590Y-118012963D01*
X122134492Y-118005528D01*
X122109816Y-117996790D01*
X122085632Y-117986773D01*
X122062005Y-117975503D01*
X122039000Y-117963013D01*
X122016680Y-117949335D01*
X121995107Y-117934508D01*
X121974340Y-117918573D01*
X121954435Y-117901572D01*
X121935447Y-117883553D01*
X121917428Y-117864565D01*
X121900427Y-117844660D01*
X121884492Y-117823893D01*
X121869665Y-117802320D01*
X121855987Y-117780000D01*
X121843497Y-117756995D01*
X121832227Y-117733368D01*
X121822210Y-117709184D01*
X121813472Y-117684508D01*
X121806037Y-117659410D01*
X121799926Y-117633956D01*
X121795156Y-117608217D01*
X121791739Y-117582264D01*
X121789685Y-117556168D01*
X121789000Y-117530000D01*
X121789685Y-117503832D01*
X121791739Y-117477736D01*
X121795156Y-117451783D01*
X121799926Y-117426044D01*
X121806037Y-117400590D01*
X121813472Y-117375492D01*
X121822210Y-117350816D01*
X121832227Y-117326632D01*
X121843497Y-117303005D01*
X121855987Y-117280000D01*
X121869665Y-117257680D01*
X121884492Y-117236107D01*
X121900427Y-117215340D01*
X121917428Y-117195435D01*
X121935447Y-117176447D01*
X121954435Y-117158428D01*
X121974340Y-117141427D01*
X121995107Y-117125492D01*
X122016680Y-117110665D01*
X122039000Y-117096987D01*
X122062005Y-117084497D01*
X122085632Y-117073227D01*
X122109816Y-117063210D01*
X122134492Y-117054472D01*
X122159590Y-117047037D01*
X122185044Y-117040926D01*
X122210783Y-117036156D01*
X122236736Y-117032739D01*
X122262832Y-117030685D01*
X122289000Y-117030000D01*
X122689000Y-117030000D01*
X122689000Y-117280000D01*
X122289000Y-117280000D01*
X122275916Y-117280343D01*
X122262868Y-117281370D01*
X122249891Y-117283078D01*
X122237022Y-117285463D01*
X122224295Y-117288519D01*
X122211746Y-117292236D01*
X122199408Y-117296605D01*
X122187316Y-117301614D01*
X122175502Y-117307248D01*
X122164000Y-117313494D01*
X122152840Y-117320332D01*
X122142054Y-117327746D01*
X122131670Y-117335714D01*
X122121717Y-117344214D01*
X122112223Y-117353223D01*
X122103214Y-117362717D01*
X122094714Y-117372670D01*
X122086746Y-117383054D01*
X122079332Y-117393840D01*
X122072494Y-117405000D01*
X122066248Y-117416502D01*
X122060614Y-117428316D01*
X122055605Y-117440408D01*
X122051236Y-117452746D01*
X122047519Y-117465295D01*
X122044463Y-117478022D01*
X122042078Y-117490891D01*
X122040370Y-117503868D01*
X122039343Y-117516916D01*
X122039000Y-117530000D01*
X122039343Y-117543084D01*
X122040370Y-117556132D01*
X122042078Y-117569109D01*
X122044463Y-117581978D01*
X122047519Y-117594705D01*
X122051236Y-117607254D01*
X122055605Y-117619592D01*
X122060614Y-117631684D01*
X122066248Y-117643498D01*
X122072494Y-117655000D01*
X122079332Y-117666160D01*
X122086746Y-117676946D01*
X122094714Y-117687330D01*
X122103214Y-117697283D01*
X122112223Y-117706777D01*
X122121717Y-117715786D01*
X122131670Y-117724286D01*
X122142054Y-117732254D01*
X122152840Y-117739668D01*
X122164000Y-117746506D01*
X122175502Y-117752752D01*
X122187316Y-117758386D01*
X122199408Y-117763395D01*
X122211746Y-117767764D01*
X122224295Y-117771481D01*
X122237022Y-117774537D01*
X122249891Y-117776922D01*
X122262868Y-117778630D01*
X122275916Y-117779657D01*
X122289000Y-117780000D01*
X122689000Y-117780000D01*
G37*
X122689000Y-117780000D02*
X122689000Y-118030000D01*
X122289000Y-118030000D01*
X122262832Y-118029315D01*
X122236736Y-118027261D01*
X122210783Y-118023844D01*
X122185044Y-118019074D01*
X122159590Y-118012963D01*
X122134492Y-118005528D01*
X122109816Y-117996790D01*
X122085632Y-117986773D01*
X122062005Y-117975503D01*
X122039000Y-117963013D01*
X122016680Y-117949335D01*
X121995107Y-117934508D01*
X121974340Y-117918573D01*
X121954435Y-117901572D01*
X121935447Y-117883553D01*
X121917428Y-117864565D01*
X121900427Y-117844660D01*
X121884492Y-117823893D01*
X121869665Y-117802320D01*
X121855987Y-117780000D01*
X121843497Y-117756995D01*
X121832227Y-117733368D01*
X121822210Y-117709184D01*
X121813472Y-117684508D01*
X121806037Y-117659410D01*
X121799926Y-117633956D01*
X121795156Y-117608217D01*
X121791739Y-117582264D01*
X121789685Y-117556168D01*
X121789000Y-117530000D01*
X121789685Y-117503832D01*
X121791739Y-117477736D01*
X121795156Y-117451783D01*
X121799926Y-117426044D01*
X121806037Y-117400590D01*
X121813472Y-117375492D01*
X121822210Y-117350816D01*
X121832227Y-117326632D01*
X121843497Y-117303005D01*
X121855987Y-117280000D01*
X121869665Y-117257680D01*
X121884492Y-117236107D01*
X121900427Y-117215340D01*
X121917428Y-117195435D01*
X121935447Y-117176447D01*
X121954435Y-117158428D01*
X121974340Y-117141427D01*
X121995107Y-117125492D01*
X122016680Y-117110665D01*
X122039000Y-117096987D01*
X122062005Y-117084497D01*
X122085632Y-117073227D01*
X122109816Y-117063210D01*
X122134492Y-117054472D01*
X122159590Y-117047037D01*
X122185044Y-117040926D01*
X122210783Y-117036156D01*
X122236736Y-117032739D01*
X122262832Y-117030685D01*
X122289000Y-117030000D01*
X122689000Y-117030000D01*
X122689000Y-117280000D01*
X122289000Y-117280000D01*
X122275916Y-117280343D01*
X122262868Y-117281370D01*
X122249891Y-117283078D01*
X122237022Y-117285463D01*
X122224295Y-117288519D01*
X122211746Y-117292236D01*
X122199408Y-117296605D01*
X122187316Y-117301614D01*
X122175502Y-117307248D01*
X122164000Y-117313494D01*
X122152840Y-117320332D01*
X122142054Y-117327746D01*
X122131670Y-117335714D01*
X122121717Y-117344214D01*
X122112223Y-117353223D01*
X122103214Y-117362717D01*
X122094714Y-117372670D01*
X122086746Y-117383054D01*
X122079332Y-117393840D01*
X122072494Y-117405000D01*
X122066248Y-117416502D01*
X122060614Y-117428316D01*
X122055605Y-117440408D01*
X122051236Y-117452746D01*
X122047519Y-117465295D01*
X122044463Y-117478022D01*
X122042078Y-117490891D01*
X122040370Y-117503868D01*
X122039343Y-117516916D01*
X122039000Y-117530000D01*
X122039343Y-117543084D01*
X122040370Y-117556132D01*
X122042078Y-117569109D01*
X122044463Y-117581978D01*
X122047519Y-117594705D01*
X122051236Y-117607254D01*
X122055605Y-117619592D01*
X122060614Y-117631684D01*
X122066248Y-117643498D01*
X122072494Y-117655000D01*
X122079332Y-117666160D01*
X122086746Y-117676946D01*
X122094714Y-117687330D01*
X122103214Y-117697283D01*
X122112223Y-117706777D01*
X122121717Y-117715786D01*
X122131670Y-117724286D01*
X122142054Y-117732254D01*
X122152840Y-117739668D01*
X122164000Y-117746506D01*
X122175502Y-117752752D01*
X122187316Y-117758386D01*
X122199408Y-117763395D01*
X122211746Y-117767764D01*
X122224295Y-117771481D01*
X122237022Y-117774537D01*
X122249891Y-117776922D01*
X122262868Y-117778630D01*
X122275916Y-117779657D01*
X122289000Y-117780000D01*
X122689000Y-117780000D01*
G36*
X122689000Y-103048000D02*
G01*
X122689000Y-103298000D01*
X122289000Y-103298000D01*
X122262832Y-103297315D01*
X122236736Y-103295261D01*
X122210783Y-103291844D01*
X122185044Y-103287074D01*
X122159590Y-103280963D01*
X122134492Y-103273528D01*
X122109816Y-103264790D01*
X122085632Y-103254773D01*
X122062005Y-103243503D01*
X122039000Y-103231013D01*
X122016680Y-103217335D01*
X121995107Y-103202508D01*
X121974340Y-103186573D01*
X121954435Y-103169572D01*
X121935447Y-103151553D01*
X121917428Y-103132565D01*
X121900427Y-103112660D01*
X121884492Y-103091893D01*
X121869665Y-103070320D01*
X121855987Y-103048000D01*
X121843497Y-103024995D01*
X121832227Y-103001368D01*
X121822210Y-102977184D01*
X121813472Y-102952508D01*
X121806037Y-102927410D01*
X121799926Y-102901956D01*
X121795156Y-102876217D01*
X121791739Y-102850264D01*
X121789685Y-102824168D01*
X121789000Y-102798000D01*
X121789685Y-102771832D01*
X121791739Y-102745736D01*
X121795156Y-102719783D01*
X121799926Y-102694044D01*
X121806037Y-102668590D01*
X121813472Y-102643492D01*
X121822210Y-102618816D01*
X121832227Y-102594632D01*
X121843497Y-102571005D01*
X121855987Y-102548000D01*
X121869665Y-102525680D01*
X121884492Y-102504107D01*
X121900427Y-102483340D01*
X121917428Y-102463435D01*
X121935447Y-102444447D01*
X121954435Y-102426428D01*
X121974340Y-102409427D01*
X121995107Y-102393492D01*
X122016680Y-102378665D01*
X122039000Y-102364987D01*
X122062005Y-102352497D01*
X122085632Y-102341227D01*
X122109816Y-102331210D01*
X122134492Y-102322472D01*
X122159590Y-102315037D01*
X122185044Y-102308926D01*
X122210783Y-102304156D01*
X122236736Y-102300739D01*
X122262832Y-102298685D01*
X122289000Y-102298000D01*
X122689000Y-102298000D01*
X122689000Y-102548000D01*
X122289000Y-102548000D01*
X122275916Y-102548343D01*
X122262868Y-102549370D01*
X122249891Y-102551078D01*
X122237022Y-102553463D01*
X122224295Y-102556519D01*
X122211746Y-102560236D01*
X122199408Y-102564605D01*
X122187316Y-102569614D01*
X122175502Y-102575248D01*
X122164000Y-102581494D01*
X122152840Y-102588332D01*
X122142054Y-102595746D01*
X122131670Y-102603714D01*
X122121717Y-102612214D01*
X122112223Y-102621223D01*
X122103214Y-102630717D01*
X122094714Y-102640670D01*
X122086746Y-102651054D01*
X122079332Y-102661840D01*
X122072494Y-102673000D01*
X122066248Y-102684502D01*
X122060614Y-102696316D01*
X122055605Y-102708408D01*
X122051236Y-102720746D01*
X122047519Y-102733295D01*
X122044463Y-102746022D01*
X122042078Y-102758891D01*
X122040370Y-102771868D01*
X122039343Y-102784916D01*
X122039000Y-102798000D01*
X122039343Y-102811084D01*
X122040370Y-102824132D01*
X122042078Y-102837109D01*
X122044463Y-102849978D01*
X122047519Y-102862705D01*
X122051236Y-102875254D01*
X122055605Y-102887592D01*
X122060614Y-102899684D01*
X122066248Y-102911498D01*
X122072494Y-102923000D01*
X122079332Y-102934160D01*
X122086746Y-102944946D01*
X122094714Y-102955330D01*
X122103214Y-102965283D01*
X122112223Y-102974777D01*
X122121717Y-102983786D01*
X122131670Y-102992286D01*
X122142054Y-103000254D01*
X122152840Y-103007668D01*
X122164000Y-103014506D01*
X122175502Y-103020752D01*
X122187316Y-103026386D01*
X122199408Y-103031395D01*
X122211746Y-103035764D01*
X122224295Y-103039481D01*
X122237022Y-103042537D01*
X122249891Y-103044922D01*
X122262868Y-103046630D01*
X122275916Y-103047657D01*
X122289000Y-103048000D01*
X122689000Y-103048000D01*
G37*
X122689000Y-103048000D02*
X122689000Y-103298000D01*
X122289000Y-103298000D01*
X122262832Y-103297315D01*
X122236736Y-103295261D01*
X122210783Y-103291844D01*
X122185044Y-103287074D01*
X122159590Y-103280963D01*
X122134492Y-103273528D01*
X122109816Y-103264790D01*
X122085632Y-103254773D01*
X122062005Y-103243503D01*
X122039000Y-103231013D01*
X122016680Y-103217335D01*
X121995107Y-103202508D01*
X121974340Y-103186573D01*
X121954435Y-103169572D01*
X121935447Y-103151553D01*
X121917428Y-103132565D01*
X121900427Y-103112660D01*
X121884492Y-103091893D01*
X121869665Y-103070320D01*
X121855987Y-103048000D01*
X121843497Y-103024995D01*
X121832227Y-103001368D01*
X121822210Y-102977184D01*
X121813472Y-102952508D01*
X121806037Y-102927410D01*
X121799926Y-102901956D01*
X121795156Y-102876217D01*
X121791739Y-102850264D01*
X121789685Y-102824168D01*
X121789000Y-102798000D01*
X121789685Y-102771832D01*
X121791739Y-102745736D01*
X121795156Y-102719783D01*
X121799926Y-102694044D01*
X121806037Y-102668590D01*
X121813472Y-102643492D01*
X121822210Y-102618816D01*
X121832227Y-102594632D01*
X121843497Y-102571005D01*
X121855987Y-102548000D01*
X121869665Y-102525680D01*
X121884492Y-102504107D01*
X121900427Y-102483340D01*
X121917428Y-102463435D01*
X121935447Y-102444447D01*
X121954435Y-102426428D01*
X121974340Y-102409427D01*
X121995107Y-102393492D01*
X122016680Y-102378665D01*
X122039000Y-102364987D01*
X122062005Y-102352497D01*
X122085632Y-102341227D01*
X122109816Y-102331210D01*
X122134492Y-102322472D01*
X122159590Y-102315037D01*
X122185044Y-102308926D01*
X122210783Y-102304156D01*
X122236736Y-102300739D01*
X122262832Y-102298685D01*
X122289000Y-102298000D01*
X122689000Y-102298000D01*
X122689000Y-102548000D01*
X122289000Y-102548000D01*
X122275916Y-102548343D01*
X122262868Y-102549370D01*
X122249891Y-102551078D01*
X122237022Y-102553463D01*
X122224295Y-102556519D01*
X122211746Y-102560236D01*
X122199408Y-102564605D01*
X122187316Y-102569614D01*
X122175502Y-102575248D01*
X122164000Y-102581494D01*
X122152840Y-102588332D01*
X122142054Y-102595746D01*
X122131670Y-102603714D01*
X122121717Y-102612214D01*
X122112223Y-102621223D01*
X122103214Y-102630717D01*
X122094714Y-102640670D01*
X122086746Y-102651054D01*
X122079332Y-102661840D01*
X122072494Y-102673000D01*
X122066248Y-102684502D01*
X122060614Y-102696316D01*
X122055605Y-102708408D01*
X122051236Y-102720746D01*
X122047519Y-102733295D01*
X122044463Y-102746022D01*
X122042078Y-102758891D01*
X122040370Y-102771868D01*
X122039343Y-102784916D01*
X122039000Y-102798000D01*
X122039343Y-102811084D01*
X122040370Y-102824132D01*
X122042078Y-102837109D01*
X122044463Y-102849978D01*
X122047519Y-102862705D01*
X122051236Y-102875254D01*
X122055605Y-102887592D01*
X122060614Y-102899684D01*
X122066248Y-102911498D01*
X122072494Y-102923000D01*
X122079332Y-102934160D01*
X122086746Y-102944946D01*
X122094714Y-102955330D01*
X122103214Y-102965283D01*
X122112223Y-102974777D01*
X122121717Y-102983786D01*
X122131670Y-102992286D01*
X122142054Y-103000254D01*
X122152840Y-103007668D01*
X122164000Y-103014506D01*
X122175502Y-103020752D01*
X122187316Y-103026386D01*
X122199408Y-103031395D01*
X122211746Y-103035764D01*
X122224295Y-103039481D01*
X122237022Y-103042537D01*
X122249891Y-103044922D01*
X122262868Y-103046630D01*
X122275916Y-103047657D01*
X122289000Y-103048000D01*
X122689000Y-103048000D01*
G36*
X122689000Y-102548000D02*
G01*
X122689000Y-102298000D01*
X123089000Y-102298000D01*
X123115168Y-102298685D01*
X123141264Y-102300739D01*
X123167217Y-102304156D01*
X123192956Y-102308926D01*
X123218410Y-102315037D01*
X123243508Y-102322472D01*
X123268184Y-102331210D01*
X123292368Y-102341227D01*
X123315995Y-102352497D01*
X123339000Y-102364987D01*
X123361320Y-102378665D01*
X123382893Y-102393492D01*
X123403660Y-102409427D01*
X123423565Y-102426428D01*
X123442553Y-102444447D01*
X123460572Y-102463435D01*
X123477573Y-102483340D01*
X123493508Y-102504107D01*
X123508335Y-102525680D01*
X123522013Y-102548000D01*
X123534503Y-102571005D01*
X123545773Y-102594632D01*
X123555790Y-102618816D01*
X123564528Y-102643492D01*
X123571963Y-102668590D01*
X123578074Y-102694044D01*
X123582844Y-102719783D01*
X123586261Y-102745736D01*
X123588315Y-102771832D01*
X123589000Y-102798000D01*
X123588315Y-102824168D01*
X123586261Y-102850264D01*
X123582844Y-102876217D01*
X123578074Y-102901956D01*
X123571963Y-102927410D01*
X123564528Y-102952508D01*
X123555790Y-102977184D01*
X123545773Y-103001368D01*
X123534503Y-103024995D01*
X123522013Y-103048000D01*
X123508335Y-103070320D01*
X123493508Y-103091893D01*
X123477573Y-103112660D01*
X123460572Y-103132565D01*
X123442553Y-103151553D01*
X123423565Y-103169572D01*
X123403660Y-103186573D01*
X123382893Y-103202508D01*
X123361320Y-103217335D01*
X123339000Y-103231013D01*
X123315995Y-103243503D01*
X123292368Y-103254773D01*
X123268184Y-103264790D01*
X123243508Y-103273528D01*
X123218410Y-103280963D01*
X123192956Y-103287074D01*
X123167217Y-103291844D01*
X123141264Y-103295261D01*
X123115168Y-103297315D01*
X123089000Y-103298000D01*
X122689000Y-103298000D01*
X122689000Y-103048000D01*
X123089000Y-103048000D01*
X123102084Y-103047657D01*
X123115132Y-103046630D01*
X123128109Y-103044922D01*
X123140978Y-103042537D01*
X123153705Y-103039481D01*
X123166254Y-103035764D01*
X123178592Y-103031395D01*
X123190684Y-103026386D01*
X123202498Y-103020752D01*
X123214000Y-103014506D01*
X123225160Y-103007668D01*
X123235946Y-103000254D01*
X123246330Y-102992286D01*
X123256283Y-102983786D01*
X123265777Y-102974777D01*
X123274786Y-102965283D01*
X123283286Y-102955330D01*
X123291254Y-102944946D01*
X123298668Y-102934160D01*
X123305506Y-102923000D01*
X123311752Y-102911498D01*
X123317386Y-102899684D01*
X123322395Y-102887592D01*
X123326764Y-102875254D01*
X123330481Y-102862705D01*
X123333537Y-102849978D01*
X123335922Y-102837109D01*
X123337630Y-102824132D01*
X123338657Y-102811084D01*
X123339000Y-102798000D01*
X123338657Y-102784916D01*
X123337630Y-102771868D01*
X123335922Y-102758891D01*
X123333537Y-102746022D01*
X123330481Y-102733295D01*
X123326764Y-102720746D01*
X123322395Y-102708408D01*
X123317386Y-102696316D01*
X123311752Y-102684502D01*
X123305506Y-102673000D01*
X123298668Y-102661840D01*
X123291254Y-102651054D01*
X123283286Y-102640670D01*
X123274786Y-102630717D01*
X123265777Y-102621223D01*
X123256283Y-102612214D01*
X123246330Y-102603714D01*
X123235946Y-102595746D01*
X123225160Y-102588332D01*
X123214000Y-102581494D01*
X123202498Y-102575248D01*
X123190684Y-102569614D01*
X123178592Y-102564605D01*
X123166254Y-102560236D01*
X123153705Y-102556519D01*
X123140978Y-102553463D01*
X123128109Y-102551078D01*
X123115132Y-102549370D01*
X123102084Y-102548343D01*
X123089000Y-102548000D01*
X122689000Y-102548000D01*
G37*
X122689000Y-102548000D02*
X122689000Y-102298000D01*
X123089000Y-102298000D01*
X123115168Y-102298685D01*
X123141264Y-102300739D01*
X123167217Y-102304156D01*
X123192956Y-102308926D01*
X123218410Y-102315037D01*
X123243508Y-102322472D01*
X123268184Y-102331210D01*
X123292368Y-102341227D01*
X123315995Y-102352497D01*
X123339000Y-102364987D01*
X123361320Y-102378665D01*
X123382893Y-102393492D01*
X123403660Y-102409427D01*
X123423565Y-102426428D01*
X123442553Y-102444447D01*
X123460572Y-102463435D01*
X123477573Y-102483340D01*
X123493508Y-102504107D01*
X123508335Y-102525680D01*
X123522013Y-102548000D01*
X123534503Y-102571005D01*
X123545773Y-102594632D01*
X123555790Y-102618816D01*
X123564528Y-102643492D01*
X123571963Y-102668590D01*
X123578074Y-102694044D01*
X123582844Y-102719783D01*
X123586261Y-102745736D01*
X123588315Y-102771832D01*
X123589000Y-102798000D01*
X123588315Y-102824168D01*
X123586261Y-102850264D01*
X123582844Y-102876217D01*
X123578074Y-102901956D01*
X123571963Y-102927410D01*
X123564528Y-102952508D01*
X123555790Y-102977184D01*
X123545773Y-103001368D01*
X123534503Y-103024995D01*
X123522013Y-103048000D01*
X123508335Y-103070320D01*
X123493508Y-103091893D01*
X123477573Y-103112660D01*
X123460572Y-103132565D01*
X123442553Y-103151553D01*
X123423565Y-103169572D01*
X123403660Y-103186573D01*
X123382893Y-103202508D01*
X123361320Y-103217335D01*
X123339000Y-103231013D01*
X123315995Y-103243503D01*
X123292368Y-103254773D01*
X123268184Y-103264790D01*
X123243508Y-103273528D01*
X123218410Y-103280963D01*
X123192956Y-103287074D01*
X123167217Y-103291844D01*
X123141264Y-103295261D01*
X123115168Y-103297315D01*
X123089000Y-103298000D01*
X122689000Y-103298000D01*
X122689000Y-103048000D01*
X123089000Y-103048000D01*
X123102084Y-103047657D01*
X123115132Y-103046630D01*
X123128109Y-103044922D01*
X123140978Y-103042537D01*
X123153705Y-103039481D01*
X123166254Y-103035764D01*
X123178592Y-103031395D01*
X123190684Y-103026386D01*
X123202498Y-103020752D01*
X123214000Y-103014506D01*
X123225160Y-103007668D01*
X123235946Y-103000254D01*
X123246330Y-102992286D01*
X123256283Y-102983786D01*
X123265777Y-102974777D01*
X123274786Y-102965283D01*
X123283286Y-102955330D01*
X123291254Y-102944946D01*
X123298668Y-102934160D01*
X123305506Y-102923000D01*
X123311752Y-102911498D01*
X123317386Y-102899684D01*
X123322395Y-102887592D01*
X123326764Y-102875254D01*
X123330481Y-102862705D01*
X123333537Y-102849978D01*
X123335922Y-102837109D01*
X123337630Y-102824132D01*
X123338657Y-102811084D01*
X123339000Y-102798000D01*
X123338657Y-102784916D01*
X123337630Y-102771868D01*
X123335922Y-102758891D01*
X123333537Y-102746022D01*
X123330481Y-102733295D01*
X123326764Y-102720746D01*
X123322395Y-102708408D01*
X123317386Y-102696316D01*
X123311752Y-102684502D01*
X123305506Y-102673000D01*
X123298668Y-102661840D01*
X123291254Y-102651054D01*
X123283286Y-102640670D01*
X123274786Y-102630717D01*
X123265777Y-102621223D01*
X123256283Y-102612214D01*
X123246330Y-102603714D01*
X123235946Y-102595746D01*
X123225160Y-102588332D01*
X123214000Y-102581494D01*
X123202498Y-102575248D01*
X123190684Y-102569614D01*
X123178592Y-102564605D01*
X123166254Y-102560236D01*
X123153705Y-102556519D01*
X123140978Y-102553463D01*
X123128109Y-102551078D01*
X123115132Y-102549370D01*
X123102084Y-102548343D01*
X123089000Y-102548000D01*
X122689000Y-102548000D01*
G36*
X122689000Y-94048000D02*
G01*
X122689000Y-94298000D01*
X122289000Y-94298000D01*
X122262832Y-94297315D01*
X122236736Y-94295261D01*
X122210783Y-94291844D01*
X122185044Y-94287074D01*
X122159590Y-94280963D01*
X122134492Y-94273528D01*
X122109816Y-94264790D01*
X122085632Y-94254773D01*
X122062005Y-94243503D01*
X122039000Y-94231013D01*
X122016680Y-94217335D01*
X121995107Y-94202508D01*
X121974340Y-94186573D01*
X121954435Y-94169572D01*
X121935447Y-94151553D01*
X121917428Y-94132565D01*
X121900427Y-94112660D01*
X121884492Y-94091893D01*
X121869665Y-94070320D01*
X121855987Y-94048000D01*
X121843497Y-94024995D01*
X121832227Y-94001368D01*
X121822210Y-93977184D01*
X121813472Y-93952508D01*
X121806037Y-93927410D01*
X121799926Y-93901956D01*
X121795156Y-93876217D01*
X121791739Y-93850264D01*
X121789685Y-93824168D01*
X121789000Y-93798000D01*
X121789685Y-93771832D01*
X121791739Y-93745736D01*
X121795156Y-93719783D01*
X121799926Y-93694044D01*
X121806037Y-93668590D01*
X121813472Y-93643492D01*
X121822210Y-93618816D01*
X121832227Y-93594632D01*
X121843497Y-93571005D01*
X121855987Y-93548000D01*
X121869665Y-93525680D01*
X121884492Y-93504107D01*
X121900427Y-93483340D01*
X121917428Y-93463435D01*
X121935447Y-93444447D01*
X121954435Y-93426428D01*
X121974340Y-93409427D01*
X121995107Y-93393492D01*
X122016680Y-93378665D01*
X122039000Y-93364987D01*
X122062005Y-93352497D01*
X122085632Y-93341227D01*
X122109816Y-93331210D01*
X122134492Y-93322472D01*
X122159590Y-93315037D01*
X122185044Y-93308926D01*
X122210783Y-93304156D01*
X122236736Y-93300739D01*
X122262832Y-93298685D01*
X122289000Y-93298000D01*
X122689000Y-93298000D01*
X122689000Y-93548000D01*
X122289000Y-93548000D01*
X122275916Y-93548343D01*
X122262868Y-93549370D01*
X122249891Y-93551078D01*
X122237022Y-93553463D01*
X122224295Y-93556519D01*
X122211746Y-93560236D01*
X122199408Y-93564605D01*
X122187316Y-93569614D01*
X122175502Y-93575248D01*
X122164000Y-93581494D01*
X122152840Y-93588332D01*
X122142054Y-93595746D01*
X122131670Y-93603714D01*
X122121717Y-93612214D01*
X122112223Y-93621223D01*
X122103214Y-93630717D01*
X122094714Y-93640670D01*
X122086746Y-93651054D01*
X122079332Y-93661840D01*
X122072494Y-93673000D01*
X122066248Y-93684502D01*
X122060614Y-93696316D01*
X122055605Y-93708408D01*
X122051236Y-93720746D01*
X122047519Y-93733295D01*
X122044463Y-93746022D01*
X122042078Y-93758891D01*
X122040370Y-93771868D01*
X122039343Y-93784916D01*
X122039000Y-93798000D01*
X122039343Y-93811084D01*
X122040370Y-93824132D01*
X122042078Y-93837109D01*
X122044463Y-93849978D01*
X122047519Y-93862705D01*
X122051236Y-93875254D01*
X122055605Y-93887592D01*
X122060614Y-93899684D01*
X122066248Y-93911498D01*
X122072494Y-93923000D01*
X122079332Y-93934160D01*
X122086746Y-93944946D01*
X122094714Y-93955330D01*
X122103214Y-93965283D01*
X122112223Y-93974777D01*
X122121717Y-93983786D01*
X122131670Y-93992286D01*
X122142054Y-94000254D01*
X122152840Y-94007668D01*
X122164000Y-94014506D01*
X122175502Y-94020752D01*
X122187316Y-94026386D01*
X122199408Y-94031395D01*
X122211746Y-94035764D01*
X122224295Y-94039481D01*
X122237022Y-94042537D01*
X122249891Y-94044922D01*
X122262868Y-94046630D01*
X122275916Y-94047657D01*
X122289000Y-94048000D01*
X122689000Y-94048000D01*
G37*
X122689000Y-94048000D02*
X122689000Y-94298000D01*
X122289000Y-94298000D01*
X122262832Y-94297315D01*
X122236736Y-94295261D01*
X122210783Y-94291844D01*
X122185044Y-94287074D01*
X122159590Y-94280963D01*
X122134492Y-94273528D01*
X122109816Y-94264790D01*
X122085632Y-94254773D01*
X122062005Y-94243503D01*
X122039000Y-94231013D01*
X122016680Y-94217335D01*
X121995107Y-94202508D01*
X121974340Y-94186573D01*
X121954435Y-94169572D01*
X121935447Y-94151553D01*
X121917428Y-94132565D01*
X121900427Y-94112660D01*
X121884492Y-94091893D01*
X121869665Y-94070320D01*
X121855987Y-94048000D01*
X121843497Y-94024995D01*
X121832227Y-94001368D01*
X121822210Y-93977184D01*
X121813472Y-93952508D01*
X121806037Y-93927410D01*
X121799926Y-93901956D01*
X121795156Y-93876217D01*
X121791739Y-93850264D01*
X121789685Y-93824168D01*
X121789000Y-93798000D01*
X121789685Y-93771832D01*
X121791739Y-93745736D01*
X121795156Y-93719783D01*
X121799926Y-93694044D01*
X121806037Y-93668590D01*
X121813472Y-93643492D01*
X121822210Y-93618816D01*
X121832227Y-93594632D01*
X121843497Y-93571005D01*
X121855987Y-93548000D01*
X121869665Y-93525680D01*
X121884492Y-93504107D01*
X121900427Y-93483340D01*
X121917428Y-93463435D01*
X121935447Y-93444447D01*
X121954435Y-93426428D01*
X121974340Y-93409427D01*
X121995107Y-93393492D01*
X122016680Y-93378665D01*
X122039000Y-93364987D01*
X122062005Y-93352497D01*
X122085632Y-93341227D01*
X122109816Y-93331210D01*
X122134492Y-93322472D01*
X122159590Y-93315037D01*
X122185044Y-93308926D01*
X122210783Y-93304156D01*
X122236736Y-93300739D01*
X122262832Y-93298685D01*
X122289000Y-93298000D01*
X122689000Y-93298000D01*
X122689000Y-93548000D01*
X122289000Y-93548000D01*
X122275916Y-93548343D01*
X122262868Y-93549370D01*
X122249891Y-93551078D01*
X122237022Y-93553463D01*
X122224295Y-93556519D01*
X122211746Y-93560236D01*
X122199408Y-93564605D01*
X122187316Y-93569614D01*
X122175502Y-93575248D01*
X122164000Y-93581494D01*
X122152840Y-93588332D01*
X122142054Y-93595746D01*
X122131670Y-93603714D01*
X122121717Y-93612214D01*
X122112223Y-93621223D01*
X122103214Y-93630717D01*
X122094714Y-93640670D01*
X122086746Y-93651054D01*
X122079332Y-93661840D01*
X122072494Y-93673000D01*
X122066248Y-93684502D01*
X122060614Y-93696316D01*
X122055605Y-93708408D01*
X122051236Y-93720746D01*
X122047519Y-93733295D01*
X122044463Y-93746022D01*
X122042078Y-93758891D01*
X122040370Y-93771868D01*
X122039343Y-93784916D01*
X122039000Y-93798000D01*
X122039343Y-93811084D01*
X122040370Y-93824132D01*
X122042078Y-93837109D01*
X122044463Y-93849978D01*
X122047519Y-93862705D01*
X122051236Y-93875254D01*
X122055605Y-93887592D01*
X122060614Y-93899684D01*
X122066248Y-93911498D01*
X122072494Y-93923000D01*
X122079332Y-93934160D01*
X122086746Y-93944946D01*
X122094714Y-93955330D01*
X122103214Y-93965283D01*
X122112223Y-93974777D01*
X122121717Y-93983786D01*
X122131670Y-93992286D01*
X122142054Y-94000254D01*
X122152840Y-94007668D01*
X122164000Y-94014506D01*
X122175502Y-94020752D01*
X122187316Y-94026386D01*
X122199408Y-94031395D01*
X122211746Y-94035764D01*
X122224295Y-94039481D01*
X122237022Y-94042537D01*
X122249891Y-94044922D01*
X122262868Y-94046630D01*
X122275916Y-94047657D01*
X122289000Y-94048000D01*
X122689000Y-94048000D01*
G36*
X122689000Y-93548000D02*
G01*
X122689000Y-93298000D01*
X123089000Y-93298000D01*
X123115168Y-93298685D01*
X123141264Y-93300739D01*
X123167217Y-93304156D01*
X123192956Y-93308926D01*
X123218410Y-93315037D01*
X123243508Y-93322472D01*
X123268184Y-93331210D01*
X123292368Y-93341227D01*
X123315995Y-93352497D01*
X123339000Y-93364987D01*
X123361320Y-93378665D01*
X123382893Y-93393492D01*
X123403660Y-93409427D01*
X123423565Y-93426428D01*
X123442553Y-93444447D01*
X123460572Y-93463435D01*
X123477573Y-93483340D01*
X123493508Y-93504107D01*
X123508335Y-93525680D01*
X123522013Y-93548000D01*
X123534503Y-93571005D01*
X123545773Y-93594632D01*
X123555790Y-93618816D01*
X123564528Y-93643492D01*
X123571963Y-93668590D01*
X123578074Y-93694044D01*
X123582844Y-93719783D01*
X123586261Y-93745736D01*
X123588315Y-93771832D01*
X123589000Y-93798000D01*
X123588315Y-93824168D01*
X123586261Y-93850264D01*
X123582844Y-93876217D01*
X123578074Y-93901956D01*
X123571963Y-93927410D01*
X123564528Y-93952508D01*
X123555790Y-93977184D01*
X123545773Y-94001368D01*
X123534503Y-94024995D01*
X123522013Y-94048000D01*
X123508335Y-94070320D01*
X123493508Y-94091893D01*
X123477573Y-94112660D01*
X123460572Y-94132565D01*
X123442553Y-94151553D01*
X123423565Y-94169572D01*
X123403660Y-94186573D01*
X123382893Y-94202508D01*
X123361320Y-94217335D01*
X123339000Y-94231013D01*
X123315995Y-94243503D01*
X123292368Y-94254773D01*
X123268184Y-94264790D01*
X123243508Y-94273528D01*
X123218410Y-94280963D01*
X123192956Y-94287074D01*
X123167217Y-94291844D01*
X123141264Y-94295261D01*
X123115168Y-94297315D01*
X123089000Y-94298000D01*
X122689000Y-94298000D01*
X122689000Y-94048000D01*
X123089000Y-94048000D01*
X123102084Y-94047657D01*
X123115132Y-94046630D01*
X123128109Y-94044922D01*
X123140978Y-94042537D01*
X123153705Y-94039481D01*
X123166254Y-94035764D01*
X123178592Y-94031395D01*
X123190684Y-94026386D01*
X123202498Y-94020752D01*
X123214000Y-94014506D01*
X123225160Y-94007668D01*
X123235946Y-94000254D01*
X123246330Y-93992286D01*
X123256283Y-93983786D01*
X123265777Y-93974777D01*
X123274786Y-93965283D01*
X123283286Y-93955330D01*
X123291254Y-93944946D01*
X123298668Y-93934160D01*
X123305506Y-93923000D01*
X123311752Y-93911498D01*
X123317386Y-93899684D01*
X123322395Y-93887592D01*
X123326764Y-93875254D01*
X123330481Y-93862705D01*
X123333537Y-93849978D01*
X123335922Y-93837109D01*
X123337630Y-93824132D01*
X123338657Y-93811084D01*
X123339000Y-93798000D01*
X123338657Y-93784916D01*
X123337630Y-93771868D01*
X123335922Y-93758891D01*
X123333537Y-93746022D01*
X123330481Y-93733295D01*
X123326764Y-93720746D01*
X123322395Y-93708408D01*
X123317386Y-93696316D01*
X123311752Y-93684502D01*
X123305506Y-93673000D01*
X123298668Y-93661840D01*
X123291254Y-93651054D01*
X123283286Y-93640670D01*
X123274786Y-93630717D01*
X123265777Y-93621223D01*
X123256283Y-93612214D01*
X123246330Y-93603714D01*
X123235946Y-93595746D01*
X123225160Y-93588332D01*
X123214000Y-93581494D01*
X123202498Y-93575248D01*
X123190684Y-93569614D01*
X123178592Y-93564605D01*
X123166254Y-93560236D01*
X123153705Y-93556519D01*
X123140978Y-93553463D01*
X123128109Y-93551078D01*
X123115132Y-93549370D01*
X123102084Y-93548343D01*
X123089000Y-93548000D01*
X122689000Y-93548000D01*
G37*
X122689000Y-93548000D02*
X122689000Y-93298000D01*
X123089000Y-93298000D01*
X123115168Y-93298685D01*
X123141264Y-93300739D01*
X123167217Y-93304156D01*
X123192956Y-93308926D01*
X123218410Y-93315037D01*
X123243508Y-93322472D01*
X123268184Y-93331210D01*
X123292368Y-93341227D01*
X123315995Y-93352497D01*
X123339000Y-93364987D01*
X123361320Y-93378665D01*
X123382893Y-93393492D01*
X123403660Y-93409427D01*
X123423565Y-93426428D01*
X123442553Y-93444447D01*
X123460572Y-93463435D01*
X123477573Y-93483340D01*
X123493508Y-93504107D01*
X123508335Y-93525680D01*
X123522013Y-93548000D01*
X123534503Y-93571005D01*
X123545773Y-93594632D01*
X123555790Y-93618816D01*
X123564528Y-93643492D01*
X123571963Y-93668590D01*
X123578074Y-93694044D01*
X123582844Y-93719783D01*
X123586261Y-93745736D01*
X123588315Y-93771832D01*
X123589000Y-93798000D01*
X123588315Y-93824168D01*
X123586261Y-93850264D01*
X123582844Y-93876217D01*
X123578074Y-93901956D01*
X123571963Y-93927410D01*
X123564528Y-93952508D01*
X123555790Y-93977184D01*
X123545773Y-94001368D01*
X123534503Y-94024995D01*
X123522013Y-94048000D01*
X123508335Y-94070320D01*
X123493508Y-94091893D01*
X123477573Y-94112660D01*
X123460572Y-94132565D01*
X123442553Y-94151553D01*
X123423565Y-94169572D01*
X123403660Y-94186573D01*
X123382893Y-94202508D01*
X123361320Y-94217335D01*
X123339000Y-94231013D01*
X123315995Y-94243503D01*
X123292368Y-94254773D01*
X123268184Y-94264790D01*
X123243508Y-94273528D01*
X123218410Y-94280963D01*
X123192956Y-94287074D01*
X123167217Y-94291844D01*
X123141264Y-94295261D01*
X123115168Y-94297315D01*
X123089000Y-94298000D01*
X122689000Y-94298000D01*
X122689000Y-94048000D01*
X123089000Y-94048000D01*
X123102084Y-94047657D01*
X123115132Y-94046630D01*
X123128109Y-94044922D01*
X123140978Y-94042537D01*
X123153705Y-94039481D01*
X123166254Y-94035764D01*
X123178592Y-94031395D01*
X123190684Y-94026386D01*
X123202498Y-94020752D01*
X123214000Y-94014506D01*
X123225160Y-94007668D01*
X123235946Y-94000254D01*
X123246330Y-93992286D01*
X123256283Y-93983786D01*
X123265777Y-93974777D01*
X123274786Y-93965283D01*
X123283286Y-93955330D01*
X123291254Y-93944946D01*
X123298668Y-93934160D01*
X123305506Y-93923000D01*
X123311752Y-93911498D01*
X123317386Y-93899684D01*
X123322395Y-93887592D01*
X123326764Y-93875254D01*
X123330481Y-93862705D01*
X123333537Y-93849978D01*
X123335922Y-93837109D01*
X123337630Y-93824132D01*
X123338657Y-93811084D01*
X123339000Y-93798000D01*
X123338657Y-93784916D01*
X123337630Y-93771868D01*
X123335922Y-93758891D01*
X123333537Y-93746022D01*
X123330481Y-93733295D01*
X123326764Y-93720746D01*
X123322395Y-93708408D01*
X123317386Y-93696316D01*
X123311752Y-93684502D01*
X123305506Y-93673000D01*
X123298668Y-93661840D01*
X123291254Y-93651054D01*
X123283286Y-93640670D01*
X123274786Y-93630717D01*
X123265777Y-93621223D01*
X123256283Y-93612214D01*
X123246330Y-93603714D01*
X123235946Y-93595746D01*
X123225160Y-93588332D01*
X123214000Y-93581494D01*
X123202498Y-93575248D01*
X123190684Y-93569614D01*
X123178592Y-93564605D01*
X123166254Y-93560236D01*
X123153705Y-93556519D01*
X123140978Y-93553463D01*
X123128109Y-93551078D01*
X123115132Y-93549370D01*
X123102084Y-93548343D01*
X123089000Y-93548000D01*
X122689000Y-93548000D01*
G36*
X128289000Y-103048000D02*
G01*
X128289000Y-103298000D01*
X127989000Y-103298000D01*
X127962832Y-103297315D01*
X127936736Y-103295261D01*
X127910783Y-103291844D01*
X127885044Y-103287074D01*
X127859590Y-103280963D01*
X127834492Y-103273528D01*
X127809816Y-103264790D01*
X127785632Y-103254773D01*
X127762005Y-103243503D01*
X127739000Y-103231013D01*
X127716680Y-103217335D01*
X127695107Y-103202508D01*
X127674340Y-103186573D01*
X127654435Y-103169572D01*
X127635447Y-103151553D01*
X127617428Y-103132565D01*
X127600427Y-103112660D01*
X127584492Y-103091893D01*
X127569665Y-103070320D01*
X127555987Y-103048000D01*
X127543497Y-103024995D01*
X127532227Y-103001368D01*
X127522210Y-102977184D01*
X127513472Y-102952508D01*
X127506037Y-102927410D01*
X127499926Y-102901956D01*
X127495156Y-102876217D01*
X127491739Y-102850264D01*
X127489685Y-102824168D01*
X127489000Y-102798000D01*
X127489685Y-102771832D01*
X127491739Y-102745736D01*
X127495156Y-102719783D01*
X127499926Y-102694044D01*
X127506037Y-102668590D01*
X127513472Y-102643492D01*
X127522210Y-102618816D01*
X127532227Y-102594632D01*
X127543497Y-102571005D01*
X127555987Y-102548000D01*
X127569665Y-102525680D01*
X127584492Y-102504107D01*
X127600427Y-102483340D01*
X127617428Y-102463435D01*
X127635447Y-102444447D01*
X127654435Y-102426428D01*
X127674340Y-102409427D01*
X127695107Y-102393492D01*
X127716680Y-102378665D01*
X127739000Y-102364987D01*
X127762005Y-102352497D01*
X127785632Y-102341227D01*
X127809816Y-102331210D01*
X127834492Y-102322472D01*
X127859590Y-102315037D01*
X127885044Y-102308926D01*
X127910783Y-102304156D01*
X127936736Y-102300739D01*
X127962832Y-102298685D01*
X127989000Y-102298000D01*
X128289000Y-102298000D01*
X128289000Y-102548000D01*
X127989000Y-102548000D01*
X127975916Y-102548343D01*
X127962868Y-102549370D01*
X127949891Y-102551078D01*
X127937022Y-102553463D01*
X127924295Y-102556519D01*
X127911746Y-102560236D01*
X127899408Y-102564605D01*
X127887316Y-102569614D01*
X127875502Y-102575248D01*
X127864000Y-102581494D01*
X127852840Y-102588332D01*
X127842054Y-102595746D01*
X127831670Y-102603714D01*
X127821717Y-102612214D01*
X127812223Y-102621223D01*
X127803214Y-102630717D01*
X127794714Y-102640670D01*
X127786746Y-102651054D01*
X127779332Y-102661840D01*
X127772494Y-102673000D01*
X127766248Y-102684502D01*
X127760614Y-102696316D01*
X127755605Y-102708408D01*
X127751236Y-102720746D01*
X127747519Y-102733295D01*
X127744463Y-102746022D01*
X127742078Y-102758891D01*
X127740370Y-102771868D01*
X127739343Y-102784916D01*
X127739000Y-102798000D01*
X127739343Y-102811084D01*
X127740370Y-102824132D01*
X127742078Y-102837109D01*
X127744463Y-102849978D01*
X127747519Y-102862705D01*
X127751236Y-102875254D01*
X127755605Y-102887592D01*
X127760614Y-102899684D01*
X127766248Y-102911498D01*
X127772494Y-102923000D01*
X127779332Y-102934160D01*
X127786746Y-102944946D01*
X127794714Y-102955330D01*
X127803214Y-102965283D01*
X127812223Y-102974777D01*
X127821717Y-102983786D01*
X127831670Y-102992286D01*
X127842054Y-103000254D01*
X127852840Y-103007668D01*
X127864000Y-103014506D01*
X127875502Y-103020752D01*
X127887316Y-103026386D01*
X127899408Y-103031395D01*
X127911746Y-103035764D01*
X127924295Y-103039481D01*
X127937022Y-103042537D01*
X127949891Y-103044922D01*
X127962868Y-103046630D01*
X127975916Y-103047657D01*
X127989000Y-103048000D01*
X128289000Y-103048000D01*
G37*
X128289000Y-103048000D02*
X128289000Y-103298000D01*
X127989000Y-103298000D01*
X127962832Y-103297315D01*
X127936736Y-103295261D01*
X127910783Y-103291844D01*
X127885044Y-103287074D01*
X127859590Y-103280963D01*
X127834492Y-103273528D01*
X127809816Y-103264790D01*
X127785632Y-103254773D01*
X127762005Y-103243503D01*
X127739000Y-103231013D01*
X127716680Y-103217335D01*
X127695107Y-103202508D01*
X127674340Y-103186573D01*
X127654435Y-103169572D01*
X127635447Y-103151553D01*
X127617428Y-103132565D01*
X127600427Y-103112660D01*
X127584492Y-103091893D01*
X127569665Y-103070320D01*
X127555987Y-103048000D01*
X127543497Y-103024995D01*
X127532227Y-103001368D01*
X127522210Y-102977184D01*
X127513472Y-102952508D01*
X127506037Y-102927410D01*
X127499926Y-102901956D01*
X127495156Y-102876217D01*
X127491739Y-102850264D01*
X127489685Y-102824168D01*
X127489000Y-102798000D01*
X127489685Y-102771832D01*
X127491739Y-102745736D01*
X127495156Y-102719783D01*
X127499926Y-102694044D01*
X127506037Y-102668590D01*
X127513472Y-102643492D01*
X127522210Y-102618816D01*
X127532227Y-102594632D01*
X127543497Y-102571005D01*
X127555987Y-102548000D01*
X127569665Y-102525680D01*
X127584492Y-102504107D01*
X127600427Y-102483340D01*
X127617428Y-102463435D01*
X127635447Y-102444447D01*
X127654435Y-102426428D01*
X127674340Y-102409427D01*
X127695107Y-102393492D01*
X127716680Y-102378665D01*
X127739000Y-102364987D01*
X127762005Y-102352497D01*
X127785632Y-102341227D01*
X127809816Y-102331210D01*
X127834492Y-102322472D01*
X127859590Y-102315037D01*
X127885044Y-102308926D01*
X127910783Y-102304156D01*
X127936736Y-102300739D01*
X127962832Y-102298685D01*
X127989000Y-102298000D01*
X128289000Y-102298000D01*
X128289000Y-102548000D01*
X127989000Y-102548000D01*
X127975916Y-102548343D01*
X127962868Y-102549370D01*
X127949891Y-102551078D01*
X127937022Y-102553463D01*
X127924295Y-102556519D01*
X127911746Y-102560236D01*
X127899408Y-102564605D01*
X127887316Y-102569614D01*
X127875502Y-102575248D01*
X127864000Y-102581494D01*
X127852840Y-102588332D01*
X127842054Y-102595746D01*
X127831670Y-102603714D01*
X127821717Y-102612214D01*
X127812223Y-102621223D01*
X127803214Y-102630717D01*
X127794714Y-102640670D01*
X127786746Y-102651054D01*
X127779332Y-102661840D01*
X127772494Y-102673000D01*
X127766248Y-102684502D01*
X127760614Y-102696316D01*
X127755605Y-102708408D01*
X127751236Y-102720746D01*
X127747519Y-102733295D01*
X127744463Y-102746022D01*
X127742078Y-102758891D01*
X127740370Y-102771868D01*
X127739343Y-102784916D01*
X127739000Y-102798000D01*
X127739343Y-102811084D01*
X127740370Y-102824132D01*
X127742078Y-102837109D01*
X127744463Y-102849978D01*
X127747519Y-102862705D01*
X127751236Y-102875254D01*
X127755605Y-102887592D01*
X127760614Y-102899684D01*
X127766248Y-102911498D01*
X127772494Y-102923000D01*
X127779332Y-102934160D01*
X127786746Y-102944946D01*
X127794714Y-102955330D01*
X127803214Y-102965283D01*
X127812223Y-102974777D01*
X127821717Y-102983786D01*
X127831670Y-102992286D01*
X127842054Y-103000254D01*
X127852840Y-103007668D01*
X127864000Y-103014506D01*
X127875502Y-103020752D01*
X127887316Y-103026386D01*
X127899408Y-103031395D01*
X127911746Y-103035764D01*
X127924295Y-103039481D01*
X127937022Y-103042537D01*
X127949891Y-103044922D01*
X127962868Y-103046630D01*
X127975916Y-103047657D01*
X127989000Y-103048000D01*
X128289000Y-103048000D01*
G36*
X128289000Y-102548000D02*
G01*
X128289000Y-102298000D01*
X128589000Y-102298000D01*
X128615168Y-102298685D01*
X128641264Y-102300739D01*
X128667217Y-102304156D01*
X128692956Y-102308926D01*
X128718410Y-102315037D01*
X128743508Y-102322472D01*
X128768184Y-102331210D01*
X128792368Y-102341227D01*
X128815995Y-102352497D01*
X128839000Y-102364987D01*
X128861320Y-102378665D01*
X128882893Y-102393492D01*
X128903660Y-102409427D01*
X128923565Y-102426428D01*
X128942553Y-102444447D01*
X128960572Y-102463435D01*
X128977573Y-102483340D01*
X128993508Y-102504107D01*
X129008335Y-102525680D01*
X129022013Y-102548000D01*
X129034503Y-102571005D01*
X129045773Y-102594632D01*
X129055790Y-102618816D01*
X129064528Y-102643492D01*
X129071963Y-102668590D01*
X129078074Y-102694044D01*
X129082844Y-102719783D01*
X129086261Y-102745736D01*
X129088315Y-102771832D01*
X129089000Y-102798000D01*
X129088315Y-102824168D01*
X129086261Y-102850264D01*
X129082844Y-102876217D01*
X129078074Y-102901956D01*
X129071963Y-102927410D01*
X129064528Y-102952508D01*
X129055790Y-102977184D01*
X129045773Y-103001368D01*
X129034503Y-103024995D01*
X129022013Y-103048000D01*
X129008335Y-103070320D01*
X128993508Y-103091893D01*
X128977573Y-103112660D01*
X128960572Y-103132565D01*
X128942553Y-103151553D01*
X128923565Y-103169572D01*
X128903660Y-103186573D01*
X128882893Y-103202508D01*
X128861320Y-103217335D01*
X128839000Y-103231013D01*
X128815995Y-103243503D01*
X128792368Y-103254773D01*
X128768184Y-103264790D01*
X128743508Y-103273528D01*
X128718410Y-103280963D01*
X128692956Y-103287074D01*
X128667217Y-103291844D01*
X128641264Y-103295261D01*
X128615168Y-103297315D01*
X128589000Y-103298000D01*
X128289000Y-103298000D01*
X128289000Y-103048000D01*
X128589000Y-103048000D01*
X128602084Y-103047657D01*
X128615132Y-103046630D01*
X128628109Y-103044922D01*
X128640978Y-103042537D01*
X128653705Y-103039481D01*
X128666254Y-103035764D01*
X128678592Y-103031395D01*
X128690684Y-103026386D01*
X128702498Y-103020752D01*
X128714000Y-103014506D01*
X128725160Y-103007668D01*
X128735946Y-103000254D01*
X128746330Y-102992286D01*
X128756283Y-102983786D01*
X128765777Y-102974777D01*
X128774786Y-102965283D01*
X128783286Y-102955330D01*
X128791254Y-102944946D01*
X128798668Y-102934160D01*
X128805506Y-102923000D01*
X128811752Y-102911498D01*
X128817386Y-102899684D01*
X128822395Y-102887592D01*
X128826764Y-102875254D01*
X128830481Y-102862705D01*
X128833537Y-102849978D01*
X128835922Y-102837109D01*
X128837630Y-102824132D01*
X128838657Y-102811084D01*
X128839000Y-102798000D01*
X128838657Y-102784916D01*
X128837630Y-102771868D01*
X128835922Y-102758891D01*
X128833537Y-102746022D01*
X128830481Y-102733295D01*
X128826764Y-102720746D01*
X128822395Y-102708408D01*
X128817386Y-102696316D01*
X128811752Y-102684502D01*
X128805506Y-102673000D01*
X128798668Y-102661840D01*
X128791254Y-102651054D01*
X128783286Y-102640670D01*
X128774786Y-102630717D01*
X128765777Y-102621223D01*
X128756283Y-102612214D01*
X128746330Y-102603714D01*
X128735946Y-102595746D01*
X128725160Y-102588332D01*
X128714000Y-102581494D01*
X128702498Y-102575248D01*
X128690684Y-102569614D01*
X128678592Y-102564605D01*
X128666254Y-102560236D01*
X128653705Y-102556519D01*
X128640978Y-102553463D01*
X128628109Y-102551078D01*
X128615132Y-102549370D01*
X128602084Y-102548343D01*
X128589000Y-102548000D01*
X128289000Y-102548000D01*
G37*
X128289000Y-102548000D02*
X128289000Y-102298000D01*
X128589000Y-102298000D01*
X128615168Y-102298685D01*
X128641264Y-102300739D01*
X128667217Y-102304156D01*
X128692956Y-102308926D01*
X128718410Y-102315037D01*
X128743508Y-102322472D01*
X128768184Y-102331210D01*
X128792368Y-102341227D01*
X128815995Y-102352497D01*
X128839000Y-102364987D01*
X128861320Y-102378665D01*
X128882893Y-102393492D01*
X128903660Y-102409427D01*
X128923565Y-102426428D01*
X128942553Y-102444447D01*
X128960572Y-102463435D01*
X128977573Y-102483340D01*
X128993508Y-102504107D01*
X129008335Y-102525680D01*
X129022013Y-102548000D01*
X129034503Y-102571005D01*
X129045773Y-102594632D01*
X129055790Y-102618816D01*
X129064528Y-102643492D01*
X129071963Y-102668590D01*
X129078074Y-102694044D01*
X129082844Y-102719783D01*
X129086261Y-102745736D01*
X129088315Y-102771832D01*
X129089000Y-102798000D01*
X129088315Y-102824168D01*
X129086261Y-102850264D01*
X129082844Y-102876217D01*
X129078074Y-102901956D01*
X129071963Y-102927410D01*
X129064528Y-102952508D01*
X129055790Y-102977184D01*
X129045773Y-103001368D01*
X129034503Y-103024995D01*
X129022013Y-103048000D01*
X129008335Y-103070320D01*
X128993508Y-103091893D01*
X128977573Y-103112660D01*
X128960572Y-103132565D01*
X128942553Y-103151553D01*
X128923565Y-103169572D01*
X128903660Y-103186573D01*
X128882893Y-103202508D01*
X128861320Y-103217335D01*
X128839000Y-103231013D01*
X128815995Y-103243503D01*
X128792368Y-103254773D01*
X128768184Y-103264790D01*
X128743508Y-103273528D01*
X128718410Y-103280963D01*
X128692956Y-103287074D01*
X128667217Y-103291844D01*
X128641264Y-103295261D01*
X128615168Y-103297315D01*
X128589000Y-103298000D01*
X128289000Y-103298000D01*
X128289000Y-103048000D01*
X128589000Y-103048000D01*
X128602084Y-103047657D01*
X128615132Y-103046630D01*
X128628109Y-103044922D01*
X128640978Y-103042537D01*
X128653705Y-103039481D01*
X128666254Y-103035764D01*
X128678592Y-103031395D01*
X128690684Y-103026386D01*
X128702498Y-103020752D01*
X128714000Y-103014506D01*
X128725160Y-103007668D01*
X128735946Y-103000254D01*
X128746330Y-102992286D01*
X128756283Y-102983786D01*
X128765777Y-102974777D01*
X128774786Y-102965283D01*
X128783286Y-102955330D01*
X128791254Y-102944946D01*
X128798668Y-102934160D01*
X128805506Y-102923000D01*
X128811752Y-102911498D01*
X128817386Y-102899684D01*
X128822395Y-102887592D01*
X128826764Y-102875254D01*
X128830481Y-102862705D01*
X128833537Y-102849978D01*
X128835922Y-102837109D01*
X128837630Y-102824132D01*
X128838657Y-102811084D01*
X128839000Y-102798000D01*
X128838657Y-102784916D01*
X128837630Y-102771868D01*
X128835922Y-102758891D01*
X128833537Y-102746022D01*
X128830481Y-102733295D01*
X128826764Y-102720746D01*
X128822395Y-102708408D01*
X128817386Y-102696316D01*
X128811752Y-102684502D01*
X128805506Y-102673000D01*
X128798668Y-102661840D01*
X128791254Y-102651054D01*
X128783286Y-102640670D01*
X128774786Y-102630717D01*
X128765777Y-102621223D01*
X128756283Y-102612214D01*
X128746330Y-102603714D01*
X128735946Y-102595746D01*
X128725160Y-102588332D01*
X128714000Y-102581494D01*
X128702498Y-102575248D01*
X128690684Y-102569614D01*
X128678592Y-102564605D01*
X128666254Y-102560236D01*
X128653705Y-102556519D01*
X128640978Y-102553463D01*
X128628109Y-102551078D01*
X128615132Y-102549370D01*
X128602084Y-102548343D01*
X128589000Y-102548000D01*
X128289000Y-102548000D01*
G36*
X128289000Y-94048000D02*
G01*
X128289000Y-94298000D01*
X127989000Y-94298000D01*
X127962832Y-94297315D01*
X127936736Y-94295261D01*
X127910783Y-94291844D01*
X127885044Y-94287074D01*
X127859590Y-94280963D01*
X127834492Y-94273528D01*
X127809816Y-94264790D01*
X127785632Y-94254773D01*
X127762005Y-94243503D01*
X127739000Y-94231013D01*
X127716680Y-94217335D01*
X127695107Y-94202508D01*
X127674340Y-94186573D01*
X127654435Y-94169572D01*
X127635447Y-94151553D01*
X127617428Y-94132565D01*
X127600427Y-94112660D01*
X127584492Y-94091893D01*
X127569665Y-94070320D01*
X127555987Y-94048000D01*
X127543497Y-94024995D01*
X127532227Y-94001368D01*
X127522210Y-93977184D01*
X127513472Y-93952508D01*
X127506037Y-93927410D01*
X127499926Y-93901956D01*
X127495156Y-93876217D01*
X127491739Y-93850264D01*
X127489685Y-93824168D01*
X127489000Y-93798000D01*
X127489685Y-93771832D01*
X127491739Y-93745736D01*
X127495156Y-93719783D01*
X127499926Y-93694044D01*
X127506037Y-93668590D01*
X127513472Y-93643492D01*
X127522210Y-93618816D01*
X127532227Y-93594632D01*
X127543497Y-93571005D01*
X127555987Y-93548000D01*
X127569665Y-93525680D01*
X127584492Y-93504107D01*
X127600427Y-93483340D01*
X127617428Y-93463435D01*
X127635447Y-93444447D01*
X127654435Y-93426428D01*
X127674340Y-93409427D01*
X127695107Y-93393492D01*
X127716680Y-93378665D01*
X127739000Y-93364987D01*
X127762005Y-93352497D01*
X127785632Y-93341227D01*
X127809816Y-93331210D01*
X127834492Y-93322472D01*
X127859590Y-93315037D01*
X127885044Y-93308926D01*
X127910783Y-93304156D01*
X127936736Y-93300739D01*
X127962832Y-93298685D01*
X127989000Y-93298000D01*
X128289000Y-93298000D01*
X128289000Y-93548000D01*
X127989000Y-93548000D01*
X127975916Y-93548343D01*
X127962868Y-93549370D01*
X127949891Y-93551078D01*
X127937022Y-93553463D01*
X127924295Y-93556519D01*
X127911746Y-93560236D01*
X127899408Y-93564605D01*
X127887316Y-93569614D01*
X127875502Y-93575248D01*
X127864000Y-93581494D01*
X127852840Y-93588332D01*
X127842054Y-93595746D01*
X127831670Y-93603714D01*
X127821717Y-93612214D01*
X127812223Y-93621223D01*
X127803214Y-93630717D01*
X127794714Y-93640670D01*
X127786746Y-93651054D01*
X127779332Y-93661840D01*
X127772494Y-93673000D01*
X127766248Y-93684502D01*
X127760614Y-93696316D01*
X127755605Y-93708408D01*
X127751236Y-93720746D01*
X127747519Y-93733295D01*
X127744463Y-93746022D01*
X127742078Y-93758891D01*
X127740370Y-93771868D01*
X127739343Y-93784916D01*
X127739000Y-93798000D01*
X127739343Y-93811084D01*
X127740370Y-93824132D01*
X127742078Y-93837109D01*
X127744463Y-93849978D01*
X127747519Y-93862705D01*
X127751236Y-93875254D01*
X127755605Y-93887592D01*
X127760614Y-93899684D01*
X127766248Y-93911498D01*
X127772494Y-93923000D01*
X127779332Y-93934160D01*
X127786746Y-93944946D01*
X127794714Y-93955330D01*
X127803214Y-93965283D01*
X127812223Y-93974777D01*
X127821717Y-93983786D01*
X127831670Y-93992286D01*
X127842054Y-94000254D01*
X127852840Y-94007668D01*
X127864000Y-94014506D01*
X127875502Y-94020752D01*
X127887316Y-94026386D01*
X127899408Y-94031395D01*
X127911746Y-94035764D01*
X127924295Y-94039481D01*
X127937022Y-94042537D01*
X127949891Y-94044922D01*
X127962868Y-94046630D01*
X127975916Y-94047657D01*
X127989000Y-94048000D01*
X128289000Y-94048000D01*
G37*
X128289000Y-94048000D02*
X128289000Y-94298000D01*
X127989000Y-94298000D01*
X127962832Y-94297315D01*
X127936736Y-94295261D01*
X127910783Y-94291844D01*
X127885044Y-94287074D01*
X127859590Y-94280963D01*
X127834492Y-94273528D01*
X127809816Y-94264790D01*
X127785632Y-94254773D01*
X127762005Y-94243503D01*
X127739000Y-94231013D01*
X127716680Y-94217335D01*
X127695107Y-94202508D01*
X127674340Y-94186573D01*
X127654435Y-94169572D01*
X127635447Y-94151553D01*
X127617428Y-94132565D01*
X127600427Y-94112660D01*
X127584492Y-94091893D01*
X127569665Y-94070320D01*
X127555987Y-94048000D01*
X127543497Y-94024995D01*
X127532227Y-94001368D01*
X127522210Y-93977184D01*
X127513472Y-93952508D01*
X127506037Y-93927410D01*
X127499926Y-93901956D01*
X127495156Y-93876217D01*
X127491739Y-93850264D01*
X127489685Y-93824168D01*
X127489000Y-93798000D01*
X127489685Y-93771832D01*
X127491739Y-93745736D01*
X127495156Y-93719783D01*
X127499926Y-93694044D01*
X127506037Y-93668590D01*
X127513472Y-93643492D01*
X127522210Y-93618816D01*
X127532227Y-93594632D01*
X127543497Y-93571005D01*
X127555987Y-93548000D01*
X127569665Y-93525680D01*
X127584492Y-93504107D01*
X127600427Y-93483340D01*
X127617428Y-93463435D01*
X127635447Y-93444447D01*
X127654435Y-93426428D01*
X127674340Y-93409427D01*
X127695107Y-93393492D01*
X127716680Y-93378665D01*
X127739000Y-93364987D01*
X127762005Y-93352497D01*
X127785632Y-93341227D01*
X127809816Y-93331210D01*
X127834492Y-93322472D01*
X127859590Y-93315037D01*
X127885044Y-93308926D01*
X127910783Y-93304156D01*
X127936736Y-93300739D01*
X127962832Y-93298685D01*
X127989000Y-93298000D01*
X128289000Y-93298000D01*
X128289000Y-93548000D01*
X127989000Y-93548000D01*
X127975916Y-93548343D01*
X127962868Y-93549370D01*
X127949891Y-93551078D01*
X127937022Y-93553463D01*
X127924295Y-93556519D01*
X127911746Y-93560236D01*
X127899408Y-93564605D01*
X127887316Y-93569614D01*
X127875502Y-93575248D01*
X127864000Y-93581494D01*
X127852840Y-93588332D01*
X127842054Y-93595746D01*
X127831670Y-93603714D01*
X127821717Y-93612214D01*
X127812223Y-93621223D01*
X127803214Y-93630717D01*
X127794714Y-93640670D01*
X127786746Y-93651054D01*
X127779332Y-93661840D01*
X127772494Y-93673000D01*
X127766248Y-93684502D01*
X127760614Y-93696316D01*
X127755605Y-93708408D01*
X127751236Y-93720746D01*
X127747519Y-93733295D01*
X127744463Y-93746022D01*
X127742078Y-93758891D01*
X127740370Y-93771868D01*
X127739343Y-93784916D01*
X127739000Y-93798000D01*
X127739343Y-93811084D01*
X127740370Y-93824132D01*
X127742078Y-93837109D01*
X127744463Y-93849978D01*
X127747519Y-93862705D01*
X127751236Y-93875254D01*
X127755605Y-93887592D01*
X127760614Y-93899684D01*
X127766248Y-93911498D01*
X127772494Y-93923000D01*
X127779332Y-93934160D01*
X127786746Y-93944946D01*
X127794714Y-93955330D01*
X127803214Y-93965283D01*
X127812223Y-93974777D01*
X127821717Y-93983786D01*
X127831670Y-93992286D01*
X127842054Y-94000254D01*
X127852840Y-94007668D01*
X127864000Y-94014506D01*
X127875502Y-94020752D01*
X127887316Y-94026386D01*
X127899408Y-94031395D01*
X127911746Y-94035764D01*
X127924295Y-94039481D01*
X127937022Y-94042537D01*
X127949891Y-94044922D01*
X127962868Y-94046630D01*
X127975916Y-94047657D01*
X127989000Y-94048000D01*
X128289000Y-94048000D01*
G36*
X128289000Y-93548000D02*
G01*
X128289000Y-93298000D01*
X128589000Y-93298000D01*
X128615168Y-93298685D01*
X128641264Y-93300739D01*
X128667217Y-93304156D01*
X128692956Y-93308926D01*
X128718410Y-93315037D01*
X128743508Y-93322472D01*
X128768184Y-93331210D01*
X128792368Y-93341227D01*
X128815995Y-93352497D01*
X128839000Y-93364987D01*
X128861320Y-93378665D01*
X128882893Y-93393492D01*
X128903660Y-93409427D01*
X128923565Y-93426428D01*
X128942553Y-93444447D01*
X128960572Y-93463435D01*
X128977573Y-93483340D01*
X128993508Y-93504107D01*
X129008335Y-93525680D01*
X129022013Y-93548000D01*
X129034503Y-93571005D01*
X129045773Y-93594632D01*
X129055790Y-93618816D01*
X129064528Y-93643492D01*
X129071963Y-93668590D01*
X129078074Y-93694044D01*
X129082844Y-93719783D01*
X129086261Y-93745736D01*
X129088315Y-93771832D01*
X129089000Y-93798000D01*
X129088315Y-93824168D01*
X129086261Y-93850264D01*
X129082844Y-93876217D01*
X129078074Y-93901956D01*
X129071963Y-93927410D01*
X129064528Y-93952508D01*
X129055790Y-93977184D01*
X129045773Y-94001368D01*
X129034503Y-94024995D01*
X129022013Y-94048000D01*
X129008335Y-94070320D01*
X128993508Y-94091893D01*
X128977573Y-94112660D01*
X128960572Y-94132565D01*
X128942553Y-94151553D01*
X128923565Y-94169572D01*
X128903660Y-94186573D01*
X128882893Y-94202508D01*
X128861320Y-94217335D01*
X128839000Y-94231013D01*
X128815995Y-94243503D01*
X128792368Y-94254773D01*
X128768184Y-94264790D01*
X128743508Y-94273528D01*
X128718410Y-94280963D01*
X128692956Y-94287074D01*
X128667217Y-94291844D01*
X128641264Y-94295261D01*
X128615168Y-94297315D01*
X128589000Y-94298000D01*
X128289000Y-94298000D01*
X128289000Y-94048000D01*
X128589000Y-94048000D01*
X128602084Y-94047657D01*
X128615132Y-94046630D01*
X128628109Y-94044922D01*
X128640978Y-94042537D01*
X128653705Y-94039481D01*
X128666254Y-94035764D01*
X128678592Y-94031395D01*
X128690684Y-94026386D01*
X128702498Y-94020752D01*
X128714000Y-94014506D01*
X128725160Y-94007668D01*
X128735946Y-94000254D01*
X128746330Y-93992286D01*
X128756283Y-93983786D01*
X128765777Y-93974777D01*
X128774786Y-93965283D01*
X128783286Y-93955330D01*
X128791254Y-93944946D01*
X128798668Y-93934160D01*
X128805506Y-93923000D01*
X128811752Y-93911498D01*
X128817386Y-93899684D01*
X128822395Y-93887592D01*
X128826764Y-93875254D01*
X128830481Y-93862705D01*
X128833537Y-93849978D01*
X128835922Y-93837109D01*
X128837630Y-93824132D01*
X128838657Y-93811084D01*
X128839000Y-93798000D01*
X128838657Y-93784916D01*
X128837630Y-93771868D01*
X128835922Y-93758891D01*
X128833537Y-93746022D01*
X128830481Y-93733295D01*
X128826764Y-93720746D01*
X128822395Y-93708408D01*
X128817386Y-93696316D01*
X128811752Y-93684502D01*
X128805506Y-93673000D01*
X128798668Y-93661840D01*
X128791254Y-93651054D01*
X128783286Y-93640670D01*
X128774786Y-93630717D01*
X128765777Y-93621223D01*
X128756283Y-93612214D01*
X128746330Y-93603714D01*
X128735946Y-93595746D01*
X128725160Y-93588332D01*
X128714000Y-93581494D01*
X128702498Y-93575248D01*
X128690684Y-93569614D01*
X128678592Y-93564605D01*
X128666254Y-93560236D01*
X128653705Y-93556519D01*
X128640978Y-93553463D01*
X128628109Y-93551078D01*
X128615132Y-93549370D01*
X128602084Y-93548343D01*
X128589000Y-93548000D01*
X128289000Y-93548000D01*
G37*
X128289000Y-93548000D02*
X128289000Y-93298000D01*
X128589000Y-93298000D01*
X128615168Y-93298685D01*
X128641264Y-93300739D01*
X128667217Y-93304156D01*
X128692956Y-93308926D01*
X128718410Y-93315037D01*
X128743508Y-93322472D01*
X128768184Y-93331210D01*
X128792368Y-93341227D01*
X128815995Y-93352497D01*
X128839000Y-93364987D01*
X128861320Y-93378665D01*
X128882893Y-93393492D01*
X128903660Y-93409427D01*
X128923565Y-93426428D01*
X128942553Y-93444447D01*
X128960572Y-93463435D01*
X128977573Y-93483340D01*
X128993508Y-93504107D01*
X129008335Y-93525680D01*
X129022013Y-93548000D01*
X129034503Y-93571005D01*
X129045773Y-93594632D01*
X129055790Y-93618816D01*
X129064528Y-93643492D01*
X129071963Y-93668590D01*
X129078074Y-93694044D01*
X129082844Y-93719783D01*
X129086261Y-93745736D01*
X129088315Y-93771832D01*
X129089000Y-93798000D01*
X129088315Y-93824168D01*
X129086261Y-93850264D01*
X129082844Y-93876217D01*
X129078074Y-93901956D01*
X129071963Y-93927410D01*
X129064528Y-93952508D01*
X129055790Y-93977184D01*
X129045773Y-94001368D01*
X129034503Y-94024995D01*
X129022013Y-94048000D01*
X129008335Y-94070320D01*
X128993508Y-94091893D01*
X128977573Y-94112660D01*
X128960572Y-94132565D01*
X128942553Y-94151553D01*
X128923565Y-94169572D01*
X128903660Y-94186573D01*
X128882893Y-94202508D01*
X128861320Y-94217335D01*
X128839000Y-94231013D01*
X128815995Y-94243503D01*
X128792368Y-94254773D01*
X128768184Y-94264790D01*
X128743508Y-94273528D01*
X128718410Y-94280963D01*
X128692956Y-94287074D01*
X128667217Y-94291844D01*
X128641264Y-94295261D01*
X128615168Y-94297315D01*
X128589000Y-94298000D01*
X128289000Y-94298000D01*
X128289000Y-94048000D01*
X128589000Y-94048000D01*
X128602084Y-94047657D01*
X128615132Y-94046630D01*
X128628109Y-94044922D01*
X128640978Y-94042537D01*
X128653705Y-94039481D01*
X128666254Y-94035764D01*
X128678592Y-94031395D01*
X128690684Y-94026386D01*
X128702498Y-94020752D01*
X128714000Y-94014506D01*
X128725160Y-94007668D01*
X128735946Y-94000254D01*
X128746330Y-93992286D01*
X128756283Y-93983786D01*
X128765777Y-93974777D01*
X128774786Y-93965283D01*
X128783286Y-93955330D01*
X128791254Y-93944946D01*
X128798668Y-93934160D01*
X128805506Y-93923000D01*
X128811752Y-93911498D01*
X128817386Y-93899684D01*
X128822395Y-93887592D01*
X128826764Y-93875254D01*
X128830481Y-93862705D01*
X128833537Y-93849978D01*
X128835922Y-93837109D01*
X128837630Y-93824132D01*
X128838657Y-93811084D01*
X128839000Y-93798000D01*
X128838657Y-93784916D01*
X128837630Y-93771868D01*
X128835922Y-93758891D01*
X128833537Y-93746022D01*
X128830481Y-93733295D01*
X128826764Y-93720746D01*
X128822395Y-93708408D01*
X128817386Y-93696316D01*
X128811752Y-93684502D01*
X128805506Y-93673000D01*
X128798668Y-93661840D01*
X128791254Y-93651054D01*
X128783286Y-93640670D01*
X128774786Y-93630717D01*
X128765777Y-93621223D01*
X128756283Y-93612214D01*
X128746330Y-93603714D01*
X128735946Y-93595746D01*
X128725160Y-93588332D01*
X128714000Y-93581494D01*
X128702498Y-93575248D01*
X128690684Y-93569614D01*
X128678592Y-93564605D01*
X128666254Y-93560236D01*
X128653705Y-93556519D01*
X128640978Y-93553463D01*
X128628109Y-93551078D01*
X128615132Y-93549370D01*
X128602084Y-93548343D01*
X128589000Y-93548000D01*
X128289000Y-93548000D01*
G36*
X128289000Y-78816000D02*
G01*
X128289000Y-78566000D01*
X128589000Y-78566000D01*
X128615168Y-78566685D01*
X128641264Y-78568739D01*
X128667217Y-78572156D01*
X128692956Y-78576926D01*
X128718410Y-78583037D01*
X128743508Y-78590472D01*
X128768184Y-78599210D01*
X128792368Y-78609227D01*
X128815995Y-78620497D01*
X128839000Y-78632987D01*
X128861320Y-78646665D01*
X128882893Y-78661492D01*
X128903660Y-78677427D01*
X128923565Y-78694428D01*
X128942553Y-78712447D01*
X128960572Y-78731435D01*
X128977573Y-78751340D01*
X128993508Y-78772107D01*
X129008335Y-78793680D01*
X129022013Y-78816000D01*
X129034503Y-78839005D01*
X129045773Y-78862632D01*
X129055790Y-78886816D01*
X129064528Y-78911492D01*
X129071963Y-78936590D01*
X129078074Y-78962044D01*
X129082844Y-78987783D01*
X129086261Y-79013736D01*
X129088315Y-79039832D01*
X129089000Y-79066000D01*
X129088315Y-79092168D01*
X129086261Y-79118264D01*
X129082844Y-79144217D01*
X129078074Y-79169956D01*
X129071963Y-79195410D01*
X129064528Y-79220508D01*
X129055790Y-79245184D01*
X129045773Y-79269368D01*
X129034503Y-79292995D01*
X129022013Y-79316000D01*
X129008335Y-79338320D01*
X128993508Y-79359893D01*
X128977573Y-79380660D01*
X128960572Y-79400565D01*
X128942553Y-79419553D01*
X128923565Y-79437572D01*
X128903660Y-79454573D01*
X128882893Y-79470508D01*
X128861320Y-79485335D01*
X128839000Y-79499013D01*
X128815995Y-79511503D01*
X128792368Y-79522773D01*
X128768184Y-79532790D01*
X128743508Y-79541528D01*
X128718410Y-79548963D01*
X128692956Y-79555074D01*
X128667217Y-79559844D01*
X128641264Y-79563261D01*
X128615168Y-79565315D01*
X128589000Y-79566000D01*
X128289000Y-79566000D01*
X128289000Y-79316000D01*
X128589000Y-79316000D01*
X128602084Y-79315657D01*
X128615132Y-79314630D01*
X128628109Y-79312922D01*
X128640978Y-79310537D01*
X128653705Y-79307481D01*
X128666254Y-79303764D01*
X128678592Y-79299395D01*
X128690684Y-79294386D01*
X128702498Y-79288752D01*
X128714000Y-79282506D01*
X128725160Y-79275668D01*
X128735946Y-79268254D01*
X128746330Y-79260286D01*
X128756283Y-79251786D01*
X128765777Y-79242777D01*
X128774786Y-79233283D01*
X128783286Y-79223330D01*
X128791254Y-79212946D01*
X128798668Y-79202160D01*
X128805506Y-79191000D01*
X128811752Y-79179498D01*
X128817386Y-79167684D01*
X128822395Y-79155592D01*
X128826764Y-79143254D01*
X128830481Y-79130705D01*
X128833537Y-79117978D01*
X128835922Y-79105109D01*
X128837630Y-79092132D01*
X128838657Y-79079084D01*
X128839000Y-79066000D01*
X128838657Y-79052916D01*
X128837630Y-79039868D01*
X128835922Y-79026891D01*
X128833537Y-79014022D01*
X128830481Y-79001295D01*
X128826764Y-78988746D01*
X128822395Y-78976408D01*
X128817386Y-78964316D01*
X128811752Y-78952502D01*
X128805506Y-78941000D01*
X128798668Y-78929840D01*
X128791254Y-78919054D01*
X128783286Y-78908670D01*
X128774786Y-78898717D01*
X128765777Y-78889223D01*
X128756283Y-78880214D01*
X128746330Y-78871714D01*
X128735946Y-78863746D01*
X128725160Y-78856332D01*
X128714000Y-78849494D01*
X128702498Y-78843248D01*
X128690684Y-78837614D01*
X128678592Y-78832605D01*
X128666254Y-78828236D01*
X128653705Y-78824519D01*
X128640978Y-78821463D01*
X128628109Y-78819078D01*
X128615132Y-78817370D01*
X128602084Y-78816343D01*
X128589000Y-78816000D01*
X128289000Y-78816000D01*
G37*
X128289000Y-78816000D02*
X128289000Y-78566000D01*
X128589000Y-78566000D01*
X128615168Y-78566685D01*
X128641264Y-78568739D01*
X128667217Y-78572156D01*
X128692956Y-78576926D01*
X128718410Y-78583037D01*
X128743508Y-78590472D01*
X128768184Y-78599210D01*
X128792368Y-78609227D01*
X128815995Y-78620497D01*
X128839000Y-78632987D01*
X128861320Y-78646665D01*
X128882893Y-78661492D01*
X128903660Y-78677427D01*
X128923565Y-78694428D01*
X128942553Y-78712447D01*
X128960572Y-78731435D01*
X128977573Y-78751340D01*
X128993508Y-78772107D01*
X129008335Y-78793680D01*
X129022013Y-78816000D01*
X129034503Y-78839005D01*
X129045773Y-78862632D01*
X129055790Y-78886816D01*
X129064528Y-78911492D01*
X129071963Y-78936590D01*
X129078074Y-78962044D01*
X129082844Y-78987783D01*
X129086261Y-79013736D01*
X129088315Y-79039832D01*
X129089000Y-79066000D01*
X129088315Y-79092168D01*
X129086261Y-79118264D01*
X129082844Y-79144217D01*
X129078074Y-79169956D01*
X129071963Y-79195410D01*
X129064528Y-79220508D01*
X129055790Y-79245184D01*
X129045773Y-79269368D01*
X129034503Y-79292995D01*
X129022013Y-79316000D01*
X129008335Y-79338320D01*
X128993508Y-79359893D01*
X128977573Y-79380660D01*
X128960572Y-79400565D01*
X128942553Y-79419553D01*
X128923565Y-79437572D01*
X128903660Y-79454573D01*
X128882893Y-79470508D01*
X128861320Y-79485335D01*
X128839000Y-79499013D01*
X128815995Y-79511503D01*
X128792368Y-79522773D01*
X128768184Y-79532790D01*
X128743508Y-79541528D01*
X128718410Y-79548963D01*
X128692956Y-79555074D01*
X128667217Y-79559844D01*
X128641264Y-79563261D01*
X128615168Y-79565315D01*
X128589000Y-79566000D01*
X128289000Y-79566000D01*
X128289000Y-79316000D01*
X128589000Y-79316000D01*
X128602084Y-79315657D01*
X128615132Y-79314630D01*
X128628109Y-79312922D01*
X128640978Y-79310537D01*
X128653705Y-79307481D01*
X128666254Y-79303764D01*
X128678592Y-79299395D01*
X128690684Y-79294386D01*
X128702498Y-79288752D01*
X128714000Y-79282506D01*
X128725160Y-79275668D01*
X128735946Y-79268254D01*
X128746330Y-79260286D01*
X128756283Y-79251786D01*
X128765777Y-79242777D01*
X128774786Y-79233283D01*
X128783286Y-79223330D01*
X128791254Y-79212946D01*
X128798668Y-79202160D01*
X128805506Y-79191000D01*
X128811752Y-79179498D01*
X128817386Y-79167684D01*
X128822395Y-79155592D01*
X128826764Y-79143254D01*
X128830481Y-79130705D01*
X128833537Y-79117978D01*
X128835922Y-79105109D01*
X128837630Y-79092132D01*
X128838657Y-79079084D01*
X128839000Y-79066000D01*
X128838657Y-79052916D01*
X128837630Y-79039868D01*
X128835922Y-79026891D01*
X128833537Y-79014022D01*
X128830481Y-79001295D01*
X128826764Y-78988746D01*
X128822395Y-78976408D01*
X128817386Y-78964316D01*
X128811752Y-78952502D01*
X128805506Y-78941000D01*
X128798668Y-78929840D01*
X128791254Y-78919054D01*
X128783286Y-78908670D01*
X128774786Y-78898717D01*
X128765777Y-78889223D01*
X128756283Y-78880214D01*
X128746330Y-78871714D01*
X128735946Y-78863746D01*
X128725160Y-78856332D01*
X128714000Y-78849494D01*
X128702498Y-78843248D01*
X128690684Y-78837614D01*
X128678592Y-78832605D01*
X128666254Y-78828236D01*
X128653705Y-78824519D01*
X128640978Y-78821463D01*
X128628109Y-78819078D01*
X128615132Y-78817370D01*
X128602084Y-78816343D01*
X128589000Y-78816000D01*
X128289000Y-78816000D01*
G36*
X128289000Y-79316000D02*
G01*
X128289000Y-79566000D01*
X127989000Y-79566000D01*
X127962832Y-79565315D01*
X127936736Y-79563261D01*
X127910783Y-79559844D01*
X127885044Y-79555074D01*
X127859590Y-79548963D01*
X127834492Y-79541528D01*
X127809816Y-79532790D01*
X127785632Y-79522773D01*
X127762005Y-79511503D01*
X127739000Y-79499013D01*
X127716680Y-79485335D01*
X127695107Y-79470508D01*
X127674340Y-79454573D01*
X127654435Y-79437572D01*
X127635447Y-79419553D01*
X127617428Y-79400565D01*
X127600427Y-79380660D01*
X127584492Y-79359893D01*
X127569665Y-79338320D01*
X127555987Y-79316000D01*
X127543497Y-79292995D01*
X127532227Y-79269368D01*
X127522210Y-79245184D01*
X127513472Y-79220508D01*
X127506037Y-79195410D01*
X127499926Y-79169956D01*
X127495156Y-79144217D01*
X127491739Y-79118264D01*
X127489685Y-79092168D01*
X127489000Y-79066000D01*
X127489685Y-79039832D01*
X127491739Y-79013736D01*
X127495156Y-78987783D01*
X127499926Y-78962044D01*
X127506037Y-78936590D01*
X127513472Y-78911492D01*
X127522210Y-78886816D01*
X127532227Y-78862632D01*
X127543497Y-78839005D01*
X127555987Y-78816000D01*
X127569665Y-78793680D01*
X127584492Y-78772107D01*
X127600427Y-78751340D01*
X127617428Y-78731435D01*
X127635447Y-78712447D01*
X127654435Y-78694428D01*
X127674340Y-78677427D01*
X127695107Y-78661492D01*
X127716680Y-78646665D01*
X127739000Y-78632987D01*
X127762005Y-78620497D01*
X127785632Y-78609227D01*
X127809816Y-78599210D01*
X127834492Y-78590472D01*
X127859590Y-78583037D01*
X127885044Y-78576926D01*
X127910783Y-78572156D01*
X127936736Y-78568739D01*
X127962832Y-78566685D01*
X127989000Y-78566000D01*
X128289000Y-78566000D01*
X128289000Y-78816000D01*
X127989000Y-78816000D01*
X127975916Y-78816343D01*
X127962868Y-78817370D01*
X127949891Y-78819078D01*
X127937022Y-78821463D01*
X127924295Y-78824519D01*
X127911746Y-78828236D01*
X127899408Y-78832605D01*
X127887316Y-78837614D01*
X127875502Y-78843248D01*
X127864000Y-78849494D01*
X127852840Y-78856332D01*
X127842054Y-78863746D01*
X127831670Y-78871714D01*
X127821717Y-78880214D01*
X127812223Y-78889223D01*
X127803214Y-78898717D01*
X127794714Y-78908670D01*
X127786746Y-78919054D01*
X127779332Y-78929840D01*
X127772494Y-78941000D01*
X127766248Y-78952502D01*
X127760614Y-78964316D01*
X127755605Y-78976408D01*
X127751236Y-78988746D01*
X127747519Y-79001295D01*
X127744463Y-79014022D01*
X127742078Y-79026891D01*
X127740370Y-79039868D01*
X127739343Y-79052916D01*
X127739000Y-79066000D01*
X127739343Y-79079084D01*
X127740370Y-79092132D01*
X127742078Y-79105109D01*
X127744463Y-79117978D01*
X127747519Y-79130705D01*
X127751236Y-79143254D01*
X127755605Y-79155592D01*
X127760614Y-79167684D01*
X127766248Y-79179498D01*
X127772494Y-79191000D01*
X127779332Y-79202160D01*
X127786746Y-79212946D01*
X127794714Y-79223330D01*
X127803214Y-79233283D01*
X127812223Y-79242777D01*
X127821717Y-79251786D01*
X127831670Y-79260286D01*
X127842054Y-79268254D01*
X127852840Y-79275668D01*
X127864000Y-79282506D01*
X127875502Y-79288752D01*
X127887316Y-79294386D01*
X127899408Y-79299395D01*
X127911746Y-79303764D01*
X127924295Y-79307481D01*
X127937022Y-79310537D01*
X127949891Y-79312922D01*
X127962868Y-79314630D01*
X127975916Y-79315657D01*
X127989000Y-79316000D01*
X128289000Y-79316000D01*
G37*
X128289000Y-79316000D02*
X128289000Y-79566000D01*
X127989000Y-79566000D01*
X127962832Y-79565315D01*
X127936736Y-79563261D01*
X127910783Y-79559844D01*
X127885044Y-79555074D01*
X127859590Y-79548963D01*
X127834492Y-79541528D01*
X127809816Y-79532790D01*
X127785632Y-79522773D01*
X127762005Y-79511503D01*
X127739000Y-79499013D01*
X127716680Y-79485335D01*
X127695107Y-79470508D01*
X127674340Y-79454573D01*
X127654435Y-79437572D01*
X127635447Y-79419553D01*
X127617428Y-79400565D01*
X127600427Y-79380660D01*
X127584492Y-79359893D01*
X127569665Y-79338320D01*
X127555987Y-79316000D01*
X127543497Y-79292995D01*
X127532227Y-79269368D01*
X127522210Y-79245184D01*
X127513472Y-79220508D01*
X127506037Y-79195410D01*
X127499926Y-79169956D01*
X127495156Y-79144217D01*
X127491739Y-79118264D01*
X127489685Y-79092168D01*
X127489000Y-79066000D01*
X127489685Y-79039832D01*
X127491739Y-79013736D01*
X127495156Y-78987783D01*
X127499926Y-78962044D01*
X127506037Y-78936590D01*
X127513472Y-78911492D01*
X127522210Y-78886816D01*
X127532227Y-78862632D01*
X127543497Y-78839005D01*
X127555987Y-78816000D01*
X127569665Y-78793680D01*
X127584492Y-78772107D01*
X127600427Y-78751340D01*
X127617428Y-78731435D01*
X127635447Y-78712447D01*
X127654435Y-78694428D01*
X127674340Y-78677427D01*
X127695107Y-78661492D01*
X127716680Y-78646665D01*
X127739000Y-78632987D01*
X127762005Y-78620497D01*
X127785632Y-78609227D01*
X127809816Y-78599210D01*
X127834492Y-78590472D01*
X127859590Y-78583037D01*
X127885044Y-78576926D01*
X127910783Y-78572156D01*
X127936736Y-78568739D01*
X127962832Y-78566685D01*
X127989000Y-78566000D01*
X128289000Y-78566000D01*
X128289000Y-78816000D01*
X127989000Y-78816000D01*
X127975916Y-78816343D01*
X127962868Y-78817370D01*
X127949891Y-78819078D01*
X127937022Y-78821463D01*
X127924295Y-78824519D01*
X127911746Y-78828236D01*
X127899408Y-78832605D01*
X127887316Y-78837614D01*
X127875502Y-78843248D01*
X127864000Y-78849494D01*
X127852840Y-78856332D01*
X127842054Y-78863746D01*
X127831670Y-78871714D01*
X127821717Y-78880214D01*
X127812223Y-78889223D01*
X127803214Y-78898717D01*
X127794714Y-78908670D01*
X127786746Y-78919054D01*
X127779332Y-78929840D01*
X127772494Y-78941000D01*
X127766248Y-78952502D01*
X127760614Y-78964316D01*
X127755605Y-78976408D01*
X127751236Y-78988746D01*
X127747519Y-79001295D01*
X127744463Y-79014022D01*
X127742078Y-79026891D01*
X127740370Y-79039868D01*
X127739343Y-79052916D01*
X127739000Y-79066000D01*
X127739343Y-79079084D01*
X127740370Y-79092132D01*
X127742078Y-79105109D01*
X127744463Y-79117978D01*
X127747519Y-79130705D01*
X127751236Y-79143254D01*
X127755605Y-79155592D01*
X127760614Y-79167684D01*
X127766248Y-79179498D01*
X127772494Y-79191000D01*
X127779332Y-79202160D01*
X127786746Y-79212946D01*
X127794714Y-79223330D01*
X127803214Y-79233283D01*
X127812223Y-79242777D01*
X127821717Y-79251786D01*
X127831670Y-79260286D01*
X127842054Y-79268254D01*
X127852840Y-79275668D01*
X127864000Y-79282506D01*
X127875502Y-79288752D01*
X127887316Y-79294386D01*
X127899408Y-79299395D01*
X127911746Y-79303764D01*
X127924295Y-79307481D01*
X127937022Y-79310537D01*
X127949891Y-79312922D01*
X127962868Y-79314630D01*
X127975916Y-79315657D01*
X127989000Y-79316000D01*
X128289000Y-79316000D01*
G36*
X128289000Y-87816000D02*
G01*
X128289000Y-87566000D01*
X128589000Y-87566000D01*
X128615168Y-87566685D01*
X128641264Y-87568739D01*
X128667217Y-87572156D01*
X128692956Y-87576926D01*
X128718410Y-87583037D01*
X128743508Y-87590472D01*
X128768184Y-87599210D01*
X128792368Y-87609227D01*
X128815995Y-87620497D01*
X128839000Y-87632987D01*
X128861320Y-87646665D01*
X128882893Y-87661492D01*
X128903660Y-87677427D01*
X128923565Y-87694428D01*
X128942553Y-87712447D01*
X128960572Y-87731435D01*
X128977573Y-87751340D01*
X128993508Y-87772107D01*
X129008335Y-87793680D01*
X129022013Y-87816000D01*
X129034503Y-87839005D01*
X129045773Y-87862632D01*
X129055790Y-87886816D01*
X129064528Y-87911492D01*
X129071963Y-87936590D01*
X129078074Y-87962044D01*
X129082844Y-87987783D01*
X129086261Y-88013736D01*
X129088315Y-88039832D01*
X129089000Y-88066000D01*
X129088315Y-88092168D01*
X129086261Y-88118264D01*
X129082844Y-88144217D01*
X129078074Y-88169956D01*
X129071963Y-88195410D01*
X129064528Y-88220508D01*
X129055790Y-88245184D01*
X129045773Y-88269368D01*
X129034503Y-88292995D01*
X129022013Y-88316000D01*
X129008335Y-88338320D01*
X128993508Y-88359893D01*
X128977573Y-88380660D01*
X128960572Y-88400565D01*
X128942553Y-88419553D01*
X128923565Y-88437572D01*
X128903660Y-88454573D01*
X128882893Y-88470508D01*
X128861320Y-88485335D01*
X128839000Y-88499013D01*
X128815995Y-88511503D01*
X128792368Y-88522773D01*
X128768184Y-88532790D01*
X128743508Y-88541528D01*
X128718410Y-88548963D01*
X128692956Y-88555074D01*
X128667217Y-88559844D01*
X128641264Y-88563261D01*
X128615168Y-88565315D01*
X128589000Y-88566000D01*
X128289000Y-88566000D01*
X128289000Y-88316000D01*
X128589000Y-88316000D01*
X128602084Y-88315657D01*
X128615132Y-88314630D01*
X128628109Y-88312922D01*
X128640978Y-88310537D01*
X128653705Y-88307481D01*
X128666254Y-88303764D01*
X128678592Y-88299395D01*
X128690684Y-88294386D01*
X128702498Y-88288752D01*
X128714000Y-88282506D01*
X128725160Y-88275668D01*
X128735946Y-88268254D01*
X128746330Y-88260286D01*
X128756283Y-88251786D01*
X128765777Y-88242777D01*
X128774786Y-88233283D01*
X128783286Y-88223330D01*
X128791254Y-88212946D01*
X128798668Y-88202160D01*
X128805506Y-88191000D01*
X128811752Y-88179498D01*
X128817386Y-88167684D01*
X128822395Y-88155592D01*
X128826764Y-88143254D01*
X128830481Y-88130705D01*
X128833537Y-88117978D01*
X128835922Y-88105109D01*
X128837630Y-88092132D01*
X128838657Y-88079084D01*
X128839000Y-88066000D01*
X128838657Y-88052916D01*
X128837630Y-88039868D01*
X128835922Y-88026891D01*
X128833537Y-88014022D01*
X128830481Y-88001295D01*
X128826764Y-87988746D01*
X128822395Y-87976408D01*
X128817386Y-87964316D01*
X128811752Y-87952502D01*
X128805506Y-87941000D01*
X128798668Y-87929840D01*
X128791254Y-87919054D01*
X128783286Y-87908670D01*
X128774786Y-87898717D01*
X128765777Y-87889223D01*
X128756283Y-87880214D01*
X128746330Y-87871714D01*
X128735946Y-87863746D01*
X128725160Y-87856332D01*
X128714000Y-87849494D01*
X128702498Y-87843248D01*
X128690684Y-87837614D01*
X128678592Y-87832605D01*
X128666254Y-87828236D01*
X128653705Y-87824519D01*
X128640978Y-87821463D01*
X128628109Y-87819078D01*
X128615132Y-87817370D01*
X128602084Y-87816343D01*
X128589000Y-87816000D01*
X128289000Y-87816000D01*
G37*
X128289000Y-87816000D02*
X128289000Y-87566000D01*
X128589000Y-87566000D01*
X128615168Y-87566685D01*
X128641264Y-87568739D01*
X128667217Y-87572156D01*
X128692956Y-87576926D01*
X128718410Y-87583037D01*
X128743508Y-87590472D01*
X128768184Y-87599210D01*
X128792368Y-87609227D01*
X128815995Y-87620497D01*
X128839000Y-87632987D01*
X128861320Y-87646665D01*
X128882893Y-87661492D01*
X128903660Y-87677427D01*
X128923565Y-87694428D01*
X128942553Y-87712447D01*
X128960572Y-87731435D01*
X128977573Y-87751340D01*
X128993508Y-87772107D01*
X129008335Y-87793680D01*
X129022013Y-87816000D01*
X129034503Y-87839005D01*
X129045773Y-87862632D01*
X129055790Y-87886816D01*
X129064528Y-87911492D01*
X129071963Y-87936590D01*
X129078074Y-87962044D01*
X129082844Y-87987783D01*
X129086261Y-88013736D01*
X129088315Y-88039832D01*
X129089000Y-88066000D01*
X129088315Y-88092168D01*
X129086261Y-88118264D01*
X129082844Y-88144217D01*
X129078074Y-88169956D01*
X129071963Y-88195410D01*
X129064528Y-88220508D01*
X129055790Y-88245184D01*
X129045773Y-88269368D01*
X129034503Y-88292995D01*
X129022013Y-88316000D01*
X129008335Y-88338320D01*
X128993508Y-88359893D01*
X128977573Y-88380660D01*
X128960572Y-88400565D01*
X128942553Y-88419553D01*
X128923565Y-88437572D01*
X128903660Y-88454573D01*
X128882893Y-88470508D01*
X128861320Y-88485335D01*
X128839000Y-88499013D01*
X128815995Y-88511503D01*
X128792368Y-88522773D01*
X128768184Y-88532790D01*
X128743508Y-88541528D01*
X128718410Y-88548963D01*
X128692956Y-88555074D01*
X128667217Y-88559844D01*
X128641264Y-88563261D01*
X128615168Y-88565315D01*
X128589000Y-88566000D01*
X128289000Y-88566000D01*
X128289000Y-88316000D01*
X128589000Y-88316000D01*
X128602084Y-88315657D01*
X128615132Y-88314630D01*
X128628109Y-88312922D01*
X128640978Y-88310537D01*
X128653705Y-88307481D01*
X128666254Y-88303764D01*
X128678592Y-88299395D01*
X128690684Y-88294386D01*
X128702498Y-88288752D01*
X128714000Y-88282506D01*
X128725160Y-88275668D01*
X128735946Y-88268254D01*
X128746330Y-88260286D01*
X128756283Y-88251786D01*
X128765777Y-88242777D01*
X128774786Y-88233283D01*
X128783286Y-88223330D01*
X128791254Y-88212946D01*
X128798668Y-88202160D01*
X128805506Y-88191000D01*
X128811752Y-88179498D01*
X128817386Y-88167684D01*
X128822395Y-88155592D01*
X128826764Y-88143254D01*
X128830481Y-88130705D01*
X128833537Y-88117978D01*
X128835922Y-88105109D01*
X128837630Y-88092132D01*
X128838657Y-88079084D01*
X128839000Y-88066000D01*
X128838657Y-88052916D01*
X128837630Y-88039868D01*
X128835922Y-88026891D01*
X128833537Y-88014022D01*
X128830481Y-88001295D01*
X128826764Y-87988746D01*
X128822395Y-87976408D01*
X128817386Y-87964316D01*
X128811752Y-87952502D01*
X128805506Y-87941000D01*
X128798668Y-87929840D01*
X128791254Y-87919054D01*
X128783286Y-87908670D01*
X128774786Y-87898717D01*
X128765777Y-87889223D01*
X128756283Y-87880214D01*
X128746330Y-87871714D01*
X128735946Y-87863746D01*
X128725160Y-87856332D01*
X128714000Y-87849494D01*
X128702498Y-87843248D01*
X128690684Y-87837614D01*
X128678592Y-87832605D01*
X128666254Y-87828236D01*
X128653705Y-87824519D01*
X128640978Y-87821463D01*
X128628109Y-87819078D01*
X128615132Y-87817370D01*
X128602084Y-87816343D01*
X128589000Y-87816000D01*
X128289000Y-87816000D01*
G36*
X128289000Y-88316000D02*
G01*
X128289000Y-88566000D01*
X127989000Y-88566000D01*
X127962832Y-88565315D01*
X127936736Y-88563261D01*
X127910783Y-88559844D01*
X127885044Y-88555074D01*
X127859590Y-88548963D01*
X127834492Y-88541528D01*
X127809816Y-88532790D01*
X127785632Y-88522773D01*
X127762005Y-88511503D01*
X127739000Y-88499013D01*
X127716680Y-88485335D01*
X127695107Y-88470508D01*
X127674340Y-88454573D01*
X127654435Y-88437572D01*
X127635447Y-88419553D01*
X127617428Y-88400565D01*
X127600427Y-88380660D01*
X127584492Y-88359893D01*
X127569665Y-88338320D01*
X127555987Y-88316000D01*
X127543497Y-88292995D01*
X127532227Y-88269368D01*
X127522210Y-88245184D01*
X127513472Y-88220508D01*
X127506037Y-88195410D01*
X127499926Y-88169956D01*
X127495156Y-88144217D01*
X127491739Y-88118264D01*
X127489685Y-88092168D01*
X127489000Y-88066000D01*
X127489685Y-88039832D01*
X127491739Y-88013736D01*
X127495156Y-87987783D01*
X127499926Y-87962044D01*
X127506037Y-87936590D01*
X127513472Y-87911492D01*
X127522210Y-87886816D01*
X127532227Y-87862632D01*
X127543497Y-87839005D01*
X127555987Y-87816000D01*
X127569665Y-87793680D01*
X127584492Y-87772107D01*
X127600427Y-87751340D01*
X127617428Y-87731435D01*
X127635447Y-87712447D01*
X127654435Y-87694428D01*
X127674340Y-87677427D01*
X127695107Y-87661492D01*
X127716680Y-87646665D01*
X127739000Y-87632987D01*
X127762005Y-87620497D01*
X127785632Y-87609227D01*
X127809816Y-87599210D01*
X127834492Y-87590472D01*
X127859590Y-87583037D01*
X127885044Y-87576926D01*
X127910783Y-87572156D01*
X127936736Y-87568739D01*
X127962832Y-87566685D01*
X127989000Y-87566000D01*
X128289000Y-87566000D01*
X128289000Y-87816000D01*
X127989000Y-87816000D01*
X127975916Y-87816343D01*
X127962868Y-87817370D01*
X127949891Y-87819078D01*
X127937022Y-87821463D01*
X127924295Y-87824519D01*
X127911746Y-87828236D01*
X127899408Y-87832605D01*
X127887316Y-87837614D01*
X127875502Y-87843248D01*
X127864000Y-87849494D01*
X127852840Y-87856332D01*
X127842054Y-87863746D01*
X127831670Y-87871714D01*
X127821717Y-87880214D01*
X127812223Y-87889223D01*
X127803214Y-87898717D01*
X127794714Y-87908670D01*
X127786746Y-87919054D01*
X127779332Y-87929840D01*
X127772494Y-87941000D01*
X127766248Y-87952502D01*
X127760614Y-87964316D01*
X127755605Y-87976408D01*
X127751236Y-87988746D01*
X127747519Y-88001295D01*
X127744463Y-88014022D01*
X127742078Y-88026891D01*
X127740370Y-88039868D01*
X127739343Y-88052916D01*
X127739000Y-88066000D01*
X127739343Y-88079084D01*
X127740370Y-88092132D01*
X127742078Y-88105109D01*
X127744463Y-88117978D01*
X127747519Y-88130705D01*
X127751236Y-88143254D01*
X127755605Y-88155592D01*
X127760614Y-88167684D01*
X127766248Y-88179498D01*
X127772494Y-88191000D01*
X127779332Y-88202160D01*
X127786746Y-88212946D01*
X127794714Y-88223330D01*
X127803214Y-88233283D01*
X127812223Y-88242777D01*
X127821717Y-88251786D01*
X127831670Y-88260286D01*
X127842054Y-88268254D01*
X127852840Y-88275668D01*
X127864000Y-88282506D01*
X127875502Y-88288752D01*
X127887316Y-88294386D01*
X127899408Y-88299395D01*
X127911746Y-88303764D01*
X127924295Y-88307481D01*
X127937022Y-88310537D01*
X127949891Y-88312922D01*
X127962868Y-88314630D01*
X127975916Y-88315657D01*
X127989000Y-88316000D01*
X128289000Y-88316000D01*
G37*
X128289000Y-88316000D02*
X128289000Y-88566000D01*
X127989000Y-88566000D01*
X127962832Y-88565315D01*
X127936736Y-88563261D01*
X127910783Y-88559844D01*
X127885044Y-88555074D01*
X127859590Y-88548963D01*
X127834492Y-88541528D01*
X127809816Y-88532790D01*
X127785632Y-88522773D01*
X127762005Y-88511503D01*
X127739000Y-88499013D01*
X127716680Y-88485335D01*
X127695107Y-88470508D01*
X127674340Y-88454573D01*
X127654435Y-88437572D01*
X127635447Y-88419553D01*
X127617428Y-88400565D01*
X127600427Y-88380660D01*
X127584492Y-88359893D01*
X127569665Y-88338320D01*
X127555987Y-88316000D01*
X127543497Y-88292995D01*
X127532227Y-88269368D01*
X127522210Y-88245184D01*
X127513472Y-88220508D01*
X127506037Y-88195410D01*
X127499926Y-88169956D01*
X127495156Y-88144217D01*
X127491739Y-88118264D01*
X127489685Y-88092168D01*
X127489000Y-88066000D01*
X127489685Y-88039832D01*
X127491739Y-88013736D01*
X127495156Y-87987783D01*
X127499926Y-87962044D01*
X127506037Y-87936590D01*
X127513472Y-87911492D01*
X127522210Y-87886816D01*
X127532227Y-87862632D01*
X127543497Y-87839005D01*
X127555987Y-87816000D01*
X127569665Y-87793680D01*
X127584492Y-87772107D01*
X127600427Y-87751340D01*
X127617428Y-87731435D01*
X127635447Y-87712447D01*
X127654435Y-87694428D01*
X127674340Y-87677427D01*
X127695107Y-87661492D01*
X127716680Y-87646665D01*
X127739000Y-87632987D01*
X127762005Y-87620497D01*
X127785632Y-87609227D01*
X127809816Y-87599210D01*
X127834492Y-87590472D01*
X127859590Y-87583037D01*
X127885044Y-87576926D01*
X127910783Y-87572156D01*
X127936736Y-87568739D01*
X127962832Y-87566685D01*
X127989000Y-87566000D01*
X128289000Y-87566000D01*
X128289000Y-87816000D01*
X127989000Y-87816000D01*
X127975916Y-87816343D01*
X127962868Y-87817370D01*
X127949891Y-87819078D01*
X127937022Y-87821463D01*
X127924295Y-87824519D01*
X127911746Y-87828236D01*
X127899408Y-87832605D01*
X127887316Y-87837614D01*
X127875502Y-87843248D01*
X127864000Y-87849494D01*
X127852840Y-87856332D01*
X127842054Y-87863746D01*
X127831670Y-87871714D01*
X127821717Y-87880214D01*
X127812223Y-87889223D01*
X127803214Y-87898717D01*
X127794714Y-87908670D01*
X127786746Y-87919054D01*
X127779332Y-87929840D01*
X127772494Y-87941000D01*
X127766248Y-87952502D01*
X127760614Y-87964316D01*
X127755605Y-87976408D01*
X127751236Y-87988746D01*
X127747519Y-88001295D01*
X127744463Y-88014022D01*
X127742078Y-88026891D01*
X127740370Y-88039868D01*
X127739343Y-88052916D01*
X127739000Y-88066000D01*
X127739343Y-88079084D01*
X127740370Y-88092132D01*
X127742078Y-88105109D01*
X127744463Y-88117978D01*
X127747519Y-88130705D01*
X127751236Y-88143254D01*
X127755605Y-88155592D01*
X127760614Y-88167684D01*
X127766248Y-88179498D01*
X127772494Y-88191000D01*
X127779332Y-88202160D01*
X127786746Y-88212946D01*
X127794714Y-88223330D01*
X127803214Y-88233283D01*
X127812223Y-88242777D01*
X127821717Y-88251786D01*
X127831670Y-88260286D01*
X127842054Y-88268254D01*
X127852840Y-88275668D01*
X127864000Y-88282506D01*
X127875502Y-88288752D01*
X127887316Y-88294386D01*
X127899408Y-88299395D01*
X127911746Y-88303764D01*
X127924295Y-88307481D01*
X127937022Y-88310537D01*
X127949891Y-88312922D01*
X127962868Y-88314630D01*
X127975916Y-88315657D01*
X127989000Y-88316000D01*
X128289000Y-88316000D01*
G36*
X122689000Y-78816000D02*
G01*
X122689000Y-78566000D01*
X123089000Y-78566000D01*
X123115168Y-78566685D01*
X123141264Y-78568739D01*
X123167217Y-78572156D01*
X123192956Y-78576926D01*
X123218410Y-78583037D01*
X123243508Y-78590472D01*
X123268184Y-78599210D01*
X123292368Y-78609227D01*
X123315995Y-78620497D01*
X123339000Y-78632987D01*
X123361320Y-78646665D01*
X123382893Y-78661492D01*
X123403660Y-78677427D01*
X123423565Y-78694428D01*
X123442553Y-78712447D01*
X123460572Y-78731435D01*
X123477573Y-78751340D01*
X123493508Y-78772107D01*
X123508335Y-78793680D01*
X123522013Y-78816000D01*
X123534503Y-78839005D01*
X123545773Y-78862632D01*
X123555790Y-78886816D01*
X123564528Y-78911492D01*
X123571963Y-78936590D01*
X123578074Y-78962044D01*
X123582844Y-78987783D01*
X123586261Y-79013736D01*
X123588315Y-79039832D01*
X123589000Y-79066000D01*
X123588315Y-79092168D01*
X123586261Y-79118264D01*
X123582844Y-79144217D01*
X123578074Y-79169956D01*
X123571963Y-79195410D01*
X123564528Y-79220508D01*
X123555790Y-79245184D01*
X123545773Y-79269368D01*
X123534503Y-79292995D01*
X123522013Y-79316000D01*
X123508335Y-79338320D01*
X123493508Y-79359893D01*
X123477573Y-79380660D01*
X123460572Y-79400565D01*
X123442553Y-79419553D01*
X123423565Y-79437572D01*
X123403660Y-79454573D01*
X123382893Y-79470508D01*
X123361320Y-79485335D01*
X123339000Y-79499013D01*
X123315995Y-79511503D01*
X123292368Y-79522773D01*
X123268184Y-79532790D01*
X123243508Y-79541528D01*
X123218410Y-79548963D01*
X123192956Y-79555074D01*
X123167217Y-79559844D01*
X123141264Y-79563261D01*
X123115168Y-79565315D01*
X123089000Y-79566000D01*
X122689000Y-79566000D01*
X122689000Y-79316000D01*
X123089000Y-79316000D01*
X123102084Y-79315657D01*
X123115132Y-79314630D01*
X123128109Y-79312922D01*
X123140978Y-79310537D01*
X123153705Y-79307481D01*
X123166254Y-79303764D01*
X123178592Y-79299395D01*
X123190684Y-79294386D01*
X123202498Y-79288752D01*
X123214000Y-79282506D01*
X123225160Y-79275668D01*
X123235946Y-79268254D01*
X123246330Y-79260286D01*
X123256283Y-79251786D01*
X123265777Y-79242777D01*
X123274786Y-79233283D01*
X123283286Y-79223330D01*
X123291254Y-79212946D01*
X123298668Y-79202160D01*
X123305506Y-79191000D01*
X123311752Y-79179498D01*
X123317386Y-79167684D01*
X123322395Y-79155592D01*
X123326764Y-79143254D01*
X123330481Y-79130705D01*
X123333537Y-79117978D01*
X123335922Y-79105109D01*
X123337630Y-79092132D01*
X123338657Y-79079084D01*
X123339000Y-79066000D01*
X123338657Y-79052916D01*
X123337630Y-79039868D01*
X123335922Y-79026891D01*
X123333537Y-79014022D01*
X123330481Y-79001295D01*
X123326764Y-78988746D01*
X123322395Y-78976408D01*
X123317386Y-78964316D01*
X123311752Y-78952502D01*
X123305506Y-78941000D01*
X123298668Y-78929840D01*
X123291254Y-78919054D01*
X123283286Y-78908670D01*
X123274786Y-78898717D01*
X123265777Y-78889223D01*
X123256283Y-78880214D01*
X123246330Y-78871714D01*
X123235946Y-78863746D01*
X123225160Y-78856332D01*
X123214000Y-78849494D01*
X123202498Y-78843248D01*
X123190684Y-78837614D01*
X123178592Y-78832605D01*
X123166254Y-78828236D01*
X123153705Y-78824519D01*
X123140978Y-78821463D01*
X123128109Y-78819078D01*
X123115132Y-78817370D01*
X123102084Y-78816343D01*
X123089000Y-78816000D01*
X122689000Y-78816000D01*
G37*
X122689000Y-78816000D02*
X122689000Y-78566000D01*
X123089000Y-78566000D01*
X123115168Y-78566685D01*
X123141264Y-78568739D01*
X123167217Y-78572156D01*
X123192956Y-78576926D01*
X123218410Y-78583037D01*
X123243508Y-78590472D01*
X123268184Y-78599210D01*
X123292368Y-78609227D01*
X123315995Y-78620497D01*
X123339000Y-78632987D01*
X123361320Y-78646665D01*
X123382893Y-78661492D01*
X123403660Y-78677427D01*
X123423565Y-78694428D01*
X123442553Y-78712447D01*
X123460572Y-78731435D01*
X123477573Y-78751340D01*
X123493508Y-78772107D01*
X123508335Y-78793680D01*
X123522013Y-78816000D01*
X123534503Y-78839005D01*
X123545773Y-78862632D01*
X123555790Y-78886816D01*
X123564528Y-78911492D01*
X123571963Y-78936590D01*
X123578074Y-78962044D01*
X123582844Y-78987783D01*
X123586261Y-79013736D01*
X123588315Y-79039832D01*
X123589000Y-79066000D01*
X123588315Y-79092168D01*
X123586261Y-79118264D01*
X123582844Y-79144217D01*
X123578074Y-79169956D01*
X123571963Y-79195410D01*
X123564528Y-79220508D01*
X123555790Y-79245184D01*
X123545773Y-79269368D01*
X123534503Y-79292995D01*
X123522013Y-79316000D01*
X123508335Y-79338320D01*
X123493508Y-79359893D01*
X123477573Y-79380660D01*
X123460572Y-79400565D01*
X123442553Y-79419553D01*
X123423565Y-79437572D01*
X123403660Y-79454573D01*
X123382893Y-79470508D01*
X123361320Y-79485335D01*
X123339000Y-79499013D01*
X123315995Y-79511503D01*
X123292368Y-79522773D01*
X123268184Y-79532790D01*
X123243508Y-79541528D01*
X123218410Y-79548963D01*
X123192956Y-79555074D01*
X123167217Y-79559844D01*
X123141264Y-79563261D01*
X123115168Y-79565315D01*
X123089000Y-79566000D01*
X122689000Y-79566000D01*
X122689000Y-79316000D01*
X123089000Y-79316000D01*
X123102084Y-79315657D01*
X123115132Y-79314630D01*
X123128109Y-79312922D01*
X123140978Y-79310537D01*
X123153705Y-79307481D01*
X123166254Y-79303764D01*
X123178592Y-79299395D01*
X123190684Y-79294386D01*
X123202498Y-79288752D01*
X123214000Y-79282506D01*
X123225160Y-79275668D01*
X123235946Y-79268254D01*
X123246330Y-79260286D01*
X123256283Y-79251786D01*
X123265777Y-79242777D01*
X123274786Y-79233283D01*
X123283286Y-79223330D01*
X123291254Y-79212946D01*
X123298668Y-79202160D01*
X123305506Y-79191000D01*
X123311752Y-79179498D01*
X123317386Y-79167684D01*
X123322395Y-79155592D01*
X123326764Y-79143254D01*
X123330481Y-79130705D01*
X123333537Y-79117978D01*
X123335922Y-79105109D01*
X123337630Y-79092132D01*
X123338657Y-79079084D01*
X123339000Y-79066000D01*
X123338657Y-79052916D01*
X123337630Y-79039868D01*
X123335922Y-79026891D01*
X123333537Y-79014022D01*
X123330481Y-79001295D01*
X123326764Y-78988746D01*
X123322395Y-78976408D01*
X123317386Y-78964316D01*
X123311752Y-78952502D01*
X123305506Y-78941000D01*
X123298668Y-78929840D01*
X123291254Y-78919054D01*
X123283286Y-78908670D01*
X123274786Y-78898717D01*
X123265777Y-78889223D01*
X123256283Y-78880214D01*
X123246330Y-78871714D01*
X123235946Y-78863746D01*
X123225160Y-78856332D01*
X123214000Y-78849494D01*
X123202498Y-78843248D01*
X123190684Y-78837614D01*
X123178592Y-78832605D01*
X123166254Y-78828236D01*
X123153705Y-78824519D01*
X123140978Y-78821463D01*
X123128109Y-78819078D01*
X123115132Y-78817370D01*
X123102084Y-78816343D01*
X123089000Y-78816000D01*
X122689000Y-78816000D01*
G36*
X122689000Y-79316000D02*
G01*
X122689000Y-79566000D01*
X122289000Y-79566000D01*
X122262832Y-79565315D01*
X122236736Y-79563261D01*
X122210783Y-79559844D01*
X122185044Y-79555074D01*
X122159590Y-79548963D01*
X122134492Y-79541528D01*
X122109816Y-79532790D01*
X122085632Y-79522773D01*
X122062005Y-79511503D01*
X122039000Y-79499013D01*
X122016680Y-79485335D01*
X121995107Y-79470508D01*
X121974340Y-79454573D01*
X121954435Y-79437572D01*
X121935447Y-79419553D01*
X121917428Y-79400565D01*
X121900427Y-79380660D01*
X121884492Y-79359893D01*
X121869665Y-79338320D01*
X121855987Y-79316000D01*
X121843497Y-79292995D01*
X121832227Y-79269368D01*
X121822210Y-79245184D01*
X121813472Y-79220508D01*
X121806037Y-79195410D01*
X121799926Y-79169956D01*
X121795156Y-79144217D01*
X121791739Y-79118264D01*
X121789685Y-79092168D01*
X121789000Y-79066000D01*
X121789685Y-79039832D01*
X121791739Y-79013736D01*
X121795156Y-78987783D01*
X121799926Y-78962044D01*
X121806037Y-78936590D01*
X121813472Y-78911492D01*
X121822210Y-78886816D01*
X121832227Y-78862632D01*
X121843497Y-78839005D01*
X121855987Y-78816000D01*
X121869665Y-78793680D01*
X121884492Y-78772107D01*
X121900427Y-78751340D01*
X121917428Y-78731435D01*
X121935447Y-78712447D01*
X121954435Y-78694428D01*
X121974340Y-78677427D01*
X121995107Y-78661492D01*
X122016680Y-78646665D01*
X122039000Y-78632987D01*
X122062005Y-78620497D01*
X122085632Y-78609227D01*
X122109816Y-78599210D01*
X122134492Y-78590472D01*
X122159590Y-78583037D01*
X122185044Y-78576926D01*
X122210783Y-78572156D01*
X122236736Y-78568739D01*
X122262832Y-78566685D01*
X122289000Y-78566000D01*
X122689000Y-78566000D01*
X122689000Y-78816000D01*
X122289000Y-78816000D01*
X122275916Y-78816343D01*
X122262868Y-78817370D01*
X122249891Y-78819078D01*
X122237022Y-78821463D01*
X122224295Y-78824519D01*
X122211746Y-78828236D01*
X122199408Y-78832605D01*
X122187316Y-78837614D01*
X122175502Y-78843248D01*
X122164000Y-78849494D01*
X122152840Y-78856332D01*
X122142054Y-78863746D01*
X122131670Y-78871714D01*
X122121717Y-78880214D01*
X122112223Y-78889223D01*
X122103214Y-78898717D01*
X122094714Y-78908670D01*
X122086746Y-78919054D01*
X122079332Y-78929840D01*
X122072494Y-78941000D01*
X122066248Y-78952502D01*
X122060614Y-78964316D01*
X122055605Y-78976408D01*
X122051236Y-78988746D01*
X122047519Y-79001295D01*
X122044463Y-79014022D01*
X122042078Y-79026891D01*
X122040370Y-79039868D01*
X122039343Y-79052916D01*
X122039000Y-79066000D01*
X122039343Y-79079084D01*
X122040370Y-79092132D01*
X122042078Y-79105109D01*
X122044463Y-79117978D01*
X122047519Y-79130705D01*
X122051236Y-79143254D01*
X122055605Y-79155592D01*
X122060614Y-79167684D01*
X122066248Y-79179498D01*
X122072494Y-79191000D01*
X122079332Y-79202160D01*
X122086746Y-79212946D01*
X122094714Y-79223330D01*
X122103214Y-79233283D01*
X122112223Y-79242777D01*
X122121717Y-79251786D01*
X122131670Y-79260286D01*
X122142054Y-79268254D01*
X122152840Y-79275668D01*
X122164000Y-79282506D01*
X122175502Y-79288752D01*
X122187316Y-79294386D01*
X122199408Y-79299395D01*
X122211746Y-79303764D01*
X122224295Y-79307481D01*
X122237022Y-79310537D01*
X122249891Y-79312922D01*
X122262868Y-79314630D01*
X122275916Y-79315657D01*
X122289000Y-79316000D01*
X122689000Y-79316000D01*
G37*
X122689000Y-79316000D02*
X122689000Y-79566000D01*
X122289000Y-79566000D01*
X122262832Y-79565315D01*
X122236736Y-79563261D01*
X122210783Y-79559844D01*
X122185044Y-79555074D01*
X122159590Y-79548963D01*
X122134492Y-79541528D01*
X122109816Y-79532790D01*
X122085632Y-79522773D01*
X122062005Y-79511503D01*
X122039000Y-79499013D01*
X122016680Y-79485335D01*
X121995107Y-79470508D01*
X121974340Y-79454573D01*
X121954435Y-79437572D01*
X121935447Y-79419553D01*
X121917428Y-79400565D01*
X121900427Y-79380660D01*
X121884492Y-79359893D01*
X121869665Y-79338320D01*
X121855987Y-79316000D01*
X121843497Y-79292995D01*
X121832227Y-79269368D01*
X121822210Y-79245184D01*
X121813472Y-79220508D01*
X121806037Y-79195410D01*
X121799926Y-79169956D01*
X121795156Y-79144217D01*
X121791739Y-79118264D01*
X121789685Y-79092168D01*
X121789000Y-79066000D01*
X121789685Y-79039832D01*
X121791739Y-79013736D01*
X121795156Y-78987783D01*
X121799926Y-78962044D01*
X121806037Y-78936590D01*
X121813472Y-78911492D01*
X121822210Y-78886816D01*
X121832227Y-78862632D01*
X121843497Y-78839005D01*
X121855987Y-78816000D01*
X121869665Y-78793680D01*
X121884492Y-78772107D01*
X121900427Y-78751340D01*
X121917428Y-78731435D01*
X121935447Y-78712447D01*
X121954435Y-78694428D01*
X121974340Y-78677427D01*
X121995107Y-78661492D01*
X122016680Y-78646665D01*
X122039000Y-78632987D01*
X122062005Y-78620497D01*
X122085632Y-78609227D01*
X122109816Y-78599210D01*
X122134492Y-78590472D01*
X122159590Y-78583037D01*
X122185044Y-78576926D01*
X122210783Y-78572156D01*
X122236736Y-78568739D01*
X122262832Y-78566685D01*
X122289000Y-78566000D01*
X122689000Y-78566000D01*
X122689000Y-78816000D01*
X122289000Y-78816000D01*
X122275916Y-78816343D01*
X122262868Y-78817370D01*
X122249891Y-78819078D01*
X122237022Y-78821463D01*
X122224295Y-78824519D01*
X122211746Y-78828236D01*
X122199408Y-78832605D01*
X122187316Y-78837614D01*
X122175502Y-78843248D01*
X122164000Y-78849494D01*
X122152840Y-78856332D01*
X122142054Y-78863746D01*
X122131670Y-78871714D01*
X122121717Y-78880214D01*
X122112223Y-78889223D01*
X122103214Y-78898717D01*
X122094714Y-78908670D01*
X122086746Y-78919054D01*
X122079332Y-78929840D01*
X122072494Y-78941000D01*
X122066248Y-78952502D01*
X122060614Y-78964316D01*
X122055605Y-78976408D01*
X122051236Y-78988746D01*
X122047519Y-79001295D01*
X122044463Y-79014022D01*
X122042078Y-79026891D01*
X122040370Y-79039868D01*
X122039343Y-79052916D01*
X122039000Y-79066000D01*
X122039343Y-79079084D01*
X122040370Y-79092132D01*
X122042078Y-79105109D01*
X122044463Y-79117978D01*
X122047519Y-79130705D01*
X122051236Y-79143254D01*
X122055605Y-79155592D01*
X122060614Y-79167684D01*
X122066248Y-79179498D01*
X122072494Y-79191000D01*
X122079332Y-79202160D01*
X122086746Y-79212946D01*
X122094714Y-79223330D01*
X122103214Y-79233283D01*
X122112223Y-79242777D01*
X122121717Y-79251786D01*
X122131670Y-79260286D01*
X122142054Y-79268254D01*
X122152840Y-79275668D01*
X122164000Y-79282506D01*
X122175502Y-79288752D01*
X122187316Y-79294386D01*
X122199408Y-79299395D01*
X122211746Y-79303764D01*
X122224295Y-79307481D01*
X122237022Y-79310537D01*
X122249891Y-79312922D01*
X122262868Y-79314630D01*
X122275916Y-79315657D01*
X122289000Y-79316000D01*
X122689000Y-79316000D01*
G36*
X122689000Y-87816000D02*
G01*
X122689000Y-87566000D01*
X123089000Y-87566000D01*
X123115168Y-87566685D01*
X123141264Y-87568739D01*
X123167217Y-87572156D01*
X123192956Y-87576926D01*
X123218410Y-87583037D01*
X123243508Y-87590472D01*
X123268184Y-87599210D01*
X123292368Y-87609227D01*
X123315995Y-87620497D01*
X123339000Y-87632987D01*
X123361320Y-87646665D01*
X123382893Y-87661492D01*
X123403660Y-87677427D01*
X123423565Y-87694428D01*
X123442553Y-87712447D01*
X123460572Y-87731435D01*
X123477573Y-87751340D01*
X123493508Y-87772107D01*
X123508335Y-87793680D01*
X123522013Y-87816000D01*
X123534503Y-87839005D01*
X123545773Y-87862632D01*
X123555790Y-87886816D01*
X123564528Y-87911492D01*
X123571963Y-87936590D01*
X123578074Y-87962044D01*
X123582844Y-87987783D01*
X123586261Y-88013736D01*
X123588315Y-88039832D01*
X123589000Y-88066000D01*
X123588315Y-88092168D01*
X123586261Y-88118264D01*
X123582844Y-88144217D01*
X123578074Y-88169956D01*
X123571963Y-88195410D01*
X123564528Y-88220508D01*
X123555790Y-88245184D01*
X123545773Y-88269368D01*
X123534503Y-88292995D01*
X123522013Y-88316000D01*
X123508335Y-88338320D01*
X123493508Y-88359893D01*
X123477573Y-88380660D01*
X123460572Y-88400565D01*
X123442553Y-88419553D01*
X123423565Y-88437572D01*
X123403660Y-88454573D01*
X123382893Y-88470508D01*
X123361320Y-88485335D01*
X123339000Y-88499013D01*
X123315995Y-88511503D01*
X123292368Y-88522773D01*
X123268184Y-88532790D01*
X123243508Y-88541528D01*
X123218410Y-88548963D01*
X123192956Y-88555074D01*
X123167217Y-88559844D01*
X123141264Y-88563261D01*
X123115168Y-88565315D01*
X123089000Y-88566000D01*
X122689000Y-88566000D01*
X122689000Y-88316000D01*
X123089000Y-88316000D01*
X123102084Y-88315657D01*
X123115132Y-88314630D01*
X123128109Y-88312922D01*
X123140978Y-88310537D01*
X123153705Y-88307481D01*
X123166254Y-88303764D01*
X123178592Y-88299395D01*
X123190684Y-88294386D01*
X123202498Y-88288752D01*
X123214000Y-88282506D01*
X123225160Y-88275668D01*
X123235946Y-88268254D01*
X123246330Y-88260286D01*
X123256283Y-88251786D01*
X123265777Y-88242777D01*
X123274786Y-88233283D01*
X123283286Y-88223330D01*
X123291254Y-88212946D01*
X123298668Y-88202160D01*
X123305506Y-88191000D01*
X123311752Y-88179498D01*
X123317386Y-88167684D01*
X123322395Y-88155592D01*
X123326764Y-88143254D01*
X123330481Y-88130705D01*
X123333537Y-88117978D01*
X123335922Y-88105109D01*
X123337630Y-88092132D01*
X123338657Y-88079084D01*
X123339000Y-88066000D01*
X123338657Y-88052916D01*
X123337630Y-88039868D01*
X123335922Y-88026891D01*
X123333537Y-88014022D01*
X123330481Y-88001295D01*
X123326764Y-87988746D01*
X123322395Y-87976408D01*
X123317386Y-87964316D01*
X123311752Y-87952502D01*
X123305506Y-87941000D01*
X123298668Y-87929840D01*
X123291254Y-87919054D01*
X123283286Y-87908670D01*
X123274786Y-87898717D01*
X123265777Y-87889223D01*
X123256283Y-87880214D01*
X123246330Y-87871714D01*
X123235946Y-87863746D01*
X123225160Y-87856332D01*
X123214000Y-87849494D01*
X123202498Y-87843248D01*
X123190684Y-87837614D01*
X123178592Y-87832605D01*
X123166254Y-87828236D01*
X123153705Y-87824519D01*
X123140978Y-87821463D01*
X123128109Y-87819078D01*
X123115132Y-87817370D01*
X123102084Y-87816343D01*
X123089000Y-87816000D01*
X122689000Y-87816000D01*
G37*
X122689000Y-87816000D02*
X122689000Y-87566000D01*
X123089000Y-87566000D01*
X123115168Y-87566685D01*
X123141264Y-87568739D01*
X123167217Y-87572156D01*
X123192956Y-87576926D01*
X123218410Y-87583037D01*
X123243508Y-87590472D01*
X123268184Y-87599210D01*
X123292368Y-87609227D01*
X123315995Y-87620497D01*
X123339000Y-87632987D01*
X123361320Y-87646665D01*
X123382893Y-87661492D01*
X123403660Y-87677427D01*
X123423565Y-87694428D01*
X123442553Y-87712447D01*
X123460572Y-87731435D01*
X123477573Y-87751340D01*
X123493508Y-87772107D01*
X123508335Y-87793680D01*
X123522013Y-87816000D01*
X123534503Y-87839005D01*
X123545773Y-87862632D01*
X123555790Y-87886816D01*
X123564528Y-87911492D01*
X123571963Y-87936590D01*
X123578074Y-87962044D01*
X123582844Y-87987783D01*
X123586261Y-88013736D01*
X123588315Y-88039832D01*
X123589000Y-88066000D01*
X123588315Y-88092168D01*
X123586261Y-88118264D01*
X123582844Y-88144217D01*
X123578074Y-88169956D01*
X123571963Y-88195410D01*
X123564528Y-88220508D01*
X123555790Y-88245184D01*
X123545773Y-88269368D01*
X123534503Y-88292995D01*
X123522013Y-88316000D01*
X123508335Y-88338320D01*
X123493508Y-88359893D01*
X123477573Y-88380660D01*
X123460572Y-88400565D01*
X123442553Y-88419553D01*
X123423565Y-88437572D01*
X123403660Y-88454573D01*
X123382893Y-88470508D01*
X123361320Y-88485335D01*
X123339000Y-88499013D01*
X123315995Y-88511503D01*
X123292368Y-88522773D01*
X123268184Y-88532790D01*
X123243508Y-88541528D01*
X123218410Y-88548963D01*
X123192956Y-88555074D01*
X123167217Y-88559844D01*
X123141264Y-88563261D01*
X123115168Y-88565315D01*
X123089000Y-88566000D01*
X122689000Y-88566000D01*
X122689000Y-88316000D01*
X123089000Y-88316000D01*
X123102084Y-88315657D01*
X123115132Y-88314630D01*
X123128109Y-88312922D01*
X123140978Y-88310537D01*
X123153705Y-88307481D01*
X123166254Y-88303764D01*
X123178592Y-88299395D01*
X123190684Y-88294386D01*
X123202498Y-88288752D01*
X123214000Y-88282506D01*
X123225160Y-88275668D01*
X123235946Y-88268254D01*
X123246330Y-88260286D01*
X123256283Y-88251786D01*
X123265777Y-88242777D01*
X123274786Y-88233283D01*
X123283286Y-88223330D01*
X123291254Y-88212946D01*
X123298668Y-88202160D01*
X123305506Y-88191000D01*
X123311752Y-88179498D01*
X123317386Y-88167684D01*
X123322395Y-88155592D01*
X123326764Y-88143254D01*
X123330481Y-88130705D01*
X123333537Y-88117978D01*
X123335922Y-88105109D01*
X123337630Y-88092132D01*
X123338657Y-88079084D01*
X123339000Y-88066000D01*
X123338657Y-88052916D01*
X123337630Y-88039868D01*
X123335922Y-88026891D01*
X123333537Y-88014022D01*
X123330481Y-88001295D01*
X123326764Y-87988746D01*
X123322395Y-87976408D01*
X123317386Y-87964316D01*
X123311752Y-87952502D01*
X123305506Y-87941000D01*
X123298668Y-87929840D01*
X123291254Y-87919054D01*
X123283286Y-87908670D01*
X123274786Y-87898717D01*
X123265777Y-87889223D01*
X123256283Y-87880214D01*
X123246330Y-87871714D01*
X123235946Y-87863746D01*
X123225160Y-87856332D01*
X123214000Y-87849494D01*
X123202498Y-87843248D01*
X123190684Y-87837614D01*
X123178592Y-87832605D01*
X123166254Y-87828236D01*
X123153705Y-87824519D01*
X123140978Y-87821463D01*
X123128109Y-87819078D01*
X123115132Y-87817370D01*
X123102084Y-87816343D01*
X123089000Y-87816000D01*
X122689000Y-87816000D01*
G36*
X122689000Y-88316000D02*
G01*
X122689000Y-88566000D01*
X122289000Y-88566000D01*
X122262832Y-88565315D01*
X122236736Y-88563261D01*
X122210783Y-88559844D01*
X122185044Y-88555074D01*
X122159590Y-88548963D01*
X122134492Y-88541528D01*
X122109816Y-88532790D01*
X122085632Y-88522773D01*
X122062005Y-88511503D01*
X122039000Y-88499013D01*
X122016680Y-88485335D01*
X121995107Y-88470508D01*
X121974340Y-88454573D01*
X121954435Y-88437572D01*
X121935447Y-88419553D01*
X121917428Y-88400565D01*
X121900427Y-88380660D01*
X121884492Y-88359893D01*
X121869665Y-88338320D01*
X121855987Y-88316000D01*
X121843497Y-88292995D01*
X121832227Y-88269368D01*
X121822210Y-88245184D01*
X121813472Y-88220508D01*
X121806037Y-88195410D01*
X121799926Y-88169956D01*
X121795156Y-88144217D01*
X121791739Y-88118264D01*
X121789685Y-88092168D01*
X121789000Y-88066000D01*
X121789685Y-88039832D01*
X121791739Y-88013736D01*
X121795156Y-87987783D01*
X121799926Y-87962044D01*
X121806037Y-87936590D01*
X121813472Y-87911492D01*
X121822210Y-87886816D01*
X121832227Y-87862632D01*
X121843497Y-87839005D01*
X121855987Y-87816000D01*
X121869665Y-87793680D01*
X121884492Y-87772107D01*
X121900427Y-87751340D01*
X121917428Y-87731435D01*
X121935447Y-87712447D01*
X121954435Y-87694428D01*
X121974340Y-87677427D01*
X121995107Y-87661492D01*
X122016680Y-87646665D01*
X122039000Y-87632987D01*
X122062005Y-87620497D01*
X122085632Y-87609227D01*
X122109816Y-87599210D01*
X122134492Y-87590472D01*
X122159590Y-87583037D01*
X122185044Y-87576926D01*
X122210783Y-87572156D01*
X122236736Y-87568739D01*
X122262832Y-87566685D01*
X122289000Y-87566000D01*
X122689000Y-87566000D01*
X122689000Y-87816000D01*
X122289000Y-87816000D01*
X122275916Y-87816343D01*
X122262868Y-87817370D01*
X122249891Y-87819078D01*
X122237022Y-87821463D01*
X122224295Y-87824519D01*
X122211746Y-87828236D01*
X122199408Y-87832605D01*
X122187316Y-87837614D01*
X122175502Y-87843248D01*
X122164000Y-87849494D01*
X122152840Y-87856332D01*
X122142054Y-87863746D01*
X122131670Y-87871714D01*
X122121717Y-87880214D01*
X122112223Y-87889223D01*
X122103214Y-87898717D01*
X122094714Y-87908670D01*
X122086746Y-87919054D01*
X122079332Y-87929840D01*
X122072494Y-87941000D01*
X122066248Y-87952502D01*
X122060614Y-87964316D01*
X122055605Y-87976408D01*
X122051236Y-87988746D01*
X122047519Y-88001295D01*
X122044463Y-88014022D01*
X122042078Y-88026891D01*
X122040370Y-88039868D01*
X122039343Y-88052916D01*
X122039000Y-88066000D01*
X122039343Y-88079084D01*
X122040370Y-88092132D01*
X122042078Y-88105109D01*
X122044463Y-88117978D01*
X122047519Y-88130705D01*
X122051236Y-88143254D01*
X122055605Y-88155592D01*
X122060614Y-88167684D01*
X122066248Y-88179498D01*
X122072494Y-88191000D01*
X122079332Y-88202160D01*
X122086746Y-88212946D01*
X122094714Y-88223330D01*
X122103214Y-88233283D01*
X122112223Y-88242777D01*
X122121717Y-88251786D01*
X122131670Y-88260286D01*
X122142054Y-88268254D01*
X122152840Y-88275668D01*
X122164000Y-88282506D01*
X122175502Y-88288752D01*
X122187316Y-88294386D01*
X122199408Y-88299395D01*
X122211746Y-88303764D01*
X122224295Y-88307481D01*
X122237022Y-88310537D01*
X122249891Y-88312922D01*
X122262868Y-88314630D01*
X122275916Y-88315657D01*
X122289000Y-88316000D01*
X122689000Y-88316000D01*
G37*
X122689000Y-88316000D02*
X122689000Y-88566000D01*
X122289000Y-88566000D01*
X122262832Y-88565315D01*
X122236736Y-88563261D01*
X122210783Y-88559844D01*
X122185044Y-88555074D01*
X122159590Y-88548963D01*
X122134492Y-88541528D01*
X122109816Y-88532790D01*
X122085632Y-88522773D01*
X122062005Y-88511503D01*
X122039000Y-88499013D01*
X122016680Y-88485335D01*
X121995107Y-88470508D01*
X121974340Y-88454573D01*
X121954435Y-88437572D01*
X121935447Y-88419553D01*
X121917428Y-88400565D01*
X121900427Y-88380660D01*
X121884492Y-88359893D01*
X121869665Y-88338320D01*
X121855987Y-88316000D01*
X121843497Y-88292995D01*
X121832227Y-88269368D01*
X121822210Y-88245184D01*
X121813472Y-88220508D01*
X121806037Y-88195410D01*
X121799926Y-88169956D01*
X121795156Y-88144217D01*
X121791739Y-88118264D01*
X121789685Y-88092168D01*
X121789000Y-88066000D01*
X121789685Y-88039832D01*
X121791739Y-88013736D01*
X121795156Y-87987783D01*
X121799926Y-87962044D01*
X121806037Y-87936590D01*
X121813472Y-87911492D01*
X121822210Y-87886816D01*
X121832227Y-87862632D01*
X121843497Y-87839005D01*
X121855987Y-87816000D01*
X121869665Y-87793680D01*
X121884492Y-87772107D01*
X121900427Y-87751340D01*
X121917428Y-87731435D01*
X121935447Y-87712447D01*
X121954435Y-87694428D01*
X121974340Y-87677427D01*
X121995107Y-87661492D01*
X122016680Y-87646665D01*
X122039000Y-87632987D01*
X122062005Y-87620497D01*
X122085632Y-87609227D01*
X122109816Y-87599210D01*
X122134492Y-87590472D01*
X122159590Y-87583037D01*
X122185044Y-87576926D01*
X122210783Y-87572156D01*
X122236736Y-87568739D01*
X122262832Y-87566685D01*
X122289000Y-87566000D01*
X122689000Y-87566000D01*
X122689000Y-87816000D01*
X122289000Y-87816000D01*
X122275916Y-87816343D01*
X122262868Y-87817370D01*
X122249891Y-87819078D01*
X122237022Y-87821463D01*
X122224295Y-87824519D01*
X122211746Y-87828236D01*
X122199408Y-87832605D01*
X122187316Y-87837614D01*
X122175502Y-87843248D01*
X122164000Y-87849494D01*
X122152840Y-87856332D01*
X122142054Y-87863746D01*
X122131670Y-87871714D01*
X122121717Y-87880214D01*
X122112223Y-87889223D01*
X122103214Y-87898717D01*
X122094714Y-87908670D01*
X122086746Y-87919054D01*
X122079332Y-87929840D01*
X122072494Y-87941000D01*
X122066248Y-87952502D01*
X122060614Y-87964316D01*
X122055605Y-87976408D01*
X122051236Y-87988746D01*
X122047519Y-88001295D01*
X122044463Y-88014022D01*
X122042078Y-88026891D01*
X122040370Y-88039868D01*
X122039343Y-88052916D01*
X122039000Y-88066000D01*
X122039343Y-88079084D01*
X122040370Y-88092132D01*
X122042078Y-88105109D01*
X122044463Y-88117978D01*
X122047519Y-88130705D01*
X122051236Y-88143254D01*
X122055605Y-88155592D01*
X122060614Y-88167684D01*
X122066248Y-88179498D01*
X122072494Y-88191000D01*
X122079332Y-88202160D01*
X122086746Y-88212946D01*
X122094714Y-88223330D01*
X122103214Y-88233283D01*
X122112223Y-88242777D01*
X122121717Y-88251786D01*
X122131670Y-88260286D01*
X122142054Y-88268254D01*
X122152840Y-88275668D01*
X122164000Y-88282506D01*
X122175502Y-88288752D01*
X122187316Y-88294386D01*
X122199408Y-88299395D01*
X122211746Y-88303764D01*
X122224295Y-88307481D01*
X122237022Y-88310537D01*
X122249891Y-88312922D01*
X122262868Y-88314630D01*
X122275916Y-88315657D01*
X122289000Y-88316000D01*
X122689000Y-88316000D01*
D11*
X128736000Y-110280000D03*
X128736000Y-110780000D03*
X128736000Y-111280000D03*
X128736000Y-111780000D03*
X128736000Y-112280000D03*
X128736000Y-112780000D03*
X128736000Y-113280000D03*
X128736000Y-113780000D03*
X128736000Y-114280000D03*
X128736000Y-114780000D03*
X128736000Y-115280000D03*
X128736000Y-115780000D03*
D12*
X179796800Y-105962000D03*
X179796800Y-106462000D03*
X179796800Y-106962000D03*
X179796800Y-107462000D03*
X179796800Y-107962000D03*
X179796800Y-108462000D03*
X179796800Y-108962000D03*
X179796800Y-109462000D03*
X179796800Y-109962000D03*
X179796800Y-110462000D03*
X179796800Y-110962000D03*
X179796800Y-111462000D03*
X181899200Y-111462000D03*
X181899200Y-110962000D03*
X181899200Y-110462000D03*
X181899200Y-109962000D03*
X181899200Y-109462000D03*
X181899200Y-108962000D03*
X181899200Y-108462000D03*
X181899200Y-107962000D03*
X181899200Y-107462000D03*
X181899200Y-106962000D03*
X181899200Y-106462000D03*
X181899200Y-105962000D03*
D11*
X128736000Y-101048000D03*
X128736000Y-100548000D03*
X128736000Y-100048000D03*
X128736000Y-99548000D03*
X128736000Y-99048000D03*
X128736000Y-98548000D03*
X128736000Y-98048000D03*
X128736000Y-97548000D03*
X128736000Y-97048000D03*
X128736000Y-96548000D03*
X128736000Y-96048000D03*
X128736000Y-95548000D03*
D12*
X181899200Y-91230000D03*
X181899200Y-91730000D03*
X181899200Y-92230000D03*
X181899200Y-92730000D03*
X181899200Y-93230000D03*
X181899200Y-93730000D03*
X181899200Y-94230000D03*
X181899200Y-94730000D03*
X181899200Y-95230000D03*
X181899200Y-95730000D03*
X181899200Y-96230000D03*
X181899200Y-96730000D03*
X179796800Y-96730000D03*
X179796800Y-96230000D03*
X179796800Y-95730000D03*
X179796800Y-95230000D03*
X179796800Y-94730000D03*
X179796800Y-94230000D03*
X179796800Y-93730000D03*
X179796800Y-93230000D03*
X179796800Y-92730000D03*
X179796800Y-92230000D03*
X179796800Y-91730000D03*
X179796800Y-91230000D03*
X179796800Y-76498000D03*
X179796800Y-76998000D03*
X179796800Y-77498000D03*
X179796800Y-77998000D03*
X179796800Y-78498000D03*
X179796800Y-78998000D03*
X179796800Y-79498000D03*
X179796800Y-79998000D03*
X179796800Y-80498000D03*
X179796800Y-80998000D03*
X179796800Y-81498000D03*
X179796800Y-81998000D03*
X181899200Y-81998000D03*
X181899200Y-81498000D03*
X181899200Y-80998000D03*
X181899200Y-80498000D03*
X181899200Y-79998000D03*
X181899200Y-79498000D03*
X181899200Y-78998000D03*
X181899200Y-78498000D03*
X181899200Y-77998000D03*
X181899200Y-77498000D03*
X181899200Y-76998000D03*
X181899200Y-76498000D03*
D11*
X128736000Y-80816000D03*
X128736000Y-81316000D03*
X128736000Y-81816000D03*
X128736000Y-82316000D03*
X128736000Y-82816000D03*
X128736000Y-83316000D03*
X128736000Y-83816000D03*
X128736000Y-84316000D03*
X128736000Y-84816000D03*
X128736000Y-85316000D03*
X128736000Y-85816000D03*
X128736000Y-86316000D03*
M02*
