G04 #@! TF.GenerationSoftware,KiCad,Pcbnew,(5.1.7)-1*
G04 #@! TF.CreationDate,2020-12-05T21:57:18-08:00*
G04 #@! TF.ProjectId,DellAdapter_3.1_PanelX3,44656c6c-4164-4617-9074-65725f332e31,rev?*
G04 #@! TF.SameCoordinates,Original*
G04 #@! TF.FileFunction,Soldermask,Bot*
G04 #@! TF.FilePolarity,Negative*
%FSLAX46Y46*%
G04 Gerber Fmt 4.6, Leading zero omitted, Abs format (unit mm)*
G04 Created by KiCad (PCBNEW (5.1.7)-1) date 2020-12-05 21:57:18*
%MOMM*%
%LPD*%
G01*
G04 APERTURE LIST*
%ADD10C,0.010000*%
%ADD11C,0.863600*%
%ADD12C,0.601600*%
%ADD13C,0.751600*%
%ADD14O,1.201600X2.301600*%
%ADD15O,0.951600X1.801600*%
%ADD16O,1.101600X2.101600*%
%ADD17C,0.851600*%
G04 APERTURE END LIST*
D10*
G36*
X127214000Y-109875230D02*
G01*
X127214000Y-108730000D01*
X126366500Y-108730000D01*
X126366500Y-109875230D01*
X127214000Y-109875230D01*
G37*
X127214000Y-109875230D02*
X127214000Y-108730000D01*
X126366500Y-108730000D01*
X126366500Y-109875230D01*
X127214000Y-109875230D01*
G36*
X129189000Y-109127250D02*
G01*
X129189000Y-107930000D01*
X127390880Y-107930000D01*
X127390880Y-109127250D01*
X129189000Y-109127250D01*
G37*
X129189000Y-109127250D02*
X129189000Y-107930000D01*
X127390880Y-107930000D01*
X127390880Y-109127250D01*
X129189000Y-109127250D01*
G36*
X129189000Y-118132070D02*
G01*
X129189000Y-116930000D01*
X127390090Y-116930000D01*
X127390090Y-118132070D01*
X129189000Y-118132070D01*
G37*
X129189000Y-118132070D02*
X129189000Y-116930000D01*
X127390090Y-116930000D01*
X127390090Y-118132070D01*
X129189000Y-118132070D01*
G36*
X123689000Y-109129910D02*
G01*
X123689000Y-107930000D01*
X121688930Y-107930000D01*
X121688930Y-109129910D01*
X123689000Y-109129910D01*
G37*
X123689000Y-109129910D02*
X123689000Y-107930000D01*
X121688930Y-107930000D01*
X121688930Y-109129910D01*
X123689000Y-109129910D01*
G36*
X123689000Y-118130480D02*
G01*
X123689000Y-116930000D01*
X121688720Y-116930000D01*
X121688720Y-118130480D01*
X123689000Y-118130480D01*
G37*
X123689000Y-118130480D02*
X123689000Y-116930000D01*
X121688720Y-116930000D01*
X121688720Y-118130480D01*
X123689000Y-118130480D01*
G36*
X123689000Y-103398480D02*
G01*
X123689000Y-102198000D01*
X121688720Y-102198000D01*
X121688720Y-103398480D01*
X123689000Y-103398480D01*
G37*
X123689000Y-103398480D02*
X123689000Y-102198000D01*
X121688720Y-102198000D01*
X121688720Y-103398480D01*
X123689000Y-103398480D01*
G36*
X123689000Y-94397910D02*
G01*
X123689000Y-93198000D01*
X121688930Y-93198000D01*
X121688930Y-94397910D01*
X123689000Y-94397910D01*
G37*
X123689000Y-94397910D02*
X123689000Y-93198000D01*
X121688930Y-93198000D01*
X121688930Y-94397910D01*
X123689000Y-94397910D01*
G36*
X129189000Y-103400070D02*
G01*
X129189000Y-102198000D01*
X127390090Y-102198000D01*
X127390090Y-103400070D01*
X129189000Y-103400070D01*
G37*
X129189000Y-103400070D02*
X129189000Y-102198000D01*
X127390090Y-102198000D01*
X127390090Y-103400070D01*
X129189000Y-103400070D01*
G36*
X129189000Y-94395250D02*
G01*
X129189000Y-93198000D01*
X127390880Y-93198000D01*
X127390880Y-94395250D01*
X129189000Y-94395250D01*
G37*
X129189000Y-94395250D02*
X129189000Y-93198000D01*
X127390880Y-93198000D01*
X127390880Y-94395250D01*
X129189000Y-94395250D01*
G36*
X127214000Y-95143230D02*
G01*
X127214000Y-93998000D01*
X126366500Y-93998000D01*
X126366500Y-95143230D01*
X127214000Y-95143230D01*
G37*
X127214000Y-95143230D02*
X127214000Y-93998000D01*
X126366500Y-93998000D01*
X126366500Y-95143230D01*
X127214000Y-95143230D01*
G36*
X127214000Y-80411230D02*
G01*
X127214000Y-79266000D01*
X126366500Y-79266000D01*
X126366500Y-80411230D01*
X127214000Y-80411230D01*
G37*
X127214000Y-80411230D02*
X127214000Y-79266000D01*
X126366500Y-79266000D01*
X126366500Y-80411230D01*
X127214000Y-80411230D01*
G36*
X129189000Y-79663250D02*
G01*
X129189000Y-78466000D01*
X127390880Y-78466000D01*
X127390880Y-79663250D01*
X129189000Y-79663250D01*
G37*
X129189000Y-79663250D02*
X129189000Y-78466000D01*
X127390880Y-78466000D01*
X127390880Y-79663250D01*
X129189000Y-79663250D01*
G36*
X129189000Y-88668070D02*
G01*
X129189000Y-87466000D01*
X127390090Y-87466000D01*
X127390090Y-88668070D01*
X129189000Y-88668070D01*
G37*
X129189000Y-88668070D02*
X129189000Y-87466000D01*
X127390090Y-87466000D01*
X127390090Y-88668070D01*
X129189000Y-88668070D01*
G36*
X123689000Y-79665910D02*
G01*
X123689000Y-78466000D01*
X121688930Y-78466000D01*
X121688930Y-79665910D01*
X123689000Y-79665910D01*
G37*
X123689000Y-79665910D02*
X123689000Y-78466000D01*
X121688930Y-78466000D01*
X121688930Y-79665910D01*
X123689000Y-79665910D01*
G36*
X123689000Y-88666480D02*
G01*
X123689000Y-87466000D01*
X121688720Y-87466000D01*
X121688720Y-88666480D01*
X123689000Y-88666480D01*
G37*
X123689000Y-88666480D02*
X123689000Y-87466000D01*
X121688720Y-87466000D01*
X121688720Y-88666480D01*
X123689000Y-88666480D01*
D11*
X172212000Y-105156000D03*
X171196000Y-106426000D03*
X171196000Y-110998000D03*
X172212000Y-112268000D03*
X172466000Y-108712000D03*
D12*
X122689000Y-117530000D03*
X122689000Y-108530000D03*
D13*
X126789000Y-116755000D03*
D12*
X128289000Y-117530000D03*
X128289000Y-108530000D03*
D13*
X126789000Y-109305000D03*
X127489000Y-116080000D03*
X126789000Y-115430000D03*
X126789000Y-114630000D03*
X127489000Y-114230000D03*
X126789000Y-113830000D03*
X127489000Y-113430000D03*
X127489000Y-112630000D03*
X126789000Y-112230000D03*
X127489000Y-111830000D03*
X126789000Y-111430000D03*
X126789000Y-110630000D03*
X127489000Y-109980000D03*
G36*
G01*
X129193200Y-110505800D02*
X128278800Y-110505800D01*
G75*
G02*
X128228000Y-110455000I0J50800D01*
G01*
X128228000Y-110105000D01*
G75*
G02*
X128278800Y-110054200I50800J0D01*
G01*
X129193200Y-110054200D01*
G75*
G02*
X129244000Y-110105000I0J-50800D01*
G01*
X129244000Y-110455000D01*
G75*
G02*
X129193200Y-110505800I-50800J0D01*
G01*
G37*
G36*
G01*
X129193200Y-111005800D02*
X128278800Y-111005800D01*
G75*
G02*
X128228000Y-110955000I0J50800D01*
G01*
X128228000Y-110605000D01*
G75*
G02*
X128278800Y-110554200I50800J0D01*
G01*
X129193200Y-110554200D01*
G75*
G02*
X129244000Y-110605000I0J-50800D01*
G01*
X129244000Y-110955000D01*
G75*
G02*
X129193200Y-111005800I-50800J0D01*
G01*
G37*
G36*
G01*
X129193200Y-111505800D02*
X128278800Y-111505800D01*
G75*
G02*
X128228000Y-111455000I0J50800D01*
G01*
X128228000Y-111105000D01*
G75*
G02*
X128278800Y-111054200I50800J0D01*
G01*
X129193200Y-111054200D01*
G75*
G02*
X129244000Y-111105000I0J-50800D01*
G01*
X129244000Y-111455000D01*
G75*
G02*
X129193200Y-111505800I-50800J0D01*
G01*
G37*
G36*
G01*
X129193200Y-112005800D02*
X128278800Y-112005800D01*
G75*
G02*
X128228000Y-111955000I0J50800D01*
G01*
X128228000Y-111605000D01*
G75*
G02*
X128278800Y-111554200I50800J0D01*
G01*
X129193200Y-111554200D01*
G75*
G02*
X129244000Y-111605000I0J-50800D01*
G01*
X129244000Y-111955000D01*
G75*
G02*
X129193200Y-112005800I-50800J0D01*
G01*
G37*
G36*
G01*
X129193200Y-112505800D02*
X128278800Y-112505800D01*
G75*
G02*
X128228000Y-112455000I0J50800D01*
G01*
X128228000Y-112105000D01*
G75*
G02*
X128278800Y-112054200I50800J0D01*
G01*
X129193200Y-112054200D01*
G75*
G02*
X129244000Y-112105000I0J-50800D01*
G01*
X129244000Y-112455000D01*
G75*
G02*
X129193200Y-112505800I-50800J0D01*
G01*
G37*
G36*
G01*
X129193200Y-113005800D02*
X128278800Y-113005800D01*
G75*
G02*
X128228000Y-112955000I0J50800D01*
G01*
X128228000Y-112605000D01*
G75*
G02*
X128278800Y-112554200I50800J0D01*
G01*
X129193200Y-112554200D01*
G75*
G02*
X129244000Y-112605000I0J-50800D01*
G01*
X129244000Y-112955000D01*
G75*
G02*
X129193200Y-113005800I-50800J0D01*
G01*
G37*
G36*
G01*
X129193200Y-113505800D02*
X128278800Y-113505800D01*
G75*
G02*
X128228000Y-113455000I0J50800D01*
G01*
X128228000Y-113105000D01*
G75*
G02*
X128278800Y-113054200I50800J0D01*
G01*
X129193200Y-113054200D01*
G75*
G02*
X129244000Y-113105000I0J-50800D01*
G01*
X129244000Y-113455000D01*
G75*
G02*
X129193200Y-113505800I-50800J0D01*
G01*
G37*
G36*
G01*
X129193200Y-114005800D02*
X128278800Y-114005800D01*
G75*
G02*
X128228000Y-113955000I0J50800D01*
G01*
X128228000Y-113605000D01*
G75*
G02*
X128278800Y-113554200I50800J0D01*
G01*
X129193200Y-113554200D01*
G75*
G02*
X129244000Y-113605000I0J-50800D01*
G01*
X129244000Y-113955000D01*
G75*
G02*
X129193200Y-114005800I-50800J0D01*
G01*
G37*
G36*
G01*
X129193200Y-114505800D02*
X128278800Y-114505800D01*
G75*
G02*
X128228000Y-114455000I0J50800D01*
G01*
X128228000Y-114105000D01*
G75*
G02*
X128278800Y-114054200I50800J0D01*
G01*
X129193200Y-114054200D01*
G75*
G02*
X129244000Y-114105000I0J-50800D01*
G01*
X129244000Y-114455000D01*
G75*
G02*
X129193200Y-114505800I-50800J0D01*
G01*
G37*
G36*
G01*
X129193200Y-115005800D02*
X128278800Y-115005800D01*
G75*
G02*
X128228000Y-114955000I0J50800D01*
G01*
X128228000Y-114605000D01*
G75*
G02*
X128278800Y-114554200I50800J0D01*
G01*
X129193200Y-114554200D01*
G75*
G02*
X129244000Y-114605000I0J-50800D01*
G01*
X129244000Y-114955000D01*
G75*
G02*
X129193200Y-115005800I-50800J0D01*
G01*
G37*
G36*
G01*
X129193200Y-115505800D02*
X128278800Y-115505800D01*
G75*
G02*
X128228000Y-115455000I0J50800D01*
G01*
X128228000Y-115105000D01*
G75*
G02*
X128278800Y-115054200I50800J0D01*
G01*
X129193200Y-115054200D01*
G75*
G02*
X129244000Y-115105000I0J-50800D01*
G01*
X129244000Y-115455000D01*
G75*
G02*
X129193200Y-115505800I-50800J0D01*
G01*
G37*
G36*
G01*
X129193200Y-116005800D02*
X128278800Y-116005800D01*
G75*
G02*
X128228000Y-115955000I0J50800D01*
G01*
X128228000Y-115605000D01*
G75*
G02*
X128278800Y-115554200I50800J0D01*
G01*
X129193200Y-115554200D01*
G75*
G02*
X129244000Y-115605000I0J-50800D01*
G01*
X129244000Y-115955000D01*
G75*
G02*
X129193200Y-116005800I-50800J0D01*
G01*
G37*
D14*
X178048000Y-108712000D03*
D15*
X180848000Y-104702000D03*
D16*
X183648000Y-106962000D03*
X183648000Y-110462000D03*
D15*
X180848000Y-112722000D03*
D17*
X179918000Y-112522000D03*
X181768000Y-104902000D03*
G36*
G01*
X180393701Y-106152800D02*
X179199899Y-106152800D01*
G75*
G02*
X179149100Y-106102001I0J50799D01*
G01*
X179149100Y-105821999D01*
G75*
G02*
X179199899Y-105771200I50799J0D01*
G01*
X180393701Y-105771200D01*
G75*
G02*
X180444500Y-105821999I0J-50799D01*
G01*
X180444500Y-106102001D01*
G75*
G02*
X180393701Y-106152800I-50799J0D01*
G01*
G37*
G36*
G01*
X180393701Y-106652800D02*
X179199899Y-106652800D01*
G75*
G02*
X179149100Y-106602001I0J50799D01*
G01*
X179149100Y-106321999D01*
G75*
G02*
X179199899Y-106271200I50799J0D01*
G01*
X180393701Y-106271200D01*
G75*
G02*
X180444500Y-106321999I0J-50799D01*
G01*
X180444500Y-106602001D01*
G75*
G02*
X180393701Y-106652800I-50799J0D01*
G01*
G37*
G36*
G01*
X180393701Y-107152800D02*
X179199899Y-107152800D01*
G75*
G02*
X179149100Y-107102001I0J50799D01*
G01*
X179149100Y-106821999D01*
G75*
G02*
X179199899Y-106771200I50799J0D01*
G01*
X180393701Y-106771200D01*
G75*
G02*
X180444500Y-106821999I0J-50799D01*
G01*
X180444500Y-107102001D01*
G75*
G02*
X180393701Y-107152800I-50799J0D01*
G01*
G37*
G36*
G01*
X180393701Y-107652800D02*
X179199899Y-107652800D01*
G75*
G02*
X179149100Y-107602001I0J50799D01*
G01*
X179149100Y-107321999D01*
G75*
G02*
X179199899Y-107271200I50799J0D01*
G01*
X180393701Y-107271200D01*
G75*
G02*
X180444500Y-107321999I0J-50799D01*
G01*
X180444500Y-107602001D01*
G75*
G02*
X180393701Y-107652800I-50799J0D01*
G01*
G37*
G36*
G01*
X180393701Y-108152800D02*
X179199899Y-108152800D01*
G75*
G02*
X179149100Y-108102001I0J50799D01*
G01*
X179149100Y-107821999D01*
G75*
G02*
X179199899Y-107771200I50799J0D01*
G01*
X180393701Y-107771200D01*
G75*
G02*
X180444500Y-107821999I0J-50799D01*
G01*
X180444500Y-108102001D01*
G75*
G02*
X180393701Y-108152800I-50799J0D01*
G01*
G37*
G36*
G01*
X180393701Y-108652800D02*
X179199899Y-108652800D01*
G75*
G02*
X179149100Y-108602001I0J50799D01*
G01*
X179149100Y-108321999D01*
G75*
G02*
X179199899Y-108271200I50799J0D01*
G01*
X180393701Y-108271200D01*
G75*
G02*
X180444500Y-108321999I0J-50799D01*
G01*
X180444500Y-108602001D01*
G75*
G02*
X180393701Y-108652800I-50799J0D01*
G01*
G37*
G36*
G01*
X180393701Y-109152800D02*
X179199899Y-109152800D01*
G75*
G02*
X179149100Y-109102001I0J50799D01*
G01*
X179149100Y-108821999D01*
G75*
G02*
X179199899Y-108771200I50799J0D01*
G01*
X180393701Y-108771200D01*
G75*
G02*
X180444500Y-108821999I0J-50799D01*
G01*
X180444500Y-109102001D01*
G75*
G02*
X180393701Y-109152800I-50799J0D01*
G01*
G37*
G36*
G01*
X180393701Y-109652800D02*
X179199899Y-109652800D01*
G75*
G02*
X179149100Y-109602001I0J50799D01*
G01*
X179149100Y-109321999D01*
G75*
G02*
X179199899Y-109271200I50799J0D01*
G01*
X180393701Y-109271200D01*
G75*
G02*
X180444500Y-109321999I0J-50799D01*
G01*
X180444500Y-109602001D01*
G75*
G02*
X180393701Y-109652800I-50799J0D01*
G01*
G37*
G36*
G01*
X180393701Y-110152800D02*
X179199899Y-110152800D01*
G75*
G02*
X179149100Y-110102001I0J50799D01*
G01*
X179149100Y-109821999D01*
G75*
G02*
X179199899Y-109771200I50799J0D01*
G01*
X180393701Y-109771200D01*
G75*
G02*
X180444500Y-109821999I0J-50799D01*
G01*
X180444500Y-110102001D01*
G75*
G02*
X180393701Y-110152800I-50799J0D01*
G01*
G37*
G36*
G01*
X180393701Y-110652800D02*
X179199899Y-110652800D01*
G75*
G02*
X179149100Y-110602001I0J50799D01*
G01*
X179149100Y-110321999D01*
G75*
G02*
X179199899Y-110271200I50799J0D01*
G01*
X180393701Y-110271200D01*
G75*
G02*
X180444500Y-110321999I0J-50799D01*
G01*
X180444500Y-110602001D01*
G75*
G02*
X180393701Y-110652800I-50799J0D01*
G01*
G37*
G36*
G01*
X180393701Y-111152800D02*
X179199899Y-111152800D01*
G75*
G02*
X179149100Y-111102001I0J50799D01*
G01*
X179149100Y-110821999D01*
G75*
G02*
X179199899Y-110771200I50799J0D01*
G01*
X180393701Y-110771200D01*
G75*
G02*
X180444500Y-110821999I0J-50799D01*
G01*
X180444500Y-111102001D01*
G75*
G02*
X180393701Y-111152800I-50799J0D01*
G01*
G37*
G36*
G01*
X180393701Y-111652800D02*
X179199899Y-111652800D01*
G75*
G02*
X179149100Y-111602001I0J50799D01*
G01*
X179149100Y-111321999D01*
G75*
G02*
X179199899Y-111271200I50799J0D01*
G01*
X180393701Y-111271200D01*
G75*
G02*
X180444500Y-111321999I0J-50799D01*
G01*
X180444500Y-111602001D01*
G75*
G02*
X180393701Y-111652800I-50799J0D01*
G01*
G37*
G36*
G01*
X182496101Y-111652800D02*
X181302299Y-111652800D01*
G75*
G02*
X181251500Y-111602001I0J50799D01*
G01*
X181251500Y-111321999D01*
G75*
G02*
X181302299Y-111271200I50799J0D01*
G01*
X182496101Y-111271200D01*
G75*
G02*
X182546900Y-111321999I0J-50799D01*
G01*
X182546900Y-111602001D01*
G75*
G02*
X182496101Y-111652800I-50799J0D01*
G01*
G37*
G36*
G01*
X182496101Y-111152800D02*
X181302299Y-111152800D01*
G75*
G02*
X181251500Y-111102001I0J50799D01*
G01*
X181251500Y-110821999D01*
G75*
G02*
X181302299Y-110771200I50799J0D01*
G01*
X182496101Y-110771200D01*
G75*
G02*
X182546900Y-110821999I0J-50799D01*
G01*
X182546900Y-111102001D01*
G75*
G02*
X182496101Y-111152800I-50799J0D01*
G01*
G37*
G36*
G01*
X182496101Y-110652800D02*
X181302299Y-110652800D01*
G75*
G02*
X181251500Y-110602001I0J50799D01*
G01*
X181251500Y-110321999D01*
G75*
G02*
X181302299Y-110271200I50799J0D01*
G01*
X182496101Y-110271200D01*
G75*
G02*
X182546900Y-110321999I0J-50799D01*
G01*
X182546900Y-110602001D01*
G75*
G02*
X182496101Y-110652800I-50799J0D01*
G01*
G37*
G36*
G01*
X182496101Y-110152800D02*
X181302299Y-110152800D01*
G75*
G02*
X181251500Y-110102001I0J50799D01*
G01*
X181251500Y-109821999D01*
G75*
G02*
X181302299Y-109771200I50799J0D01*
G01*
X182496101Y-109771200D01*
G75*
G02*
X182546900Y-109821999I0J-50799D01*
G01*
X182546900Y-110102001D01*
G75*
G02*
X182496101Y-110152800I-50799J0D01*
G01*
G37*
G36*
G01*
X182496101Y-109652800D02*
X181302299Y-109652800D01*
G75*
G02*
X181251500Y-109602001I0J50799D01*
G01*
X181251500Y-109321999D01*
G75*
G02*
X181302299Y-109271200I50799J0D01*
G01*
X182496101Y-109271200D01*
G75*
G02*
X182546900Y-109321999I0J-50799D01*
G01*
X182546900Y-109602001D01*
G75*
G02*
X182496101Y-109652800I-50799J0D01*
G01*
G37*
G36*
G01*
X182496101Y-109152800D02*
X181302299Y-109152800D01*
G75*
G02*
X181251500Y-109102001I0J50799D01*
G01*
X181251500Y-108821999D01*
G75*
G02*
X181302299Y-108771200I50799J0D01*
G01*
X182496101Y-108771200D01*
G75*
G02*
X182546900Y-108821999I0J-50799D01*
G01*
X182546900Y-109102001D01*
G75*
G02*
X182496101Y-109152800I-50799J0D01*
G01*
G37*
G36*
G01*
X182496101Y-108652800D02*
X181302299Y-108652800D01*
G75*
G02*
X181251500Y-108602001I0J50799D01*
G01*
X181251500Y-108321999D01*
G75*
G02*
X181302299Y-108271200I50799J0D01*
G01*
X182496101Y-108271200D01*
G75*
G02*
X182546900Y-108321999I0J-50799D01*
G01*
X182546900Y-108602001D01*
G75*
G02*
X182496101Y-108652800I-50799J0D01*
G01*
G37*
G36*
G01*
X182496101Y-108152800D02*
X181302299Y-108152800D01*
G75*
G02*
X181251500Y-108102001I0J50799D01*
G01*
X181251500Y-107821999D01*
G75*
G02*
X181302299Y-107771200I50799J0D01*
G01*
X182496101Y-107771200D01*
G75*
G02*
X182546900Y-107821999I0J-50799D01*
G01*
X182546900Y-108102001D01*
G75*
G02*
X182496101Y-108152800I-50799J0D01*
G01*
G37*
G36*
G01*
X182496101Y-107652800D02*
X181302299Y-107652800D01*
G75*
G02*
X181251500Y-107602001I0J50799D01*
G01*
X181251500Y-107321999D01*
G75*
G02*
X181302299Y-107271200I50799J0D01*
G01*
X182496101Y-107271200D01*
G75*
G02*
X182546900Y-107321999I0J-50799D01*
G01*
X182546900Y-107602001D01*
G75*
G02*
X182496101Y-107652800I-50799J0D01*
G01*
G37*
G36*
G01*
X182496101Y-107152800D02*
X181302299Y-107152800D01*
G75*
G02*
X181251500Y-107102001I0J50799D01*
G01*
X181251500Y-106821999D01*
G75*
G02*
X181302299Y-106771200I50799J0D01*
G01*
X182496101Y-106771200D01*
G75*
G02*
X182546900Y-106821999I0J-50799D01*
G01*
X182546900Y-107102001D01*
G75*
G02*
X182496101Y-107152800I-50799J0D01*
G01*
G37*
G36*
G01*
X182496101Y-106652800D02*
X181302299Y-106652800D01*
G75*
G02*
X181251500Y-106602001I0J50799D01*
G01*
X181251500Y-106321999D01*
G75*
G02*
X181302299Y-106271200I50799J0D01*
G01*
X182496101Y-106271200D01*
G75*
G02*
X182546900Y-106321999I0J-50799D01*
G01*
X182546900Y-106602001D01*
G75*
G02*
X182496101Y-106652800I-50799J0D01*
G01*
G37*
G36*
G01*
X182496101Y-106152800D02*
X181302299Y-106152800D01*
G75*
G02*
X181251500Y-106102001I0J50799D01*
G01*
X181251500Y-105821999D01*
G75*
G02*
X181302299Y-105771200I50799J0D01*
G01*
X182496101Y-105771200D01*
G75*
G02*
X182546900Y-105821999I0J-50799D01*
G01*
X182546900Y-106102001D01*
G75*
G02*
X182496101Y-106152800I-50799J0D01*
G01*
G37*
D11*
X172212000Y-90424000D03*
X171196000Y-91694000D03*
X172212000Y-97536000D03*
X172466000Y-93980000D03*
G36*
G01*
X129193200Y-101273800D02*
X128278800Y-101273800D01*
G75*
G02*
X128228000Y-101223000I0J50800D01*
G01*
X128228000Y-100873000D01*
G75*
G02*
X128278800Y-100822200I50800J0D01*
G01*
X129193200Y-100822200D01*
G75*
G02*
X129244000Y-100873000I0J-50800D01*
G01*
X129244000Y-101223000D01*
G75*
G02*
X129193200Y-101273800I-50800J0D01*
G01*
G37*
G36*
G01*
X129193200Y-100773800D02*
X128278800Y-100773800D01*
G75*
G02*
X128228000Y-100723000I0J50800D01*
G01*
X128228000Y-100373000D01*
G75*
G02*
X128278800Y-100322200I50800J0D01*
G01*
X129193200Y-100322200D01*
G75*
G02*
X129244000Y-100373000I0J-50800D01*
G01*
X129244000Y-100723000D01*
G75*
G02*
X129193200Y-100773800I-50800J0D01*
G01*
G37*
G36*
G01*
X129193200Y-100273800D02*
X128278800Y-100273800D01*
G75*
G02*
X128228000Y-100223000I0J50800D01*
G01*
X128228000Y-99873000D01*
G75*
G02*
X128278800Y-99822200I50800J0D01*
G01*
X129193200Y-99822200D01*
G75*
G02*
X129244000Y-99873000I0J-50800D01*
G01*
X129244000Y-100223000D01*
G75*
G02*
X129193200Y-100273800I-50800J0D01*
G01*
G37*
G36*
G01*
X129193200Y-99773800D02*
X128278800Y-99773800D01*
G75*
G02*
X128228000Y-99723000I0J50800D01*
G01*
X128228000Y-99373000D01*
G75*
G02*
X128278800Y-99322200I50800J0D01*
G01*
X129193200Y-99322200D01*
G75*
G02*
X129244000Y-99373000I0J-50800D01*
G01*
X129244000Y-99723000D01*
G75*
G02*
X129193200Y-99773800I-50800J0D01*
G01*
G37*
G36*
G01*
X129193200Y-99273800D02*
X128278800Y-99273800D01*
G75*
G02*
X128228000Y-99223000I0J50800D01*
G01*
X128228000Y-98873000D01*
G75*
G02*
X128278800Y-98822200I50800J0D01*
G01*
X129193200Y-98822200D01*
G75*
G02*
X129244000Y-98873000I0J-50800D01*
G01*
X129244000Y-99223000D01*
G75*
G02*
X129193200Y-99273800I-50800J0D01*
G01*
G37*
G36*
G01*
X129193200Y-98773800D02*
X128278800Y-98773800D01*
G75*
G02*
X128228000Y-98723000I0J50800D01*
G01*
X128228000Y-98373000D01*
G75*
G02*
X128278800Y-98322200I50800J0D01*
G01*
X129193200Y-98322200D01*
G75*
G02*
X129244000Y-98373000I0J-50800D01*
G01*
X129244000Y-98723000D01*
G75*
G02*
X129193200Y-98773800I-50800J0D01*
G01*
G37*
G36*
G01*
X129193200Y-98273800D02*
X128278800Y-98273800D01*
G75*
G02*
X128228000Y-98223000I0J50800D01*
G01*
X128228000Y-97873000D01*
G75*
G02*
X128278800Y-97822200I50800J0D01*
G01*
X129193200Y-97822200D01*
G75*
G02*
X129244000Y-97873000I0J-50800D01*
G01*
X129244000Y-98223000D01*
G75*
G02*
X129193200Y-98273800I-50800J0D01*
G01*
G37*
G36*
G01*
X129193200Y-97773800D02*
X128278800Y-97773800D01*
G75*
G02*
X128228000Y-97723000I0J50800D01*
G01*
X128228000Y-97373000D01*
G75*
G02*
X128278800Y-97322200I50800J0D01*
G01*
X129193200Y-97322200D01*
G75*
G02*
X129244000Y-97373000I0J-50800D01*
G01*
X129244000Y-97723000D01*
G75*
G02*
X129193200Y-97773800I-50800J0D01*
G01*
G37*
G36*
G01*
X129193200Y-97273800D02*
X128278800Y-97273800D01*
G75*
G02*
X128228000Y-97223000I0J50800D01*
G01*
X128228000Y-96873000D01*
G75*
G02*
X128278800Y-96822200I50800J0D01*
G01*
X129193200Y-96822200D01*
G75*
G02*
X129244000Y-96873000I0J-50800D01*
G01*
X129244000Y-97223000D01*
G75*
G02*
X129193200Y-97273800I-50800J0D01*
G01*
G37*
G36*
G01*
X129193200Y-96773800D02*
X128278800Y-96773800D01*
G75*
G02*
X128228000Y-96723000I0J50800D01*
G01*
X128228000Y-96373000D01*
G75*
G02*
X128278800Y-96322200I50800J0D01*
G01*
X129193200Y-96322200D01*
G75*
G02*
X129244000Y-96373000I0J-50800D01*
G01*
X129244000Y-96723000D01*
G75*
G02*
X129193200Y-96773800I-50800J0D01*
G01*
G37*
G36*
G01*
X129193200Y-96273800D02*
X128278800Y-96273800D01*
G75*
G02*
X128228000Y-96223000I0J50800D01*
G01*
X128228000Y-95873000D01*
G75*
G02*
X128278800Y-95822200I50800J0D01*
G01*
X129193200Y-95822200D01*
G75*
G02*
X129244000Y-95873000I0J-50800D01*
G01*
X129244000Y-96223000D01*
G75*
G02*
X129193200Y-96273800I-50800J0D01*
G01*
G37*
G36*
G01*
X129193200Y-95773800D02*
X128278800Y-95773800D01*
G75*
G02*
X128228000Y-95723000I0J50800D01*
G01*
X128228000Y-95373000D01*
G75*
G02*
X128278800Y-95322200I50800J0D01*
G01*
X129193200Y-95322200D01*
G75*
G02*
X129244000Y-95373000I0J-50800D01*
G01*
X129244000Y-95723000D01*
G75*
G02*
X129193200Y-95773800I-50800J0D01*
G01*
G37*
D13*
X127489000Y-95248000D03*
X126789000Y-95898000D03*
X126789000Y-96698000D03*
X127489000Y-97098000D03*
X126789000Y-97498000D03*
X127489000Y-97898000D03*
X127489000Y-98698000D03*
X126789000Y-99098000D03*
X127489000Y-99498000D03*
X126789000Y-99898000D03*
X126789000Y-100698000D03*
X127489000Y-101348000D03*
X126789000Y-94573000D03*
D12*
X128289000Y-93798000D03*
X128289000Y-102798000D03*
D13*
X126789000Y-102023000D03*
D12*
X122689000Y-93798000D03*
X122689000Y-102798000D03*
G36*
G01*
X182496101Y-91420800D02*
X181302299Y-91420800D01*
G75*
G02*
X181251500Y-91370001I0J50799D01*
G01*
X181251500Y-91089999D01*
G75*
G02*
X181302299Y-91039200I50799J0D01*
G01*
X182496101Y-91039200D01*
G75*
G02*
X182546900Y-91089999I0J-50799D01*
G01*
X182546900Y-91370001D01*
G75*
G02*
X182496101Y-91420800I-50799J0D01*
G01*
G37*
G36*
G01*
X182496101Y-91920800D02*
X181302299Y-91920800D01*
G75*
G02*
X181251500Y-91870001I0J50799D01*
G01*
X181251500Y-91589999D01*
G75*
G02*
X181302299Y-91539200I50799J0D01*
G01*
X182496101Y-91539200D01*
G75*
G02*
X182546900Y-91589999I0J-50799D01*
G01*
X182546900Y-91870001D01*
G75*
G02*
X182496101Y-91920800I-50799J0D01*
G01*
G37*
G36*
G01*
X182496101Y-92420800D02*
X181302299Y-92420800D01*
G75*
G02*
X181251500Y-92370001I0J50799D01*
G01*
X181251500Y-92089999D01*
G75*
G02*
X181302299Y-92039200I50799J0D01*
G01*
X182496101Y-92039200D01*
G75*
G02*
X182546900Y-92089999I0J-50799D01*
G01*
X182546900Y-92370001D01*
G75*
G02*
X182496101Y-92420800I-50799J0D01*
G01*
G37*
G36*
G01*
X182496101Y-92920800D02*
X181302299Y-92920800D01*
G75*
G02*
X181251500Y-92870001I0J50799D01*
G01*
X181251500Y-92589999D01*
G75*
G02*
X181302299Y-92539200I50799J0D01*
G01*
X182496101Y-92539200D01*
G75*
G02*
X182546900Y-92589999I0J-50799D01*
G01*
X182546900Y-92870001D01*
G75*
G02*
X182496101Y-92920800I-50799J0D01*
G01*
G37*
G36*
G01*
X182496101Y-93420800D02*
X181302299Y-93420800D01*
G75*
G02*
X181251500Y-93370001I0J50799D01*
G01*
X181251500Y-93089999D01*
G75*
G02*
X181302299Y-93039200I50799J0D01*
G01*
X182496101Y-93039200D01*
G75*
G02*
X182546900Y-93089999I0J-50799D01*
G01*
X182546900Y-93370001D01*
G75*
G02*
X182496101Y-93420800I-50799J0D01*
G01*
G37*
G36*
G01*
X182496101Y-93920800D02*
X181302299Y-93920800D01*
G75*
G02*
X181251500Y-93870001I0J50799D01*
G01*
X181251500Y-93589999D01*
G75*
G02*
X181302299Y-93539200I50799J0D01*
G01*
X182496101Y-93539200D01*
G75*
G02*
X182546900Y-93589999I0J-50799D01*
G01*
X182546900Y-93870001D01*
G75*
G02*
X182496101Y-93920800I-50799J0D01*
G01*
G37*
G36*
G01*
X182496101Y-94420800D02*
X181302299Y-94420800D01*
G75*
G02*
X181251500Y-94370001I0J50799D01*
G01*
X181251500Y-94089999D01*
G75*
G02*
X181302299Y-94039200I50799J0D01*
G01*
X182496101Y-94039200D01*
G75*
G02*
X182546900Y-94089999I0J-50799D01*
G01*
X182546900Y-94370001D01*
G75*
G02*
X182496101Y-94420800I-50799J0D01*
G01*
G37*
G36*
G01*
X182496101Y-94920800D02*
X181302299Y-94920800D01*
G75*
G02*
X181251500Y-94870001I0J50799D01*
G01*
X181251500Y-94589999D01*
G75*
G02*
X181302299Y-94539200I50799J0D01*
G01*
X182496101Y-94539200D01*
G75*
G02*
X182546900Y-94589999I0J-50799D01*
G01*
X182546900Y-94870001D01*
G75*
G02*
X182496101Y-94920800I-50799J0D01*
G01*
G37*
G36*
G01*
X182496101Y-95420800D02*
X181302299Y-95420800D01*
G75*
G02*
X181251500Y-95370001I0J50799D01*
G01*
X181251500Y-95089999D01*
G75*
G02*
X181302299Y-95039200I50799J0D01*
G01*
X182496101Y-95039200D01*
G75*
G02*
X182546900Y-95089999I0J-50799D01*
G01*
X182546900Y-95370001D01*
G75*
G02*
X182496101Y-95420800I-50799J0D01*
G01*
G37*
G36*
G01*
X182496101Y-95920800D02*
X181302299Y-95920800D01*
G75*
G02*
X181251500Y-95870001I0J50799D01*
G01*
X181251500Y-95589999D01*
G75*
G02*
X181302299Y-95539200I50799J0D01*
G01*
X182496101Y-95539200D01*
G75*
G02*
X182546900Y-95589999I0J-50799D01*
G01*
X182546900Y-95870001D01*
G75*
G02*
X182496101Y-95920800I-50799J0D01*
G01*
G37*
G36*
G01*
X182496101Y-96420800D02*
X181302299Y-96420800D01*
G75*
G02*
X181251500Y-96370001I0J50799D01*
G01*
X181251500Y-96089999D01*
G75*
G02*
X181302299Y-96039200I50799J0D01*
G01*
X182496101Y-96039200D01*
G75*
G02*
X182546900Y-96089999I0J-50799D01*
G01*
X182546900Y-96370001D01*
G75*
G02*
X182496101Y-96420800I-50799J0D01*
G01*
G37*
G36*
G01*
X182496101Y-96920800D02*
X181302299Y-96920800D01*
G75*
G02*
X181251500Y-96870001I0J50799D01*
G01*
X181251500Y-96589999D01*
G75*
G02*
X181302299Y-96539200I50799J0D01*
G01*
X182496101Y-96539200D01*
G75*
G02*
X182546900Y-96589999I0J-50799D01*
G01*
X182546900Y-96870001D01*
G75*
G02*
X182496101Y-96920800I-50799J0D01*
G01*
G37*
G36*
G01*
X180393701Y-96920800D02*
X179199899Y-96920800D01*
G75*
G02*
X179149100Y-96870001I0J50799D01*
G01*
X179149100Y-96589999D01*
G75*
G02*
X179199899Y-96539200I50799J0D01*
G01*
X180393701Y-96539200D01*
G75*
G02*
X180444500Y-96589999I0J-50799D01*
G01*
X180444500Y-96870001D01*
G75*
G02*
X180393701Y-96920800I-50799J0D01*
G01*
G37*
G36*
G01*
X180393701Y-96420800D02*
X179199899Y-96420800D01*
G75*
G02*
X179149100Y-96370001I0J50799D01*
G01*
X179149100Y-96089999D01*
G75*
G02*
X179199899Y-96039200I50799J0D01*
G01*
X180393701Y-96039200D01*
G75*
G02*
X180444500Y-96089999I0J-50799D01*
G01*
X180444500Y-96370001D01*
G75*
G02*
X180393701Y-96420800I-50799J0D01*
G01*
G37*
G36*
G01*
X180393701Y-95920800D02*
X179199899Y-95920800D01*
G75*
G02*
X179149100Y-95870001I0J50799D01*
G01*
X179149100Y-95589999D01*
G75*
G02*
X179199899Y-95539200I50799J0D01*
G01*
X180393701Y-95539200D01*
G75*
G02*
X180444500Y-95589999I0J-50799D01*
G01*
X180444500Y-95870001D01*
G75*
G02*
X180393701Y-95920800I-50799J0D01*
G01*
G37*
G36*
G01*
X180393701Y-95420800D02*
X179199899Y-95420800D01*
G75*
G02*
X179149100Y-95370001I0J50799D01*
G01*
X179149100Y-95089999D01*
G75*
G02*
X179199899Y-95039200I50799J0D01*
G01*
X180393701Y-95039200D01*
G75*
G02*
X180444500Y-95089999I0J-50799D01*
G01*
X180444500Y-95370001D01*
G75*
G02*
X180393701Y-95420800I-50799J0D01*
G01*
G37*
G36*
G01*
X180393701Y-94920800D02*
X179199899Y-94920800D01*
G75*
G02*
X179149100Y-94870001I0J50799D01*
G01*
X179149100Y-94589999D01*
G75*
G02*
X179199899Y-94539200I50799J0D01*
G01*
X180393701Y-94539200D01*
G75*
G02*
X180444500Y-94589999I0J-50799D01*
G01*
X180444500Y-94870001D01*
G75*
G02*
X180393701Y-94920800I-50799J0D01*
G01*
G37*
G36*
G01*
X180393701Y-94420800D02*
X179199899Y-94420800D01*
G75*
G02*
X179149100Y-94370001I0J50799D01*
G01*
X179149100Y-94089999D01*
G75*
G02*
X179199899Y-94039200I50799J0D01*
G01*
X180393701Y-94039200D01*
G75*
G02*
X180444500Y-94089999I0J-50799D01*
G01*
X180444500Y-94370001D01*
G75*
G02*
X180393701Y-94420800I-50799J0D01*
G01*
G37*
G36*
G01*
X180393701Y-93920800D02*
X179199899Y-93920800D01*
G75*
G02*
X179149100Y-93870001I0J50799D01*
G01*
X179149100Y-93589999D01*
G75*
G02*
X179199899Y-93539200I50799J0D01*
G01*
X180393701Y-93539200D01*
G75*
G02*
X180444500Y-93589999I0J-50799D01*
G01*
X180444500Y-93870001D01*
G75*
G02*
X180393701Y-93920800I-50799J0D01*
G01*
G37*
G36*
G01*
X180393701Y-93420800D02*
X179199899Y-93420800D01*
G75*
G02*
X179149100Y-93370001I0J50799D01*
G01*
X179149100Y-93089999D01*
G75*
G02*
X179199899Y-93039200I50799J0D01*
G01*
X180393701Y-93039200D01*
G75*
G02*
X180444500Y-93089999I0J-50799D01*
G01*
X180444500Y-93370001D01*
G75*
G02*
X180393701Y-93420800I-50799J0D01*
G01*
G37*
G36*
G01*
X180393701Y-92920800D02*
X179199899Y-92920800D01*
G75*
G02*
X179149100Y-92870001I0J50799D01*
G01*
X179149100Y-92589999D01*
G75*
G02*
X179199899Y-92539200I50799J0D01*
G01*
X180393701Y-92539200D01*
G75*
G02*
X180444500Y-92589999I0J-50799D01*
G01*
X180444500Y-92870001D01*
G75*
G02*
X180393701Y-92920800I-50799J0D01*
G01*
G37*
G36*
G01*
X180393701Y-92420800D02*
X179199899Y-92420800D01*
G75*
G02*
X179149100Y-92370001I0J50799D01*
G01*
X179149100Y-92089999D01*
G75*
G02*
X179199899Y-92039200I50799J0D01*
G01*
X180393701Y-92039200D01*
G75*
G02*
X180444500Y-92089999I0J-50799D01*
G01*
X180444500Y-92370001D01*
G75*
G02*
X180393701Y-92420800I-50799J0D01*
G01*
G37*
G36*
G01*
X180393701Y-91920800D02*
X179199899Y-91920800D01*
G75*
G02*
X179149100Y-91870001I0J50799D01*
G01*
X179149100Y-91589999D01*
G75*
G02*
X179199899Y-91539200I50799J0D01*
G01*
X180393701Y-91539200D01*
G75*
G02*
X180444500Y-91589999I0J-50799D01*
G01*
X180444500Y-91870001D01*
G75*
G02*
X180393701Y-91920800I-50799J0D01*
G01*
G37*
G36*
G01*
X180393701Y-91420800D02*
X179199899Y-91420800D01*
G75*
G02*
X179149100Y-91370001I0J50799D01*
G01*
X179149100Y-91089999D01*
G75*
G02*
X179199899Y-91039200I50799J0D01*
G01*
X180393701Y-91039200D01*
G75*
G02*
X180444500Y-91089999I0J-50799D01*
G01*
X180444500Y-91370001D01*
G75*
G02*
X180393701Y-91420800I-50799J0D01*
G01*
G37*
D17*
X181768000Y-90170000D03*
X179918000Y-97790000D03*
D15*
X180848000Y-97990000D03*
D16*
X183648000Y-95730000D03*
X183648000Y-92230000D03*
D15*
X180848000Y-89970000D03*
D14*
X178048000Y-93980000D03*
D11*
X171196000Y-96266000D03*
D14*
X178048000Y-79248000D03*
D15*
X180848000Y-75238000D03*
D16*
X183648000Y-77498000D03*
X183648000Y-80998000D03*
D15*
X180848000Y-83258000D03*
D17*
X179918000Y-83058000D03*
X181768000Y-75438000D03*
G36*
G01*
X180393701Y-76688800D02*
X179199899Y-76688800D01*
G75*
G02*
X179149100Y-76638001I0J50799D01*
G01*
X179149100Y-76357999D01*
G75*
G02*
X179199899Y-76307200I50799J0D01*
G01*
X180393701Y-76307200D01*
G75*
G02*
X180444500Y-76357999I0J-50799D01*
G01*
X180444500Y-76638001D01*
G75*
G02*
X180393701Y-76688800I-50799J0D01*
G01*
G37*
G36*
G01*
X180393701Y-77188800D02*
X179199899Y-77188800D01*
G75*
G02*
X179149100Y-77138001I0J50799D01*
G01*
X179149100Y-76857999D01*
G75*
G02*
X179199899Y-76807200I50799J0D01*
G01*
X180393701Y-76807200D01*
G75*
G02*
X180444500Y-76857999I0J-50799D01*
G01*
X180444500Y-77138001D01*
G75*
G02*
X180393701Y-77188800I-50799J0D01*
G01*
G37*
G36*
G01*
X180393701Y-77688800D02*
X179199899Y-77688800D01*
G75*
G02*
X179149100Y-77638001I0J50799D01*
G01*
X179149100Y-77357999D01*
G75*
G02*
X179199899Y-77307200I50799J0D01*
G01*
X180393701Y-77307200D01*
G75*
G02*
X180444500Y-77357999I0J-50799D01*
G01*
X180444500Y-77638001D01*
G75*
G02*
X180393701Y-77688800I-50799J0D01*
G01*
G37*
G36*
G01*
X180393701Y-78188800D02*
X179199899Y-78188800D01*
G75*
G02*
X179149100Y-78138001I0J50799D01*
G01*
X179149100Y-77857999D01*
G75*
G02*
X179199899Y-77807200I50799J0D01*
G01*
X180393701Y-77807200D01*
G75*
G02*
X180444500Y-77857999I0J-50799D01*
G01*
X180444500Y-78138001D01*
G75*
G02*
X180393701Y-78188800I-50799J0D01*
G01*
G37*
G36*
G01*
X180393701Y-78688800D02*
X179199899Y-78688800D01*
G75*
G02*
X179149100Y-78638001I0J50799D01*
G01*
X179149100Y-78357999D01*
G75*
G02*
X179199899Y-78307200I50799J0D01*
G01*
X180393701Y-78307200D01*
G75*
G02*
X180444500Y-78357999I0J-50799D01*
G01*
X180444500Y-78638001D01*
G75*
G02*
X180393701Y-78688800I-50799J0D01*
G01*
G37*
G36*
G01*
X180393701Y-79188800D02*
X179199899Y-79188800D01*
G75*
G02*
X179149100Y-79138001I0J50799D01*
G01*
X179149100Y-78857999D01*
G75*
G02*
X179199899Y-78807200I50799J0D01*
G01*
X180393701Y-78807200D01*
G75*
G02*
X180444500Y-78857999I0J-50799D01*
G01*
X180444500Y-79138001D01*
G75*
G02*
X180393701Y-79188800I-50799J0D01*
G01*
G37*
G36*
G01*
X180393701Y-79688800D02*
X179199899Y-79688800D01*
G75*
G02*
X179149100Y-79638001I0J50799D01*
G01*
X179149100Y-79357999D01*
G75*
G02*
X179199899Y-79307200I50799J0D01*
G01*
X180393701Y-79307200D01*
G75*
G02*
X180444500Y-79357999I0J-50799D01*
G01*
X180444500Y-79638001D01*
G75*
G02*
X180393701Y-79688800I-50799J0D01*
G01*
G37*
G36*
G01*
X180393701Y-80188800D02*
X179199899Y-80188800D01*
G75*
G02*
X179149100Y-80138001I0J50799D01*
G01*
X179149100Y-79857999D01*
G75*
G02*
X179199899Y-79807200I50799J0D01*
G01*
X180393701Y-79807200D01*
G75*
G02*
X180444500Y-79857999I0J-50799D01*
G01*
X180444500Y-80138001D01*
G75*
G02*
X180393701Y-80188800I-50799J0D01*
G01*
G37*
G36*
G01*
X180393701Y-80688800D02*
X179199899Y-80688800D01*
G75*
G02*
X179149100Y-80638001I0J50799D01*
G01*
X179149100Y-80357999D01*
G75*
G02*
X179199899Y-80307200I50799J0D01*
G01*
X180393701Y-80307200D01*
G75*
G02*
X180444500Y-80357999I0J-50799D01*
G01*
X180444500Y-80638001D01*
G75*
G02*
X180393701Y-80688800I-50799J0D01*
G01*
G37*
G36*
G01*
X180393701Y-81188800D02*
X179199899Y-81188800D01*
G75*
G02*
X179149100Y-81138001I0J50799D01*
G01*
X179149100Y-80857999D01*
G75*
G02*
X179199899Y-80807200I50799J0D01*
G01*
X180393701Y-80807200D01*
G75*
G02*
X180444500Y-80857999I0J-50799D01*
G01*
X180444500Y-81138001D01*
G75*
G02*
X180393701Y-81188800I-50799J0D01*
G01*
G37*
G36*
G01*
X180393701Y-81688800D02*
X179199899Y-81688800D01*
G75*
G02*
X179149100Y-81638001I0J50799D01*
G01*
X179149100Y-81357999D01*
G75*
G02*
X179199899Y-81307200I50799J0D01*
G01*
X180393701Y-81307200D01*
G75*
G02*
X180444500Y-81357999I0J-50799D01*
G01*
X180444500Y-81638001D01*
G75*
G02*
X180393701Y-81688800I-50799J0D01*
G01*
G37*
G36*
G01*
X180393701Y-82188800D02*
X179199899Y-82188800D01*
G75*
G02*
X179149100Y-82138001I0J50799D01*
G01*
X179149100Y-81857999D01*
G75*
G02*
X179199899Y-81807200I50799J0D01*
G01*
X180393701Y-81807200D01*
G75*
G02*
X180444500Y-81857999I0J-50799D01*
G01*
X180444500Y-82138001D01*
G75*
G02*
X180393701Y-82188800I-50799J0D01*
G01*
G37*
G36*
G01*
X182496101Y-82188800D02*
X181302299Y-82188800D01*
G75*
G02*
X181251500Y-82138001I0J50799D01*
G01*
X181251500Y-81857999D01*
G75*
G02*
X181302299Y-81807200I50799J0D01*
G01*
X182496101Y-81807200D01*
G75*
G02*
X182546900Y-81857999I0J-50799D01*
G01*
X182546900Y-82138001D01*
G75*
G02*
X182496101Y-82188800I-50799J0D01*
G01*
G37*
G36*
G01*
X182496101Y-81688800D02*
X181302299Y-81688800D01*
G75*
G02*
X181251500Y-81638001I0J50799D01*
G01*
X181251500Y-81357999D01*
G75*
G02*
X181302299Y-81307200I50799J0D01*
G01*
X182496101Y-81307200D01*
G75*
G02*
X182546900Y-81357999I0J-50799D01*
G01*
X182546900Y-81638001D01*
G75*
G02*
X182496101Y-81688800I-50799J0D01*
G01*
G37*
G36*
G01*
X182496101Y-81188800D02*
X181302299Y-81188800D01*
G75*
G02*
X181251500Y-81138001I0J50799D01*
G01*
X181251500Y-80857999D01*
G75*
G02*
X181302299Y-80807200I50799J0D01*
G01*
X182496101Y-80807200D01*
G75*
G02*
X182546900Y-80857999I0J-50799D01*
G01*
X182546900Y-81138001D01*
G75*
G02*
X182496101Y-81188800I-50799J0D01*
G01*
G37*
G36*
G01*
X182496101Y-80688800D02*
X181302299Y-80688800D01*
G75*
G02*
X181251500Y-80638001I0J50799D01*
G01*
X181251500Y-80357999D01*
G75*
G02*
X181302299Y-80307200I50799J0D01*
G01*
X182496101Y-80307200D01*
G75*
G02*
X182546900Y-80357999I0J-50799D01*
G01*
X182546900Y-80638001D01*
G75*
G02*
X182496101Y-80688800I-50799J0D01*
G01*
G37*
G36*
G01*
X182496101Y-80188800D02*
X181302299Y-80188800D01*
G75*
G02*
X181251500Y-80138001I0J50799D01*
G01*
X181251500Y-79857999D01*
G75*
G02*
X181302299Y-79807200I50799J0D01*
G01*
X182496101Y-79807200D01*
G75*
G02*
X182546900Y-79857999I0J-50799D01*
G01*
X182546900Y-80138001D01*
G75*
G02*
X182496101Y-80188800I-50799J0D01*
G01*
G37*
G36*
G01*
X182496101Y-79688800D02*
X181302299Y-79688800D01*
G75*
G02*
X181251500Y-79638001I0J50799D01*
G01*
X181251500Y-79357999D01*
G75*
G02*
X181302299Y-79307200I50799J0D01*
G01*
X182496101Y-79307200D01*
G75*
G02*
X182546900Y-79357999I0J-50799D01*
G01*
X182546900Y-79638001D01*
G75*
G02*
X182496101Y-79688800I-50799J0D01*
G01*
G37*
G36*
G01*
X182496101Y-79188800D02*
X181302299Y-79188800D01*
G75*
G02*
X181251500Y-79138001I0J50799D01*
G01*
X181251500Y-78857999D01*
G75*
G02*
X181302299Y-78807200I50799J0D01*
G01*
X182496101Y-78807200D01*
G75*
G02*
X182546900Y-78857999I0J-50799D01*
G01*
X182546900Y-79138001D01*
G75*
G02*
X182496101Y-79188800I-50799J0D01*
G01*
G37*
G36*
G01*
X182496101Y-78688800D02*
X181302299Y-78688800D01*
G75*
G02*
X181251500Y-78638001I0J50799D01*
G01*
X181251500Y-78357999D01*
G75*
G02*
X181302299Y-78307200I50799J0D01*
G01*
X182496101Y-78307200D01*
G75*
G02*
X182546900Y-78357999I0J-50799D01*
G01*
X182546900Y-78638001D01*
G75*
G02*
X182496101Y-78688800I-50799J0D01*
G01*
G37*
G36*
G01*
X182496101Y-78188800D02*
X181302299Y-78188800D01*
G75*
G02*
X181251500Y-78138001I0J50799D01*
G01*
X181251500Y-77857999D01*
G75*
G02*
X181302299Y-77807200I50799J0D01*
G01*
X182496101Y-77807200D01*
G75*
G02*
X182546900Y-77857999I0J-50799D01*
G01*
X182546900Y-78138001D01*
G75*
G02*
X182496101Y-78188800I-50799J0D01*
G01*
G37*
G36*
G01*
X182496101Y-77688800D02*
X181302299Y-77688800D01*
G75*
G02*
X181251500Y-77638001I0J50799D01*
G01*
X181251500Y-77357999D01*
G75*
G02*
X181302299Y-77307200I50799J0D01*
G01*
X182496101Y-77307200D01*
G75*
G02*
X182546900Y-77357999I0J-50799D01*
G01*
X182546900Y-77638001D01*
G75*
G02*
X182496101Y-77688800I-50799J0D01*
G01*
G37*
G36*
G01*
X182496101Y-77188800D02*
X181302299Y-77188800D01*
G75*
G02*
X181251500Y-77138001I0J50799D01*
G01*
X181251500Y-76857999D01*
G75*
G02*
X181302299Y-76807200I50799J0D01*
G01*
X182496101Y-76807200D01*
G75*
G02*
X182546900Y-76857999I0J-50799D01*
G01*
X182546900Y-77138001D01*
G75*
G02*
X182496101Y-77188800I-50799J0D01*
G01*
G37*
G36*
G01*
X182496101Y-76688800D02*
X181302299Y-76688800D01*
G75*
G02*
X181251500Y-76638001I0J50799D01*
G01*
X181251500Y-76357999D01*
G75*
G02*
X181302299Y-76307200I50799J0D01*
G01*
X182496101Y-76307200D01*
G75*
G02*
X182546900Y-76357999I0J-50799D01*
G01*
X182546900Y-76638001D01*
G75*
G02*
X182496101Y-76688800I-50799J0D01*
G01*
G37*
D12*
X122689000Y-88066000D03*
X122689000Y-79066000D03*
D13*
X126789000Y-87291000D03*
D12*
X128289000Y-88066000D03*
X128289000Y-79066000D03*
D13*
X126789000Y-79841000D03*
X127489000Y-86616000D03*
X126789000Y-85966000D03*
X126789000Y-85166000D03*
X127489000Y-84766000D03*
X126789000Y-84366000D03*
X127489000Y-83966000D03*
X127489000Y-83166000D03*
X126789000Y-82766000D03*
X127489000Y-82366000D03*
X126789000Y-81966000D03*
X126789000Y-81166000D03*
X127489000Y-80516000D03*
G36*
G01*
X129193200Y-81041800D02*
X128278800Y-81041800D01*
G75*
G02*
X128228000Y-80991000I0J50800D01*
G01*
X128228000Y-80641000D01*
G75*
G02*
X128278800Y-80590200I50800J0D01*
G01*
X129193200Y-80590200D01*
G75*
G02*
X129244000Y-80641000I0J-50800D01*
G01*
X129244000Y-80991000D01*
G75*
G02*
X129193200Y-81041800I-50800J0D01*
G01*
G37*
G36*
G01*
X129193200Y-81541800D02*
X128278800Y-81541800D01*
G75*
G02*
X128228000Y-81491000I0J50800D01*
G01*
X128228000Y-81141000D01*
G75*
G02*
X128278800Y-81090200I50800J0D01*
G01*
X129193200Y-81090200D01*
G75*
G02*
X129244000Y-81141000I0J-50800D01*
G01*
X129244000Y-81491000D01*
G75*
G02*
X129193200Y-81541800I-50800J0D01*
G01*
G37*
G36*
G01*
X129193200Y-82041800D02*
X128278800Y-82041800D01*
G75*
G02*
X128228000Y-81991000I0J50800D01*
G01*
X128228000Y-81641000D01*
G75*
G02*
X128278800Y-81590200I50800J0D01*
G01*
X129193200Y-81590200D01*
G75*
G02*
X129244000Y-81641000I0J-50800D01*
G01*
X129244000Y-81991000D01*
G75*
G02*
X129193200Y-82041800I-50800J0D01*
G01*
G37*
G36*
G01*
X129193200Y-82541800D02*
X128278800Y-82541800D01*
G75*
G02*
X128228000Y-82491000I0J50800D01*
G01*
X128228000Y-82141000D01*
G75*
G02*
X128278800Y-82090200I50800J0D01*
G01*
X129193200Y-82090200D01*
G75*
G02*
X129244000Y-82141000I0J-50800D01*
G01*
X129244000Y-82491000D01*
G75*
G02*
X129193200Y-82541800I-50800J0D01*
G01*
G37*
G36*
G01*
X129193200Y-83041800D02*
X128278800Y-83041800D01*
G75*
G02*
X128228000Y-82991000I0J50800D01*
G01*
X128228000Y-82641000D01*
G75*
G02*
X128278800Y-82590200I50800J0D01*
G01*
X129193200Y-82590200D01*
G75*
G02*
X129244000Y-82641000I0J-50800D01*
G01*
X129244000Y-82991000D01*
G75*
G02*
X129193200Y-83041800I-50800J0D01*
G01*
G37*
G36*
G01*
X129193200Y-83541800D02*
X128278800Y-83541800D01*
G75*
G02*
X128228000Y-83491000I0J50800D01*
G01*
X128228000Y-83141000D01*
G75*
G02*
X128278800Y-83090200I50800J0D01*
G01*
X129193200Y-83090200D01*
G75*
G02*
X129244000Y-83141000I0J-50800D01*
G01*
X129244000Y-83491000D01*
G75*
G02*
X129193200Y-83541800I-50800J0D01*
G01*
G37*
G36*
G01*
X129193200Y-84041800D02*
X128278800Y-84041800D01*
G75*
G02*
X128228000Y-83991000I0J50800D01*
G01*
X128228000Y-83641000D01*
G75*
G02*
X128278800Y-83590200I50800J0D01*
G01*
X129193200Y-83590200D01*
G75*
G02*
X129244000Y-83641000I0J-50800D01*
G01*
X129244000Y-83991000D01*
G75*
G02*
X129193200Y-84041800I-50800J0D01*
G01*
G37*
G36*
G01*
X129193200Y-84541800D02*
X128278800Y-84541800D01*
G75*
G02*
X128228000Y-84491000I0J50800D01*
G01*
X128228000Y-84141000D01*
G75*
G02*
X128278800Y-84090200I50800J0D01*
G01*
X129193200Y-84090200D01*
G75*
G02*
X129244000Y-84141000I0J-50800D01*
G01*
X129244000Y-84491000D01*
G75*
G02*
X129193200Y-84541800I-50800J0D01*
G01*
G37*
G36*
G01*
X129193200Y-85041800D02*
X128278800Y-85041800D01*
G75*
G02*
X128228000Y-84991000I0J50800D01*
G01*
X128228000Y-84641000D01*
G75*
G02*
X128278800Y-84590200I50800J0D01*
G01*
X129193200Y-84590200D01*
G75*
G02*
X129244000Y-84641000I0J-50800D01*
G01*
X129244000Y-84991000D01*
G75*
G02*
X129193200Y-85041800I-50800J0D01*
G01*
G37*
G36*
G01*
X129193200Y-85541800D02*
X128278800Y-85541800D01*
G75*
G02*
X128228000Y-85491000I0J50800D01*
G01*
X128228000Y-85141000D01*
G75*
G02*
X128278800Y-85090200I50800J0D01*
G01*
X129193200Y-85090200D01*
G75*
G02*
X129244000Y-85141000I0J-50800D01*
G01*
X129244000Y-85491000D01*
G75*
G02*
X129193200Y-85541800I-50800J0D01*
G01*
G37*
G36*
G01*
X129193200Y-86041800D02*
X128278800Y-86041800D01*
G75*
G02*
X128228000Y-85991000I0J50800D01*
G01*
X128228000Y-85641000D01*
G75*
G02*
X128278800Y-85590200I50800J0D01*
G01*
X129193200Y-85590200D01*
G75*
G02*
X129244000Y-85641000I0J-50800D01*
G01*
X129244000Y-85991000D01*
G75*
G02*
X129193200Y-86041800I-50800J0D01*
G01*
G37*
G36*
G01*
X129193200Y-86541800D02*
X128278800Y-86541800D01*
G75*
G02*
X128228000Y-86491000I0J50800D01*
G01*
X128228000Y-86141000D01*
G75*
G02*
X128278800Y-86090200I50800J0D01*
G01*
X129193200Y-86090200D01*
G75*
G02*
X129244000Y-86141000I0J-50800D01*
G01*
X129244000Y-86491000D01*
G75*
G02*
X129193200Y-86541800I-50800J0D01*
G01*
G37*
D11*
X172466000Y-79248000D03*
X172212000Y-82804000D03*
X171196000Y-81534000D03*
X171196000Y-76962000D03*
X172212000Y-75692000D03*
M02*
