G04 #@! TF.GenerationSoftware,KiCad,Pcbnew,(5.1.7)-1*
G04 #@! TF.CreationDate,2020-12-05T21:57:18-08:00*
G04 #@! TF.ProjectId,DellAdapter_3.1_PanelX3,44656c6c-4164-4617-9074-65725f332e31,rev?*
G04 #@! TF.SameCoordinates,Original*
G04 #@! TF.FileFunction,Legend,Top*
G04 #@! TF.FilePolarity,Positive*
%FSLAX46Y46*%
G04 Gerber Fmt 4.6, Leading zero omitted, Abs format (unit mm)*
G04 Created by KiCad (PCBNEW (5.1.7)-1) date 2020-12-05 21:57:18*
%MOMM*%
%LPD*%
G01*
G04 APERTURE LIST*
%ADD10C,0.120000*%
%ADD11C,0.127000*%
G04 APERTURE END LIST*
D10*
X169164000Y-107188000D02*
G75*
G03*
X169164000Y-107188000I-508000J0D01*
G01*
X167386000Y-107188000D02*
G75*
G03*
X167386000Y-107188000I-508000J0D01*
G01*
X172720000Y-107696000D02*
G75*
G03*
X172720000Y-107696000I-508000J0D01*
G01*
X160274000Y-107696000D02*
G75*
G03*
X160274000Y-107696000I-508000J0D01*
G01*
X179832000Y-115062000D02*
G75*
G03*
X179832000Y-115062000I-508000J0D01*
G01*
X173990000Y-108966000D02*
G75*
G03*
X173990000Y-108966000I-508000J0D01*
G01*
X170688000Y-107188000D02*
G75*
G03*
X170688000Y-107188000I-508000J0D01*
G01*
X177546000Y-113792000D02*
G75*
G03*
X177546000Y-113792000I-508000J0D01*
G01*
X157480000Y-107696000D02*
G75*
G03*
X157480000Y-107696000I-508000J0D01*
G01*
X175514000Y-112522000D02*
G75*
G03*
X175514000Y-112522000I-508000J0D01*
G01*
X165354000Y-107188000D02*
G75*
G03*
X165354000Y-107188000I-508000J0D01*
G01*
X174244000Y-111252000D02*
G75*
G03*
X174244000Y-111252000I-508000J0D01*
G01*
X169164000Y-92456000D02*
G75*
G03*
X169164000Y-92456000I-508000J0D01*
G01*
X165354000Y-92456000D02*
G75*
G03*
X165354000Y-92456000I-508000J0D01*
G01*
X167386000Y-92456000D02*
G75*
G03*
X167386000Y-92456000I-508000J0D01*
G01*
X172720000Y-92964000D02*
G75*
G03*
X172720000Y-92964000I-508000J0D01*
G01*
X160274000Y-92964000D02*
G75*
G03*
X160274000Y-92964000I-508000J0D01*
G01*
X177546000Y-99060000D02*
G75*
G03*
X177546000Y-99060000I-508000J0D01*
G01*
X174244000Y-96520000D02*
G75*
G03*
X174244000Y-96520000I-508000J0D01*
G01*
X157480000Y-92964000D02*
G75*
G03*
X157480000Y-92964000I-508000J0D01*
G01*
X179832000Y-100330000D02*
G75*
G03*
X179832000Y-100330000I-508000J0D01*
G01*
X175514000Y-97790000D02*
G75*
G03*
X175514000Y-97790000I-508000J0D01*
G01*
X173990000Y-94234000D02*
G75*
G03*
X173990000Y-94234000I-508000J0D01*
G01*
X170688000Y-92456000D02*
G75*
G03*
X170688000Y-92456000I-508000J0D01*
G01*
X160274000Y-78232000D02*
G75*
G03*
X160274000Y-78232000I-508000J0D01*
G01*
X157480000Y-78232000D02*
G75*
G03*
X157480000Y-78232000I-508000J0D01*
G01*
X174244000Y-81788000D02*
G75*
G03*
X174244000Y-81788000I-508000J0D01*
G01*
X172720000Y-78232000D02*
G75*
G03*
X172720000Y-78232000I-508000J0D01*
G01*
X173990000Y-79502000D02*
G75*
G03*
X173990000Y-79502000I-508000J0D01*
G01*
X175514000Y-83058000D02*
G75*
G03*
X175514000Y-83058000I-508000J0D01*
G01*
X179832000Y-85598000D02*
G75*
G03*
X179832000Y-85598000I-508000J0D01*
G01*
X177546000Y-84328000D02*
G75*
G03*
X177546000Y-84328000I-508000J0D01*
G01*
X170688000Y-77724000D02*
G75*
G03*
X170688000Y-77724000I-508000J0D01*
G01*
X169164000Y-77724000D02*
G75*
G03*
X169164000Y-77724000I-508000J0D01*
G01*
X167386000Y-77724000D02*
G75*
G03*
X167386000Y-77724000I-508000J0D01*
G01*
X165354000Y-77724000D02*
G75*
G03*
X165354000Y-77724000I-508000J0D01*
G01*
D11*
X168169166Y-106447166D02*
X168169166Y-105939166D01*
X169058166Y-106193166D02*
X168169166Y-106193166D01*
X169058166Y-105642833D02*
X168169166Y-105642833D01*
X168169166Y-105304166D01*
X168211500Y-105219500D01*
X168253833Y-105177166D01*
X168338500Y-105134833D01*
X168465500Y-105134833D01*
X168550166Y-105177166D01*
X168592500Y-105219500D01*
X168634833Y-105304166D01*
X168634833Y-105642833D01*
X169058166Y-104288166D02*
X169058166Y-104796166D01*
X169058166Y-104542166D02*
X168169166Y-104542166D01*
X168296166Y-104626833D01*
X168380833Y-104711500D01*
X168423166Y-104796166D01*
X168169166Y-103991833D02*
X168169166Y-103441500D01*
X168507833Y-103737833D01*
X168507833Y-103610833D01*
X168550166Y-103526166D01*
X168592500Y-103483833D01*
X168677166Y-103441500D01*
X168888833Y-103441500D01*
X168973500Y-103483833D01*
X169015833Y-103526166D01*
X169058166Y-103610833D01*
X169058166Y-103864833D01*
X169015833Y-103949500D01*
X168973500Y-103991833D01*
X166391166Y-106447166D02*
X166391166Y-105939166D01*
X167280166Y-106193166D02*
X166391166Y-106193166D01*
X167280166Y-105642833D02*
X166391166Y-105642833D01*
X166391166Y-105304166D01*
X166433500Y-105219500D01*
X166475833Y-105177166D01*
X166560500Y-105134833D01*
X166687500Y-105134833D01*
X166772166Y-105177166D01*
X166814500Y-105219500D01*
X166856833Y-105304166D01*
X166856833Y-105642833D01*
X167280166Y-104288166D02*
X167280166Y-104796166D01*
X167280166Y-104542166D02*
X166391166Y-104542166D01*
X166518166Y-104626833D01*
X166602833Y-104711500D01*
X166645166Y-104796166D01*
X166687500Y-103526166D02*
X167280166Y-103526166D01*
X166348833Y-103737833D02*
X166983833Y-103949500D01*
X166983833Y-103399166D01*
X171725166Y-107039833D02*
X171725166Y-106531833D01*
X172614166Y-106785833D02*
X171725166Y-106785833D01*
X172614166Y-106235500D02*
X171725166Y-106235500D01*
X171725166Y-105896833D01*
X171767500Y-105812166D01*
X171809833Y-105769833D01*
X171894500Y-105727500D01*
X172021500Y-105727500D01*
X172106166Y-105769833D01*
X172148500Y-105812166D01*
X172190833Y-105896833D01*
X172190833Y-106235500D01*
X171725166Y-104923166D02*
X171725166Y-105346500D01*
X172148500Y-105388833D01*
X172106166Y-105346500D01*
X172063833Y-105261833D01*
X172063833Y-105050166D01*
X172106166Y-104965500D01*
X172148500Y-104923166D01*
X172233166Y-104880833D01*
X172444833Y-104880833D01*
X172529500Y-104923166D01*
X172571833Y-104965500D01*
X172614166Y-105050166D01*
X172614166Y-105261833D01*
X172571833Y-105346500D01*
X172529500Y-105388833D01*
X159279166Y-107039833D02*
X159279166Y-106531833D01*
X160168166Y-106785833D02*
X159279166Y-106785833D01*
X160168166Y-106235500D02*
X159279166Y-106235500D01*
X159279166Y-105896833D01*
X159321500Y-105812166D01*
X159363833Y-105769833D01*
X159448500Y-105727500D01*
X159575500Y-105727500D01*
X159660166Y-105769833D01*
X159702500Y-105812166D01*
X159744833Y-105896833D01*
X159744833Y-106235500D01*
X160168166Y-104880833D02*
X160168166Y-105388833D01*
X160168166Y-105134833D02*
X159279166Y-105134833D01*
X159406166Y-105219500D01*
X159490833Y-105304166D01*
X159533166Y-105388833D01*
X176170166Y-114829166D02*
X176678166Y-114829166D01*
X176424166Y-115718166D02*
X176424166Y-114829166D01*
X176974500Y-115718166D02*
X176974500Y-114829166D01*
X177313166Y-114829166D01*
X177397833Y-114871500D01*
X177440166Y-114913833D01*
X177482500Y-114998500D01*
X177482500Y-115125500D01*
X177440166Y-115210166D01*
X177397833Y-115252500D01*
X177313166Y-115294833D01*
X176974500Y-115294833D01*
X177990500Y-115210166D02*
X177905833Y-115167833D01*
X177863500Y-115125500D01*
X177821166Y-115040833D01*
X177821166Y-114998500D01*
X177863500Y-114913833D01*
X177905833Y-114871500D01*
X177990500Y-114829166D01*
X178159833Y-114829166D01*
X178244500Y-114871500D01*
X178286833Y-114913833D01*
X178329166Y-114998500D01*
X178329166Y-115040833D01*
X178286833Y-115125500D01*
X178244500Y-115167833D01*
X178159833Y-115210166D01*
X177990500Y-115210166D01*
X177905833Y-115252500D01*
X177863500Y-115294833D01*
X177821166Y-115379500D01*
X177821166Y-115548833D01*
X177863500Y-115633500D01*
X177905833Y-115675833D01*
X177990500Y-115718166D01*
X178159833Y-115718166D01*
X178244500Y-115675833D01*
X178286833Y-115633500D01*
X178329166Y-115548833D01*
X178329166Y-115379500D01*
X178286833Y-115294833D01*
X178244500Y-115252500D01*
X178159833Y-115210166D01*
X174138166Y-108479166D02*
X174646166Y-108479166D01*
X174392166Y-109368166D02*
X174392166Y-108479166D01*
X174942500Y-109368166D02*
X174942500Y-108479166D01*
X175281166Y-108479166D01*
X175365833Y-108521500D01*
X175408166Y-108563833D01*
X175450500Y-108648500D01*
X175450500Y-108775500D01*
X175408166Y-108860166D01*
X175365833Y-108902500D01*
X175281166Y-108944833D01*
X174942500Y-108944833D01*
X176212500Y-108479166D02*
X176043166Y-108479166D01*
X175958500Y-108521500D01*
X175916166Y-108563833D01*
X175831500Y-108690833D01*
X175789166Y-108860166D01*
X175789166Y-109198833D01*
X175831500Y-109283500D01*
X175873833Y-109325833D01*
X175958500Y-109368166D01*
X176127833Y-109368166D01*
X176212500Y-109325833D01*
X176254833Y-109283500D01*
X176297166Y-109198833D01*
X176297166Y-108987166D01*
X176254833Y-108902500D01*
X176212500Y-108860166D01*
X176127833Y-108817833D01*
X175958500Y-108817833D01*
X175873833Y-108860166D01*
X175831500Y-108902500D01*
X175789166Y-108987166D01*
X169947166Y-106447166D02*
X169947166Y-105939166D01*
X170836166Y-106193166D02*
X169947166Y-106193166D01*
X170836166Y-105642833D02*
X169947166Y-105642833D01*
X169947166Y-105304166D01*
X169989500Y-105219500D01*
X170031833Y-105177166D01*
X170116500Y-105134833D01*
X170243500Y-105134833D01*
X170328166Y-105177166D01*
X170370500Y-105219500D01*
X170412833Y-105304166D01*
X170412833Y-105642833D01*
X170836166Y-104288166D02*
X170836166Y-104796166D01*
X170836166Y-104542166D02*
X169947166Y-104542166D01*
X170074166Y-104626833D01*
X170158833Y-104711500D01*
X170201166Y-104796166D01*
X170031833Y-103949500D02*
X169989500Y-103907166D01*
X169947166Y-103822500D01*
X169947166Y-103610833D01*
X169989500Y-103526166D01*
X170031833Y-103483833D01*
X170116500Y-103441500D01*
X170201166Y-103441500D01*
X170328166Y-103483833D01*
X170836166Y-103991833D01*
X170836166Y-103441500D01*
X177694166Y-113305166D02*
X178202166Y-113305166D01*
X177948166Y-114194166D02*
X177948166Y-113305166D01*
X178498500Y-114194166D02*
X178498500Y-113305166D01*
X178837166Y-113305166D01*
X178921833Y-113347500D01*
X178964166Y-113389833D01*
X179006500Y-113474500D01*
X179006500Y-113601500D01*
X178964166Y-113686166D01*
X178921833Y-113728500D01*
X178837166Y-113770833D01*
X178498500Y-113770833D01*
X179429833Y-114194166D02*
X179599166Y-114194166D01*
X179683833Y-114151833D01*
X179726166Y-114109500D01*
X179810833Y-113982500D01*
X179853166Y-113813166D01*
X179853166Y-113474500D01*
X179810833Y-113389833D01*
X179768500Y-113347500D01*
X179683833Y-113305166D01*
X179514500Y-113305166D01*
X179429833Y-113347500D01*
X179387500Y-113389833D01*
X179345166Y-113474500D01*
X179345166Y-113686166D01*
X179387500Y-113770833D01*
X179429833Y-113813166D01*
X179514500Y-113855500D01*
X179683833Y-113855500D01*
X179768500Y-113813166D01*
X179810833Y-113770833D01*
X179853166Y-113686166D01*
X156485166Y-107039833D02*
X156485166Y-106531833D01*
X157374166Y-106785833D02*
X156485166Y-106785833D01*
X157374166Y-106235500D02*
X156485166Y-106235500D01*
X156485166Y-105896833D01*
X156527500Y-105812166D01*
X156569833Y-105769833D01*
X156654500Y-105727500D01*
X156781500Y-105727500D01*
X156866166Y-105769833D01*
X156908500Y-105812166D01*
X156950833Y-105896833D01*
X156950833Y-106235500D01*
X156569833Y-105388833D02*
X156527500Y-105346500D01*
X156485166Y-105261833D01*
X156485166Y-105050166D01*
X156527500Y-104965500D01*
X156569833Y-104923166D01*
X156654500Y-104880833D01*
X156739166Y-104880833D01*
X156866166Y-104923166D01*
X157374166Y-105431166D01*
X157374166Y-104880833D01*
X172106166Y-112543166D02*
X172614166Y-112543166D01*
X172360166Y-113432166D02*
X172360166Y-112543166D01*
X172910500Y-113432166D02*
X172910500Y-112543166D01*
X173249166Y-112543166D01*
X173333833Y-112585500D01*
X173376166Y-112627833D01*
X173418500Y-112712500D01*
X173418500Y-112839500D01*
X173376166Y-112924166D01*
X173333833Y-112966500D01*
X173249166Y-113008833D01*
X172910500Y-113008833D01*
X173714833Y-112543166D02*
X174307500Y-112543166D01*
X173926500Y-113432166D01*
X164359166Y-106447166D02*
X164359166Y-105939166D01*
X165248166Y-106193166D02*
X164359166Y-106193166D01*
X165248166Y-105642833D02*
X164359166Y-105642833D01*
X164359166Y-105304166D01*
X164401500Y-105219500D01*
X164443833Y-105177166D01*
X164528500Y-105134833D01*
X164655500Y-105134833D01*
X164740166Y-105177166D01*
X164782500Y-105219500D01*
X164824833Y-105304166D01*
X164824833Y-105642833D01*
X165248166Y-104288166D02*
X165248166Y-104796166D01*
X165248166Y-104542166D02*
X164359166Y-104542166D01*
X164486166Y-104626833D01*
X164570833Y-104711500D01*
X164613166Y-104796166D01*
X164359166Y-103483833D02*
X164359166Y-103907166D01*
X164782500Y-103949500D01*
X164740166Y-103907166D01*
X164697833Y-103822500D01*
X164697833Y-103610833D01*
X164740166Y-103526166D01*
X164782500Y-103483833D01*
X164867166Y-103441500D01*
X165078833Y-103441500D01*
X165163500Y-103483833D01*
X165205833Y-103526166D01*
X165248166Y-103610833D01*
X165248166Y-103822500D01*
X165205833Y-103907166D01*
X165163500Y-103949500D01*
X174392166Y-110765166D02*
X174900166Y-110765166D01*
X174646166Y-111654166D02*
X174646166Y-110765166D01*
X175196500Y-111654166D02*
X175196500Y-110765166D01*
X175535166Y-110765166D01*
X175619833Y-110807500D01*
X175662166Y-110849833D01*
X175704500Y-110934500D01*
X175704500Y-111061500D01*
X175662166Y-111146166D01*
X175619833Y-111188500D01*
X175535166Y-111230833D01*
X175196500Y-111230833D01*
X176466500Y-111061500D02*
X176466500Y-111654166D01*
X176254833Y-110722833D02*
X176043166Y-111357833D01*
X176593500Y-111357833D01*
X168169166Y-91715166D02*
X168169166Y-91207166D01*
X169058166Y-91461166D02*
X168169166Y-91461166D01*
X169058166Y-90910833D02*
X168169166Y-90910833D01*
X168169166Y-90572166D01*
X168211500Y-90487500D01*
X168253833Y-90445166D01*
X168338500Y-90402833D01*
X168465500Y-90402833D01*
X168550166Y-90445166D01*
X168592500Y-90487500D01*
X168634833Y-90572166D01*
X168634833Y-90910833D01*
X169058166Y-89556166D02*
X169058166Y-90064166D01*
X169058166Y-89810166D02*
X168169166Y-89810166D01*
X168296166Y-89894833D01*
X168380833Y-89979500D01*
X168423166Y-90064166D01*
X168169166Y-89259833D02*
X168169166Y-88709500D01*
X168507833Y-89005833D01*
X168507833Y-88878833D01*
X168550166Y-88794166D01*
X168592500Y-88751833D01*
X168677166Y-88709500D01*
X168888833Y-88709500D01*
X168973500Y-88751833D01*
X169015833Y-88794166D01*
X169058166Y-88878833D01*
X169058166Y-89132833D01*
X169015833Y-89217500D01*
X168973500Y-89259833D01*
X164359166Y-91715166D02*
X164359166Y-91207166D01*
X165248166Y-91461166D02*
X164359166Y-91461166D01*
X165248166Y-90910833D02*
X164359166Y-90910833D01*
X164359166Y-90572166D01*
X164401500Y-90487500D01*
X164443833Y-90445166D01*
X164528500Y-90402833D01*
X164655500Y-90402833D01*
X164740166Y-90445166D01*
X164782500Y-90487500D01*
X164824833Y-90572166D01*
X164824833Y-90910833D01*
X165248166Y-89556166D02*
X165248166Y-90064166D01*
X165248166Y-89810166D02*
X164359166Y-89810166D01*
X164486166Y-89894833D01*
X164570833Y-89979500D01*
X164613166Y-90064166D01*
X164359166Y-88751833D02*
X164359166Y-89175166D01*
X164782500Y-89217500D01*
X164740166Y-89175166D01*
X164697833Y-89090500D01*
X164697833Y-88878833D01*
X164740166Y-88794166D01*
X164782500Y-88751833D01*
X164867166Y-88709500D01*
X165078833Y-88709500D01*
X165163500Y-88751833D01*
X165205833Y-88794166D01*
X165248166Y-88878833D01*
X165248166Y-89090500D01*
X165205833Y-89175166D01*
X165163500Y-89217500D01*
X166391166Y-91715166D02*
X166391166Y-91207166D01*
X167280166Y-91461166D02*
X166391166Y-91461166D01*
X167280166Y-90910833D02*
X166391166Y-90910833D01*
X166391166Y-90572166D01*
X166433500Y-90487500D01*
X166475833Y-90445166D01*
X166560500Y-90402833D01*
X166687500Y-90402833D01*
X166772166Y-90445166D01*
X166814500Y-90487500D01*
X166856833Y-90572166D01*
X166856833Y-90910833D01*
X167280166Y-89556166D02*
X167280166Y-90064166D01*
X167280166Y-89810166D02*
X166391166Y-89810166D01*
X166518166Y-89894833D01*
X166602833Y-89979500D01*
X166645166Y-90064166D01*
X166687500Y-88794166D02*
X167280166Y-88794166D01*
X166348833Y-89005833D02*
X166983833Y-89217500D01*
X166983833Y-88667166D01*
X171725166Y-92307833D02*
X171725166Y-91799833D01*
X172614166Y-92053833D02*
X171725166Y-92053833D01*
X172614166Y-91503500D02*
X171725166Y-91503500D01*
X171725166Y-91164833D01*
X171767500Y-91080166D01*
X171809833Y-91037833D01*
X171894500Y-90995500D01*
X172021500Y-90995500D01*
X172106166Y-91037833D01*
X172148500Y-91080166D01*
X172190833Y-91164833D01*
X172190833Y-91503500D01*
X171725166Y-90191166D02*
X171725166Y-90614500D01*
X172148500Y-90656833D01*
X172106166Y-90614500D01*
X172063833Y-90529833D01*
X172063833Y-90318166D01*
X172106166Y-90233500D01*
X172148500Y-90191166D01*
X172233166Y-90148833D01*
X172444833Y-90148833D01*
X172529500Y-90191166D01*
X172571833Y-90233500D01*
X172614166Y-90318166D01*
X172614166Y-90529833D01*
X172571833Y-90614500D01*
X172529500Y-90656833D01*
X159279166Y-92307833D02*
X159279166Y-91799833D01*
X160168166Y-92053833D02*
X159279166Y-92053833D01*
X160168166Y-91503500D02*
X159279166Y-91503500D01*
X159279166Y-91164833D01*
X159321500Y-91080166D01*
X159363833Y-91037833D01*
X159448500Y-90995500D01*
X159575500Y-90995500D01*
X159660166Y-91037833D01*
X159702500Y-91080166D01*
X159744833Y-91164833D01*
X159744833Y-91503500D01*
X160168166Y-90148833D02*
X160168166Y-90656833D01*
X160168166Y-90402833D02*
X159279166Y-90402833D01*
X159406166Y-90487500D01*
X159490833Y-90572166D01*
X159533166Y-90656833D01*
X177694166Y-98573166D02*
X178202166Y-98573166D01*
X177948166Y-99462166D02*
X177948166Y-98573166D01*
X178498500Y-99462166D02*
X178498500Y-98573166D01*
X178837166Y-98573166D01*
X178921833Y-98615500D01*
X178964166Y-98657833D01*
X179006500Y-98742500D01*
X179006500Y-98869500D01*
X178964166Y-98954166D01*
X178921833Y-98996500D01*
X178837166Y-99038833D01*
X178498500Y-99038833D01*
X179429833Y-99462166D02*
X179599166Y-99462166D01*
X179683833Y-99419833D01*
X179726166Y-99377500D01*
X179810833Y-99250500D01*
X179853166Y-99081166D01*
X179853166Y-98742500D01*
X179810833Y-98657833D01*
X179768500Y-98615500D01*
X179683833Y-98573166D01*
X179514500Y-98573166D01*
X179429833Y-98615500D01*
X179387500Y-98657833D01*
X179345166Y-98742500D01*
X179345166Y-98954166D01*
X179387500Y-99038833D01*
X179429833Y-99081166D01*
X179514500Y-99123500D01*
X179683833Y-99123500D01*
X179768500Y-99081166D01*
X179810833Y-99038833D01*
X179853166Y-98954166D01*
X174392166Y-96033166D02*
X174900166Y-96033166D01*
X174646166Y-96922166D02*
X174646166Y-96033166D01*
X175196500Y-96922166D02*
X175196500Y-96033166D01*
X175535166Y-96033166D01*
X175619833Y-96075500D01*
X175662166Y-96117833D01*
X175704500Y-96202500D01*
X175704500Y-96329500D01*
X175662166Y-96414166D01*
X175619833Y-96456500D01*
X175535166Y-96498833D01*
X175196500Y-96498833D01*
X176466500Y-96329500D02*
X176466500Y-96922166D01*
X176254833Y-95990833D02*
X176043166Y-96625833D01*
X176593500Y-96625833D01*
X156485166Y-92307833D02*
X156485166Y-91799833D01*
X157374166Y-92053833D02*
X156485166Y-92053833D01*
X157374166Y-91503500D02*
X156485166Y-91503500D01*
X156485166Y-91164833D01*
X156527500Y-91080166D01*
X156569833Y-91037833D01*
X156654500Y-90995500D01*
X156781500Y-90995500D01*
X156866166Y-91037833D01*
X156908500Y-91080166D01*
X156950833Y-91164833D01*
X156950833Y-91503500D01*
X156569833Y-90656833D02*
X156527500Y-90614500D01*
X156485166Y-90529833D01*
X156485166Y-90318166D01*
X156527500Y-90233500D01*
X156569833Y-90191166D01*
X156654500Y-90148833D01*
X156739166Y-90148833D01*
X156866166Y-90191166D01*
X157374166Y-90699166D01*
X157374166Y-90148833D01*
X176170166Y-100097166D02*
X176678166Y-100097166D01*
X176424166Y-100986166D02*
X176424166Y-100097166D01*
X176974500Y-100986166D02*
X176974500Y-100097166D01*
X177313166Y-100097166D01*
X177397833Y-100139500D01*
X177440166Y-100181833D01*
X177482500Y-100266500D01*
X177482500Y-100393500D01*
X177440166Y-100478166D01*
X177397833Y-100520500D01*
X177313166Y-100562833D01*
X176974500Y-100562833D01*
X177990500Y-100478166D02*
X177905833Y-100435833D01*
X177863500Y-100393500D01*
X177821166Y-100308833D01*
X177821166Y-100266500D01*
X177863500Y-100181833D01*
X177905833Y-100139500D01*
X177990500Y-100097166D01*
X178159833Y-100097166D01*
X178244500Y-100139500D01*
X178286833Y-100181833D01*
X178329166Y-100266500D01*
X178329166Y-100308833D01*
X178286833Y-100393500D01*
X178244500Y-100435833D01*
X178159833Y-100478166D01*
X177990500Y-100478166D01*
X177905833Y-100520500D01*
X177863500Y-100562833D01*
X177821166Y-100647500D01*
X177821166Y-100816833D01*
X177863500Y-100901500D01*
X177905833Y-100943833D01*
X177990500Y-100986166D01*
X178159833Y-100986166D01*
X178244500Y-100943833D01*
X178286833Y-100901500D01*
X178329166Y-100816833D01*
X178329166Y-100647500D01*
X178286833Y-100562833D01*
X178244500Y-100520500D01*
X178159833Y-100478166D01*
X172106166Y-97811166D02*
X172614166Y-97811166D01*
X172360166Y-98700166D02*
X172360166Y-97811166D01*
X172910500Y-98700166D02*
X172910500Y-97811166D01*
X173249166Y-97811166D01*
X173333833Y-97853500D01*
X173376166Y-97895833D01*
X173418500Y-97980500D01*
X173418500Y-98107500D01*
X173376166Y-98192166D01*
X173333833Y-98234500D01*
X173249166Y-98276833D01*
X172910500Y-98276833D01*
X173714833Y-97811166D02*
X174307500Y-97811166D01*
X173926500Y-98700166D01*
X174138166Y-93747166D02*
X174646166Y-93747166D01*
X174392166Y-94636166D02*
X174392166Y-93747166D01*
X174942500Y-94636166D02*
X174942500Y-93747166D01*
X175281166Y-93747166D01*
X175365833Y-93789500D01*
X175408166Y-93831833D01*
X175450500Y-93916500D01*
X175450500Y-94043500D01*
X175408166Y-94128166D01*
X175365833Y-94170500D01*
X175281166Y-94212833D01*
X174942500Y-94212833D01*
X176212500Y-93747166D02*
X176043166Y-93747166D01*
X175958500Y-93789500D01*
X175916166Y-93831833D01*
X175831500Y-93958833D01*
X175789166Y-94128166D01*
X175789166Y-94466833D01*
X175831500Y-94551500D01*
X175873833Y-94593833D01*
X175958500Y-94636166D01*
X176127833Y-94636166D01*
X176212500Y-94593833D01*
X176254833Y-94551500D01*
X176297166Y-94466833D01*
X176297166Y-94255166D01*
X176254833Y-94170500D01*
X176212500Y-94128166D01*
X176127833Y-94085833D01*
X175958500Y-94085833D01*
X175873833Y-94128166D01*
X175831500Y-94170500D01*
X175789166Y-94255166D01*
X169947166Y-91715166D02*
X169947166Y-91207166D01*
X170836166Y-91461166D02*
X169947166Y-91461166D01*
X170836166Y-90910833D02*
X169947166Y-90910833D01*
X169947166Y-90572166D01*
X169989500Y-90487500D01*
X170031833Y-90445166D01*
X170116500Y-90402833D01*
X170243500Y-90402833D01*
X170328166Y-90445166D01*
X170370500Y-90487500D01*
X170412833Y-90572166D01*
X170412833Y-90910833D01*
X170836166Y-89556166D02*
X170836166Y-90064166D01*
X170836166Y-89810166D02*
X169947166Y-89810166D01*
X170074166Y-89894833D01*
X170158833Y-89979500D01*
X170201166Y-90064166D01*
X170031833Y-89217500D02*
X169989500Y-89175166D01*
X169947166Y-89090500D01*
X169947166Y-88878833D01*
X169989500Y-88794166D01*
X170031833Y-88751833D01*
X170116500Y-88709500D01*
X170201166Y-88709500D01*
X170328166Y-88751833D01*
X170836166Y-89259833D01*
X170836166Y-88709500D01*
X159279166Y-77575833D02*
X159279166Y-77067833D01*
X160168166Y-77321833D02*
X159279166Y-77321833D01*
X160168166Y-76771500D02*
X159279166Y-76771500D01*
X159279166Y-76432833D01*
X159321500Y-76348166D01*
X159363833Y-76305833D01*
X159448500Y-76263500D01*
X159575500Y-76263500D01*
X159660166Y-76305833D01*
X159702500Y-76348166D01*
X159744833Y-76432833D01*
X159744833Y-76771500D01*
X160168166Y-75416833D02*
X160168166Y-75924833D01*
X160168166Y-75670833D02*
X159279166Y-75670833D01*
X159406166Y-75755500D01*
X159490833Y-75840166D01*
X159533166Y-75924833D01*
X156485166Y-77575833D02*
X156485166Y-77067833D01*
X157374166Y-77321833D02*
X156485166Y-77321833D01*
X157374166Y-76771500D02*
X156485166Y-76771500D01*
X156485166Y-76432833D01*
X156527500Y-76348166D01*
X156569833Y-76305833D01*
X156654500Y-76263500D01*
X156781500Y-76263500D01*
X156866166Y-76305833D01*
X156908500Y-76348166D01*
X156950833Y-76432833D01*
X156950833Y-76771500D01*
X156569833Y-75924833D02*
X156527500Y-75882500D01*
X156485166Y-75797833D01*
X156485166Y-75586166D01*
X156527500Y-75501500D01*
X156569833Y-75459166D01*
X156654500Y-75416833D01*
X156739166Y-75416833D01*
X156866166Y-75459166D01*
X157374166Y-75967166D01*
X157374166Y-75416833D01*
X174392166Y-81301166D02*
X174900166Y-81301166D01*
X174646166Y-82190166D02*
X174646166Y-81301166D01*
X175196500Y-82190166D02*
X175196500Y-81301166D01*
X175535166Y-81301166D01*
X175619833Y-81343500D01*
X175662166Y-81385833D01*
X175704500Y-81470500D01*
X175704500Y-81597500D01*
X175662166Y-81682166D01*
X175619833Y-81724500D01*
X175535166Y-81766833D01*
X175196500Y-81766833D01*
X176466500Y-81597500D02*
X176466500Y-82190166D01*
X176254833Y-81258833D02*
X176043166Y-81893833D01*
X176593500Y-81893833D01*
X171725166Y-77575833D02*
X171725166Y-77067833D01*
X172614166Y-77321833D02*
X171725166Y-77321833D01*
X172614166Y-76771500D02*
X171725166Y-76771500D01*
X171725166Y-76432833D01*
X171767500Y-76348166D01*
X171809833Y-76305833D01*
X171894500Y-76263500D01*
X172021500Y-76263500D01*
X172106166Y-76305833D01*
X172148500Y-76348166D01*
X172190833Y-76432833D01*
X172190833Y-76771500D01*
X171725166Y-75459166D02*
X171725166Y-75882500D01*
X172148500Y-75924833D01*
X172106166Y-75882500D01*
X172063833Y-75797833D01*
X172063833Y-75586166D01*
X172106166Y-75501500D01*
X172148500Y-75459166D01*
X172233166Y-75416833D01*
X172444833Y-75416833D01*
X172529500Y-75459166D01*
X172571833Y-75501500D01*
X172614166Y-75586166D01*
X172614166Y-75797833D01*
X172571833Y-75882500D01*
X172529500Y-75924833D01*
X174138166Y-79015166D02*
X174646166Y-79015166D01*
X174392166Y-79904166D02*
X174392166Y-79015166D01*
X174942500Y-79904166D02*
X174942500Y-79015166D01*
X175281166Y-79015166D01*
X175365833Y-79057500D01*
X175408166Y-79099833D01*
X175450500Y-79184500D01*
X175450500Y-79311500D01*
X175408166Y-79396166D01*
X175365833Y-79438500D01*
X175281166Y-79480833D01*
X174942500Y-79480833D01*
X176212500Y-79015166D02*
X176043166Y-79015166D01*
X175958500Y-79057500D01*
X175916166Y-79099833D01*
X175831500Y-79226833D01*
X175789166Y-79396166D01*
X175789166Y-79734833D01*
X175831500Y-79819500D01*
X175873833Y-79861833D01*
X175958500Y-79904166D01*
X176127833Y-79904166D01*
X176212500Y-79861833D01*
X176254833Y-79819500D01*
X176297166Y-79734833D01*
X176297166Y-79523166D01*
X176254833Y-79438500D01*
X176212500Y-79396166D01*
X176127833Y-79353833D01*
X175958500Y-79353833D01*
X175873833Y-79396166D01*
X175831500Y-79438500D01*
X175789166Y-79523166D01*
X172106166Y-83079166D02*
X172614166Y-83079166D01*
X172360166Y-83968166D02*
X172360166Y-83079166D01*
X172910500Y-83968166D02*
X172910500Y-83079166D01*
X173249166Y-83079166D01*
X173333833Y-83121500D01*
X173376166Y-83163833D01*
X173418500Y-83248500D01*
X173418500Y-83375500D01*
X173376166Y-83460166D01*
X173333833Y-83502500D01*
X173249166Y-83544833D01*
X172910500Y-83544833D01*
X173714833Y-83079166D02*
X174307500Y-83079166D01*
X173926500Y-83968166D01*
X176170166Y-85365166D02*
X176678166Y-85365166D01*
X176424166Y-86254166D02*
X176424166Y-85365166D01*
X176974500Y-86254166D02*
X176974500Y-85365166D01*
X177313166Y-85365166D01*
X177397833Y-85407500D01*
X177440166Y-85449833D01*
X177482500Y-85534500D01*
X177482500Y-85661500D01*
X177440166Y-85746166D01*
X177397833Y-85788500D01*
X177313166Y-85830833D01*
X176974500Y-85830833D01*
X177990500Y-85746166D02*
X177905833Y-85703833D01*
X177863500Y-85661500D01*
X177821166Y-85576833D01*
X177821166Y-85534500D01*
X177863500Y-85449833D01*
X177905833Y-85407500D01*
X177990500Y-85365166D01*
X178159833Y-85365166D01*
X178244500Y-85407500D01*
X178286833Y-85449833D01*
X178329166Y-85534500D01*
X178329166Y-85576833D01*
X178286833Y-85661500D01*
X178244500Y-85703833D01*
X178159833Y-85746166D01*
X177990500Y-85746166D01*
X177905833Y-85788500D01*
X177863500Y-85830833D01*
X177821166Y-85915500D01*
X177821166Y-86084833D01*
X177863500Y-86169500D01*
X177905833Y-86211833D01*
X177990500Y-86254166D01*
X178159833Y-86254166D01*
X178244500Y-86211833D01*
X178286833Y-86169500D01*
X178329166Y-86084833D01*
X178329166Y-85915500D01*
X178286833Y-85830833D01*
X178244500Y-85788500D01*
X178159833Y-85746166D01*
X177694166Y-83841166D02*
X178202166Y-83841166D01*
X177948166Y-84730166D02*
X177948166Y-83841166D01*
X178498500Y-84730166D02*
X178498500Y-83841166D01*
X178837166Y-83841166D01*
X178921833Y-83883500D01*
X178964166Y-83925833D01*
X179006500Y-84010500D01*
X179006500Y-84137500D01*
X178964166Y-84222166D01*
X178921833Y-84264500D01*
X178837166Y-84306833D01*
X178498500Y-84306833D01*
X179429833Y-84730166D02*
X179599166Y-84730166D01*
X179683833Y-84687833D01*
X179726166Y-84645500D01*
X179810833Y-84518500D01*
X179853166Y-84349166D01*
X179853166Y-84010500D01*
X179810833Y-83925833D01*
X179768500Y-83883500D01*
X179683833Y-83841166D01*
X179514500Y-83841166D01*
X179429833Y-83883500D01*
X179387500Y-83925833D01*
X179345166Y-84010500D01*
X179345166Y-84222166D01*
X179387500Y-84306833D01*
X179429833Y-84349166D01*
X179514500Y-84391500D01*
X179683833Y-84391500D01*
X179768500Y-84349166D01*
X179810833Y-84306833D01*
X179853166Y-84222166D01*
X169947166Y-76983166D02*
X169947166Y-76475166D01*
X170836166Y-76729166D02*
X169947166Y-76729166D01*
X170836166Y-76178833D02*
X169947166Y-76178833D01*
X169947166Y-75840166D01*
X169989500Y-75755500D01*
X170031833Y-75713166D01*
X170116500Y-75670833D01*
X170243500Y-75670833D01*
X170328166Y-75713166D01*
X170370500Y-75755500D01*
X170412833Y-75840166D01*
X170412833Y-76178833D01*
X170836166Y-74824166D02*
X170836166Y-75332166D01*
X170836166Y-75078166D02*
X169947166Y-75078166D01*
X170074166Y-75162833D01*
X170158833Y-75247500D01*
X170201166Y-75332166D01*
X170031833Y-74485500D02*
X169989500Y-74443166D01*
X169947166Y-74358500D01*
X169947166Y-74146833D01*
X169989500Y-74062166D01*
X170031833Y-74019833D01*
X170116500Y-73977500D01*
X170201166Y-73977500D01*
X170328166Y-74019833D01*
X170836166Y-74527833D01*
X170836166Y-73977500D01*
X168169166Y-76983166D02*
X168169166Y-76475166D01*
X169058166Y-76729166D02*
X168169166Y-76729166D01*
X169058166Y-76178833D02*
X168169166Y-76178833D01*
X168169166Y-75840166D01*
X168211500Y-75755500D01*
X168253833Y-75713166D01*
X168338500Y-75670833D01*
X168465500Y-75670833D01*
X168550166Y-75713166D01*
X168592500Y-75755500D01*
X168634833Y-75840166D01*
X168634833Y-76178833D01*
X169058166Y-74824166D02*
X169058166Y-75332166D01*
X169058166Y-75078166D02*
X168169166Y-75078166D01*
X168296166Y-75162833D01*
X168380833Y-75247500D01*
X168423166Y-75332166D01*
X168169166Y-74527833D02*
X168169166Y-73977500D01*
X168507833Y-74273833D01*
X168507833Y-74146833D01*
X168550166Y-74062166D01*
X168592500Y-74019833D01*
X168677166Y-73977500D01*
X168888833Y-73977500D01*
X168973500Y-74019833D01*
X169015833Y-74062166D01*
X169058166Y-74146833D01*
X169058166Y-74400833D01*
X169015833Y-74485500D01*
X168973500Y-74527833D01*
X166391166Y-76983166D02*
X166391166Y-76475166D01*
X167280166Y-76729166D02*
X166391166Y-76729166D01*
X167280166Y-76178833D02*
X166391166Y-76178833D01*
X166391166Y-75840166D01*
X166433500Y-75755500D01*
X166475833Y-75713166D01*
X166560500Y-75670833D01*
X166687500Y-75670833D01*
X166772166Y-75713166D01*
X166814500Y-75755500D01*
X166856833Y-75840166D01*
X166856833Y-76178833D01*
X167280166Y-74824166D02*
X167280166Y-75332166D01*
X167280166Y-75078166D02*
X166391166Y-75078166D01*
X166518166Y-75162833D01*
X166602833Y-75247500D01*
X166645166Y-75332166D01*
X166687500Y-74062166D02*
X167280166Y-74062166D01*
X166348833Y-74273833D02*
X166983833Y-74485500D01*
X166983833Y-73935166D01*
X164359166Y-76983166D02*
X164359166Y-76475166D01*
X165248166Y-76729166D02*
X164359166Y-76729166D01*
X165248166Y-76178833D02*
X164359166Y-76178833D01*
X164359166Y-75840166D01*
X164401500Y-75755500D01*
X164443833Y-75713166D01*
X164528500Y-75670833D01*
X164655500Y-75670833D01*
X164740166Y-75713166D01*
X164782500Y-75755500D01*
X164824833Y-75840166D01*
X164824833Y-76178833D01*
X165248166Y-74824166D02*
X165248166Y-75332166D01*
X165248166Y-75078166D02*
X164359166Y-75078166D01*
X164486166Y-75162833D01*
X164570833Y-75247500D01*
X164613166Y-75332166D01*
X164359166Y-74019833D02*
X164359166Y-74443166D01*
X164782500Y-74485500D01*
X164740166Y-74443166D01*
X164697833Y-74358500D01*
X164697833Y-74146833D01*
X164740166Y-74062166D01*
X164782500Y-74019833D01*
X164867166Y-73977500D01*
X165078833Y-73977500D01*
X165163500Y-74019833D01*
X165205833Y-74062166D01*
X165248166Y-74146833D01*
X165248166Y-74358500D01*
X165205833Y-74443166D01*
X165163500Y-74485500D01*
M02*
