M48
; DRILL file {KiCad (5.1.7)-1} date 12/05/20 21:57:22
; FORMAT={-:-/ absolute / inch / decimal}
; #@! TF.CreationDate,2020-12-05T21:57:22-08:00
; #@! TF.GenerationSoftware,Kicad,Pcbnew,(5.1.7)-1
; #@! TF.FileFunction,Plated,1,2,PTH
FMAT,2
INCH
T1C0.0100
T2C0.0120
T3C0.0157
T4C0.0197
%
G90
G05
T1
X4.82Y-3.07
X4.82Y-3.17
X4.82Y-3.23
X4.82Y-3.29
X4.82Y-3.35
X4.82Y-3.41
X4.82Y-3.52
X4.82Y-3.65
X4.82Y-3.75
X4.82Y-3.81
X4.82Y-3.87
X4.82Y-3.93
X4.82Y-3.99
X4.82Y-4.1
X4.82Y-4.23
X4.82Y-4.33
X4.82Y-4.39
X4.82Y-4.45
X4.82Y-4.51
X4.82Y-4.57
X4.82Y-4.68
X4.91Y-3.11
X4.91Y-3.17
X4.91Y-3.23
X4.91Y-3.69
X4.91Y-3.75
X4.91Y-3.81
X4.91Y-4.27
X4.91Y-4.33
X4.91Y-4.39
X4.96Y-3.17
X4.96Y-3.23
X4.96Y-3.75
X4.96Y-3.81
X4.96Y-4.33
X4.96Y-4.39
X5.06Y-3.41
X5.06Y-3.99
X5.06Y-4.57
X5.07Y-3.17
X5.07Y-3.75
X5.07Y-4.33
X5.09Y-3.34
X5.09Y-3.92
X5.09Y-4.5
X5.1Y-3.13
X5.1Y-3.24
X5.1Y-3.71
X5.1Y-3.82
X5.1Y-4.29
X5.1Y-4.4
X5.11Y-3.34
X5.11Y-3.92
X5.11Y-4.5
X5.12Y-3.24
X5.12Y-3.41
X5.12Y-3.47
X5.12Y-3.82
X5.12Y-3.99
X5.12Y-4.05
X5.12Y-4.4
X5.12Y-4.57
X5.12Y-4.63
X5.13Y-3.17
X5.13Y-3.36
X5.13Y-3.75
X5.13Y-3.94
X5.13Y-4.33
X5.13Y-4.52
X5.18Y-3.47
X5.18Y-4.05
X5.18Y-4.63
X5.19Y-3.25
X5.19Y-3.42
X5.19Y-3.83
X5.19Y-4.0
X5.19Y-4.41
X5.19Y-4.58
X5.2Y-3.29
X5.2Y-3.87
X5.2Y-4.45
X5.23Y-3.29
X5.23Y-3.87
X5.23Y-4.45
X5.24Y-3.33
X5.24Y-3.47
X5.24Y-3.91
X5.24Y-4.05
X5.24Y-4.49
X5.24Y-4.63
X5.27Y-3.33
X5.27Y-3.91
X5.27Y-4.49
X5.28Y-3.37
X5.28Y-3.56
X5.28Y-3.95
X5.28Y-4.14
X5.28Y-4.53
X5.28Y-4.72
X5.31Y-3.37
X5.31Y-3.95
X5.31Y-4.53
X5.32Y-3.6
X5.32Y-4.18
X5.32Y-4.76
X5.34Y-3.4
X5.34Y-3.98
X5.34Y-4.56
X5.36Y-3.53
X5.36Y-3.64
X5.36Y-4.11
X5.36Y-4.22
X5.36Y-4.69
X5.36Y-4.8
X5.3815Y-3.547
X5.3815Y-4.127
X5.3815Y-4.707
X5.4Y-3.57
X5.4Y-3.68
X5.4Y-4.15
X5.4Y-4.26
X5.4Y-4.73
X5.4Y-4.84
X5.42Y-3.59
X5.42Y-4.17
X5.42Y-4.75
X5.46Y-3.68
X5.46Y-4.26
X5.46Y-4.84
X5.5Y-3.607
X5.5Y-4.187
X5.5Y-4.767
X5.52Y-3.68
X5.52Y-4.26
X5.52Y-4.84
X5.55Y-3.44
X5.55Y-3.63
X5.55Y-4.02
X5.55Y-4.21
X5.55Y-4.6
X5.55Y-4.79
X5.58Y-3.68
X5.58Y-4.26
X5.58Y-4.84
X5.6Y-3.42
X5.6Y-4.0
X5.6Y-4.58
X5.66Y-3.37
X5.66Y-3.95
X5.66Y-4.53
X5.7Y-3.33
X5.7Y-3.91
X5.7Y-4.49
X5.74Y-3.29
X5.74Y-3.87
X5.74Y-4.45
X5.78Y-3.25
X5.78Y-3.83
X5.78Y-4.41
X5.82Y-3.21
X5.82Y-3.79
X5.82Y-4.37
X5.86Y-3.17
X5.86Y-3.75
X5.86Y-4.33
X5.9Y-3.13
X5.9Y-3.71
X5.9Y-4.29
X5.95Y-3.09
X5.95Y-3.13
X5.95Y-3.67
X5.95Y-3.71
X5.95Y-4.25
X5.95Y-4.29
X6.0Y-3.09
X6.0Y-3.13
X6.0Y-3.67
X6.0Y-3.71
X6.0Y-4.25
X6.0Y-4.29
X6.05Y-3.09
X6.05Y-3.13
X6.05Y-3.67
X6.05Y-3.71
X6.05Y-4.25
X6.05Y-4.29
X6.1Y-3.09
X6.1Y-3.67
X6.1Y-4.25
X7.0497Y-3.0904
X7.0497Y-3.1496
X7.0497Y-3.6704
X7.0497Y-3.7296
X7.0497Y-4.2504
X7.0497Y-4.3096
X7.08Y-2.93
X7.08Y-3.51
X7.08Y-4.09
X7.11Y-3.11
X7.11Y-3.69
X7.11Y-4.27
X7.1207Y-3.1315
X7.1207Y-3.7115
X7.1207Y-4.2915
X7.1284Y-3.0326
X7.1284Y-3.6126
X7.1284Y-4.1926
X7.16Y-2.93
X7.16Y-3.51
X7.16Y-4.09
X7.19Y-3.05
X7.19Y-3.19
X7.19Y-3.63
X7.19Y-3.77
X7.19Y-4.21
X7.19Y-4.35
X7.1903Y-3.0904
X7.1903Y-3.1496
X7.1903Y-3.6704
X7.1903Y-3.7296
X7.1903Y-4.2504
X7.1903Y-4.3096
X7.2Y-3.24
X7.2Y-3.82
X7.2Y-4.4
X7.2009Y-3.1281
X7.2009Y-3.7081
X7.2009Y-4.2881
X7.21Y-2.94
X7.21Y-3.52
X7.21Y-4.1
X7.2117Y-3.1067
X7.2117Y-3.6867
X7.2117Y-4.2667
X7.24Y-2.97
X7.24Y-3.12
X7.24Y-3.55
X7.24Y-3.7
X7.24Y-4.13
X7.24Y-4.28
T2
X6.0Y-2.98
X6.0Y-3.56
X6.0Y-4.14
X6.08Y-2.98
X6.08Y-3.56
X6.08Y-4.14
X6.15Y-2.98
X6.15Y-3.56
X6.15Y-4.14
X6.22Y-2.98
X6.22Y-3.56
X6.22Y-4.14
X6.49Y-2.93
X6.49Y-3.51
X6.49Y-4.09
X6.52Y-3.39
X6.52Y-3.97
X6.52Y-4.55
X6.56Y-2.93
X6.56Y-3.51
X6.56Y-4.09
X6.58Y-3.39
X6.58Y-3.97
X6.58Y-4.55
X6.63Y-2.93
X6.63Y-3.51
X6.63Y-4.09
X6.64Y-3.39
X6.64Y-3.97
X6.64Y-4.55
X6.7Y-2.93
X6.7Y-3.39
X6.7Y-3.51
X6.7Y-3.97
X6.7Y-4.09
X6.7Y-4.55
X6.76Y-3.39
X6.76Y-3.97
X6.76Y-4.55
X6.78Y-2.93
X6.78Y-3.51
X6.78Y-4.09
X6.82Y-3.39
X6.82Y-3.97
X6.82Y-4.55
X6.86Y-2.93
X6.86Y-3.51
X6.86Y-4.09
X6.88Y-3.39
X6.88Y-3.97
X6.88Y-4.55
X6.94Y-2.93
X6.94Y-3.39
X6.94Y-3.51
X6.94Y-3.97
X6.94Y-4.09
X6.94Y-4.55
X7.0Y-3.39
X7.0Y-3.97
X7.0Y-4.55
X7.01Y-2.93
X7.01Y-3.51
X7.01Y-4.09
X7.11Y-3.39
X7.11Y-3.97
X7.11Y-4.55
X7.18Y-3.39
X7.18Y-3.97
X7.18Y-4.55
X7.22Y-3.38
X7.22Y-3.96
X7.22Y-4.54
X7.24Y-3.26
X7.24Y-3.3
X7.24Y-3.34
X7.24Y-3.84
X7.24Y-3.88
X7.24Y-3.92
X7.24Y-4.42
X7.24Y-4.46
X7.24Y-4.5
T3
X4.9917Y-4.3555
X4.9917Y-4.387
X4.9917Y-4.4185
X4.9917Y-4.4815
X4.9917Y-4.513
X4.9917Y-4.5445
X5.0193Y-4.3299
X5.0193Y-4.4028
X5.0193Y-4.4343
X5.0193Y-4.4657
X5.0193Y-4.4972
X5.0193Y-4.5701
X4.9917Y-3.7755
X4.9917Y-3.807
X4.9917Y-3.8385
X4.9917Y-3.9015
X4.9917Y-3.933
X4.9917Y-3.9645
X5.0193Y-3.7499
X5.0193Y-3.8228
X5.0193Y-3.8543
X5.0193Y-3.8857
X5.0193Y-3.9172
X5.0193Y-3.9901
X4.9917Y-3.1955
X4.9917Y-3.227
X4.9917Y-3.2585
X4.9917Y-3.3215
X4.9917Y-3.353
X4.9917Y-3.3845
X5.0193Y-3.1699
X5.0193Y-3.2428
X5.0193Y-3.2743
X5.0193Y-3.3057
X5.0193Y-3.3372
X5.0193Y-3.4101
T4
G00X7.0098Y-3.7256
M15
G01X7.0098Y-3.6744
M16
G05
G00X7.12Y-3.548
M15
G01X7.12Y-3.5362
M16
G05
G00X7.12Y-3.8638
M15
G01X7.12Y-3.852
M16
G05
G00X7.2302Y-3.6488
M15
G01X7.2302Y-3.6134
M16
G05
G00X7.2302Y-3.7866
M15
G01X7.2302Y-3.7512
M16
G05
G00X7.0098Y-4.3056
M15
G01X7.0098Y-4.2544
M16
G05
G00X7.12Y-4.128
M15
G01X7.12Y-4.1162
M16
G05
G00X7.12Y-4.4438
M15
G01X7.12Y-4.432
M16
G05
G00X7.2302Y-4.2288
M15
G01X7.2302Y-4.1934
M16
G05
G00X7.2302Y-4.3666
M15
G01X7.2302Y-4.3312
M16
G05
G00X7.0098Y-3.1456
M15
G01X7.0098Y-3.0944
M16
G05
G00X7.12Y-2.968
M15
G01X7.12Y-2.9562
M16
G05
G00X7.12Y-3.2838
M15
G01X7.12Y-3.272
M16
G05
G00X7.2302Y-3.0688
M15
G01X7.2302Y-3.0334
M16
G05
G00X7.2302Y-3.2066
M15
G01X7.2302Y-3.1712
M16
G05
T0
M30
