M48
; DRILL file {KiCad (5.1.7)-1} date 12/05/20 21:57:22
; FORMAT={-:-/ absolute / inch / decimal}
; #@! TF.CreationDate,2020-12-05T21:57:22-08:00
; #@! TF.GenerationSoftware,Kicad,Pcbnew,(5.1.7)-1
; #@! TF.FileFunction,NonPlated,1,2,NPTH
FMAT,2
INCH
T1C0.0197
T2C0.0256
T3C0.0295
%
G90
G05
T1
X4.8303Y-4.2728
X4.8303Y-4.6272
X5.0507Y-4.2728
X5.0507Y-4.6272
X4.8303Y-3.6928
X4.8303Y-4.0472
X5.0507Y-3.6928
X5.0507Y-4.0472
X4.8303Y-3.1128
X4.8303Y-3.4672
X5.0507Y-3.1128
X5.0507Y-3.4672
T2
X4.9917Y-4.3033
X4.9917Y-4.5967
X4.9917Y-3.7233
X4.9917Y-4.0167
X4.9917Y-3.1433
X4.9917Y-3.4367
T3
X7.0834Y-3.85
X7.1562Y-3.55
X7.0834Y-4.43
X7.1562Y-4.13
X7.0834Y-3.27
X7.1562Y-2.97
T0
M30
